M48
; DRILL file {KiCad 9.0.8-9.0.8~ubuntu24.04.1} date 2026-03-29T19:28:20-0400
; FORMAT={-:-/ absolute / metric / decimal}
; #@! TF.CreationDate,2026-03-29T19:28:20-04:00
; #@! TF.GenerationSoftware,Kicad,Pcbnew,9.0.8-9.0.8~ubuntu24.04.1
; #@! TF.FileFunction,Plated,1,2,PTH
FMAT,2
METRIC
; #@! TA.AperFunction,Plated,PTH,ViaDrill
T1C0.400
; #@! TA.AperFunction,Plated,PTH,ComponentDrill
T2C0.800
; #@! TA.AperFunction,Plated,PTH,ComponentDrill
T3C1.000
; #@! TA.AperFunction,Plated,PTH,ComponentDrill
T4C1.300
; #@! TA.AperFunction,Plated,PTH,ComponentDrill
T5C2.000
; #@! TA.AperFunction,Plated,PTH,ComponentDrill
T6C3.500
%
G90
G05
T1
X147.54Y-110.89
X160.665Y-102.015
T2
X136.372Y-97.818
X143.992Y-97.818
X149.072Y-97.818
X156.692Y-97.818
X161.29Y-95.64
X167.84Y-89.14
X167.84Y-91.14
X168.91Y-95.64
T3
X123.672Y-94.008
X123.672Y-96.548
X123.672Y-99.088
X126.212Y-94.008
X126.212Y-96.548
X126.212Y-99.088
X131.064Y-89.408
X131.064Y-91.948
X133.604Y-89.408
X133.604Y-91.948
X136.144Y-89.408
X136.144Y-91.948
X138.684Y-89.408
X138.684Y-91.948
X141.224Y-89.408
X141.224Y-91.948
X143.764Y-89.408
X143.764Y-91.948
X146.304Y-89.408
X146.304Y-91.948
X148.844Y-89.408
X148.844Y-91.948
X151.384Y-89.408
X151.384Y-91.948
X153.924Y-89.408
X153.924Y-91.948
X156.464Y-89.408
X156.464Y-91.948
X159.004Y-89.408
X159.004Y-91.948
X161.544Y-89.408
X161.544Y-91.948
T4
X109.702Y-106.708
X114.702Y-106.708
X119.702Y-106.708
X124.702Y-106.708
X129.702Y-106.708
X134.702Y-106.708
X139.702Y-106.708
X144.702Y-106.708
X149.702Y-106.708
X154.702Y-106.708
T5
X163.582Y-102.618
X163.582Y-108.118
X165.582Y-110.518
T6
X110.172Y-96.038
M30
