G04 #@! TF.GenerationSoftware,KiCad,Pcbnew,9.0.8-9.0.8~ubuntu24.04.1*
G04 #@! TF.CreationDate,2026-03-29T19:28:16-04:00*
G04 #@! TF.ProjectId,imac_g3_slot_loading_J22_adapter_board,696d6163-5f67-4335-9f73-6c6f745f6c6f,2*
G04 #@! TF.SameCoordinates,Original*
G04 #@! TF.FileFunction,Copper,L2,Bot*
G04 #@! TF.FilePolarity,Positive*
%FSLAX46Y46*%
G04 Gerber Fmt 4.6, Leading zero omitted, Abs format (unit mm)*
G04 Created by KiCad (PCBNEW 9.0.8-9.0.8~ubuntu24.04.1) date 2026-03-29 19:28:16*
%MOMM*%
%LPD*%
G01*
G04 APERTURE LIST*
G04 Aperture macros list*
%AMRoundRect*
0 Rectangle with rounded corners*
0 $1 Rounding radius*
0 $2 $3 $4 $5 $6 $7 $8 $9 X,Y pos of 4 corners*
0 Add a 4 corners polygon primitive as box body*
4,1,4,$2,$3,$4,$5,$6,$7,$8,$9,$2,$3,0*
0 Add four circle primitives for the rounded corners*
1,1,$1+$1,$2,$3*
1,1,$1+$1,$4,$5*
1,1,$1+$1,$6,$7*
1,1,$1+$1,$8,$9*
0 Add four rect primitives between the rounded corners*
20,1,$1+$1,$2,$3,$4,$5,0*
20,1,$1+$1,$4,$5,$6,$7,0*
20,1,$1+$1,$6,$7,$8,$9,0*
20,1,$1+$1,$8,$9,$2,$3,0*%
%AMFreePoly0*
4,1,23,0.500000,-0.750000,0.000000,-0.750000,0.000000,-0.745722,-0.065263,-0.745722,-0.191342,-0.711940,-0.304381,-0.646677,-0.396677,-0.554381,-0.461940,-0.441342,-0.495722,-0.315263,-0.495722,-0.250000,-0.500000,-0.250000,-0.500000,0.250000,-0.495722,0.250000,-0.495722,0.315263,-0.461940,0.441342,-0.396677,0.554381,-0.304381,0.646677,-0.191342,0.711940,-0.065263,0.745722,0.000000,0.745722,
0.000000,0.750000,0.500000,0.750000,0.500000,-0.750000,0.500000,-0.750000,$1*%
%AMFreePoly1*
4,1,23,0.000000,0.745722,0.065263,0.745722,0.191342,0.711940,0.304381,0.646677,0.396677,0.554381,0.461940,0.441342,0.495722,0.315263,0.495722,0.250000,0.500000,0.250000,0.500000,-0.250000,0.495722,-0.250000,0.495722,-0.315263,0.461940,-0.441342,0.396677,-0.554381,0.304381,-0.646677,0.191342,-0.711940,0.065263,-0.745722,0.000000,-0.745722,0.000000,-0.750000,-0.500000,-0.750000,
-0.500000,0.750000,0.000000,0.750000,0.000000,0.745722,0.000000,0.745722,$1*%
%AMFreePoly2*
4,1,23,0.550000,-0.750000,0.000000,-0.750000,0.000000,-0.745722,-0.065263,-0.745722,-0.191342,-0.711940,-0.304381,-0.646677,-0.396677,-0.554381,-0.461940,-0.441342,-0.495722,-0.315263,-0.495722,-0.250000,-0.500000,-0.250000,-0.500000,0.250000,-0.495722,0.250000,-0.495722,0.315263,-0.461940,0.441342,-0.396677,0.554381,-0.304381,0.646677,-0.191342,0.711940,-0.065263,0.745722,0.000000,0.745722,
0.000000,0.750000,0.550000,0.750000,0.550000,-0.750000,0.550000,-0.750000,$1*%
%AMFreePoly3*
4,1,23,0.000000,0.745722,0.065263,0.745722,0.191342,0.711940,0.304381,0.646677,0.396677,0.554381,0.461940,0.441342,0.495722,0.315263,0.495722,0.250000,0.500000,0.250000,0.500000,-0.250000,0.495722,-0.250000,0.495722,-0.315263,0.461940,-0.441342,0.396677,-0.554381,0.304381,-0.646677,0.191342,-0.711940,0.065263,-0.745722,0.000000,-0.745722,0.000000,-0.750000,-0.550000,-0.750000,
-0.550000,0.750000,0.000000,0.750000,0.000000,0.745722,0.000000,0.745722,$1*%
G04 Aperture macros list end*
G04 #@! TA.AperFunction,ComponentPad*
%ADD10C,7.000000*%
G04 #@! TD*
G04 #@! TA.AperFunction,ComponentPad*
%ADD11C,1.600000*%
G04 #@! TD*
G04 #@! TA.AperFunction,ComponentPad*
%ADD12O,1.600000X1.600000*%
G04 #@! TD*
G04 #@! TA.AperFunction,ComponentPad*
%ADD13C,2.800000*%
G04 #@! TD*
G04 #@! TA.AperFunction,ComponentPad*
%ADD14R,1.700000X1.700000*%
G04 #@! TD*
G04 #@! TA.AperFunction,ComponentPad*
%ADD15O,1.700000X1.700000*%
G04 #@! TD*
G04 #@! TA.AperFunction,ComponentPad*
%ADD16R,2.600000X2.600000*%
G04 #@! TD*
G04 #@! TA.AperFunction,ComponentPad*
%ADD17C,2.600000*%
G04 #@! TD*
G04 #@! TA.AperFunction,ComponentPad*
%ADD18RoundRect,0.250000X0.550000X-0.550000X0.550000X0.550000X-0.550000X0.550000X-0.550000X-0.550000X0*%
G04 #@! TD*
G04 #@! TA.AperFunction,SMDPad,CuDef*
%ADD19FreePoly0,0.000000*%
G04 #@! TD*
G04 #@! TA.AperFunction,SMDPad,CuDef*
%ADD20FreePoly1,0.000000*%
G04 #@! TD*
G04 #@! TA.AperFunction,SMDPad,CuDef*
%ADD21FreePoly2,270.000000*%
G04 #@! TD*
G04 #@! TA.AperFunction,SMDPad,CuDef*
%ADD22R,1.500000X1.000000*%
G04 #@! TD*
G04 #@! TA.AperFunction,SMDPad,CuDef*
%ADD23FreePoly3,270.000000*%
G04 #@! TD*
G04 #@! TA.AperFunction,SMDPad,CuDef*
%ADD24FreePoly0,90.000000*%
G04 #@! TD*
G04 #@! TA.AperFunction,SMDPad,CuDef*
%ADD25FreePoly1,90.000000*%
G04 #@! TD*
G04 #@! TA.AperFunction,ViaPad*
%ADD26C,0.800000*%
G04 #@! TD*
G04 #@! TA.AperFunction,Conductor*
%ADD27C,0.250000*%
G04 #@! TD*
G04 #@! TA.AperFunction,Conductor*
%ADD28C,1.587600*%
G04 #@! TD*
G04 APERTURE END LIST*
D10*
X110172000Y-96038000D03*
D11*
X149072000Y-97818000D03*
D12*
X156692000Y-97818000D03*
D13*
X163582000Y-102618000D03*
X165582000Y-110518000D03*
X163582000Y-108118000D03*
D11*
X136372000Y-97818000D03*
D12*
X143992000Y-97818000D03*
D14*
X123672000Y-94008000D03*
D15*
X126212000Y-94008000D03*
X123672000Y-96548000D03*
X126212000Y-96548000D03*
X123672000Y-99088000D03*
X126212000Y-99088000D03*
D16*
X109702000Y-106708000D03*
D17*
X114702000Y-106708000D03*
X119702000Y-106708000D03*
X124702000Y-106708000D03*
X129702000Y-106708000D03*
X134702000Y-106708000D03*
X139702000Y-106708000D03*
X144702000Y-106708000D03*
X149702000Y-106708000D03*
X154702000Y-106708000D03*
D18*
X167840000Y-91140000D03*
D11*
X167840000Y-89140000D03*
X161290000Y-95640000D03*
D12*
X168910000Y-95640000D03*
D14*
X161544000Y-91948000D03*
D15*
X161544000Y-89408000D03*
X159004000Y-91948000D03*
X159004000Y-89408000D03*
X156464000Y-91948000D03*
X156464000Y-89408000D03*
X153924000Y-91948000D03*
X153924000Y-89408000D03*
X151384000Y-91948000D03*
X151384000Y-89408000D03*
X148844000Y-91948000D03*
X148844000Y-89408000D03*
X146304000Y-91948000D03*
X146304000Y-89408000D03*
X143764000Y-91948000D03*
X143764000Y-89408000D03*
X141224000Y-91948000D03*
X141224000Y-89408000D03*
X138684000Y-91948000D03*
X138684000Y-89408000D03*
X136144000Y-91948000D03*
X136144000Y-89408000D03*
X133604000Y-91948000D03*
X133604000Y-89408000D03*
X131064000Y-91948000D03*
X131064000Y-89408000D03*
D19*
X164390000Y-95890000D03*
D20*
X165690000Y-95890000D03*
D21*
X168290000Y-101590000D03*
D22*
X168290000Y-102890000D03*
D23*
X168290000Y-104190000D03*
D24*
X161290000Y-100290000D03*
D25*
X161290000Y-98990000D03*
D26*
X160665000Y-102015000D03*
X147540000Y-110890000D03*
D27*
X167840000Y-89140000D02*
X165690000Y-91290000D01*
X168290000Y-101590000D02*
X165690000Y-98990000D01*
X165690000Y-98990000D02*
X165690000Y-95890000D01*
X165690000Y-91290000D02*
X165690000Y-95890000D01*
X168290000Y-104190000D02*
X168827900Y-104190000D01*
X170048400Y-102969500D02*
X170048400Y-93348400D01*
X170048400Y-93348400D02*
X167840000Y-91140000D01*
X168827900Y-104190000D02*
X170048400Y-102969500D01*
X139859000Y-90773000D02*
X138120000Y-90773000D01*
X137509000Y-91384000D02*
X137509000Y-96161000D01*
X141224000Y-89408000D02*
X139859000Y-90773000D01*
X138120000Y-90773000D02*
X137509000Y-91384000D01*
X138658000Y-97310000D02*
X138658000Y-102752000D01*
X138658000Y-102752000D02*
X134702000Y-106708000D01*
X137509000Y-96161000D02*
X138658000Y-97310000D01*
X167214700Y-102890000D02*
X168290000Y-102890000D01*
X160540000Y-105140000D02*
X164964700Y-105140000D01*
X164964700Y-105140000D02*
X167214700Y-102890000D01*
X159004000Y-91948000D02*
X159004000Y-103604000D01*
X159004000Y-103604000D02*
X160540000Y-105140000D01*
X134779000Y-91648400D02*
X135844000Y-90583400D01*
X136670000Y-90583400D02*
X137414000Y-89839000D01*
X126212000Y-99088000D02*
X128196000Y-99088000D01*
X128196000Y-99088000D02*
X134779000Y-92504500D01*
X134779000Y-92504500D02*
X134779000Y-91648400D01*
X150209000Y-89040700D02*
X150209000Y-89408000D01*
X137414000Y-89839000D02*
X137414000Y-89005500D01*
X150209000Y-89408000D02*
X151384000Y-89408000D01*
X138685000Y-87734100D02*
X148902000Y-87734100D01*
X137414000Y-89005500D02*
X138685000Y-87734100D01*
X148902000Y-87734100D02*
X150209000Y-89040700D01*
X135844000Y-90583400D02*
X136670000Y-90583400D01*
X154702000Y-101521000D02*
X146304000Y-93123300D01*
X154702000Y-106708000D02*
X154702000Y-101521000D01*
X146304000Y-93123300D02*
X146304000Y-91948000D01*
X144321000Y-90583300D02*
X143444000Y-90583300D01*
X142579000Y-104585000D02*
X144702000Y-106708000D01*
X146304000Y-89408000D02*
X145129000Y-89408000D01*
X142579000Y-91449000D02*
X142579000Y-104585000D01*
X143444000Y-90583300D02*
X142579000Y-91449000D01*
X145129000Y-89408000D02*
X145129000Y-89775400D01*
X145129000Y-89775400D02*
X144321000Y-90583300D01*
X149702000Y-101266000D02*
X143764000Y-95328000D01*
X143764000Y-95328000D02*
X143764000Y-91948000D01*
X149702000Y-106708000D02*
X149702000Y-101266000D01*
X140049000Y-91458600D02*
X140924000Y-90583300D01*
X139702000Y-106708000D02*
X140049000Y-106361000D01*
X140924000Y-90583300D02*
X141781000Y-90583300D01*
X140049000Y-106361000D02*
X140049000Y-91458600D01*
X142589000Y-89775400D02*
X142589000Y-89408000D01*
X142589000Y-89408000D02*
X143764000Y-89408000D01*
X141781000Y-90583300D02*
X142589000Y-89775400D01*
X141224000Y-93123300D02*
X141224000Y-91948000D01*
X141337000Y-93236300D02*
X141224000Y-93123300D01*
X126333000Y-108339000D02*
X140377000Y-108339000D01*
X124702000Y-106708000D02*
X126333000Y-108339000D01*
X140377000Y-108339000D02*
X141337000Y-107379000D01*
X141337000Y-107379000D02*
X141337000Y-93236300D01*
X160665000Y-102015000D02*
X160540000Y-102140000D01*
X143992000Y-97818000D02*
X147540000Y-101366000D01*
X161290000Y-100290000D02*
X161290000Y-101390000D01*
X161290000Y-101390000D02*
X160665000Y-102015000D01*
X147540000Y-101366000D02*
X147540000Y-110890000D01*
X155567000Y-97818000D02*
X150019000Y-92270700D01*
X149180000Y-90583400D02*
X148318000Y-90583400D01*
X147574000Y-89004400D02*
X146788000Y-88218800D01*
X146788000Y-88218800D02*
X139873000Y-88218800D01*
X148318000Y-90583400D02*
X147574000Y-89839000D01*
X156692000Y-97818000D02*
X155567000Y-97818000D01*
X139873000Y-88218800D02*
X138684000Y-89408000D01*
X150019000Y-92270700D02*
X150019000Y-91422400D01*
X150019000Y-91422400D02*
X149180000Y-90583400D01*
X147574000Y-89839000D02*
X147574000Y-89004400D01*
D28*
X129232000Y-91948000D02*
X127482000Y-90198000D01*
X127482000Y-90198000D02*
X117322000Y-90198000D01*
X116052000Y-105358000D02*
X114702000Y-106708000D01*
X116052000Y-91468000D02*
X116052000Y-105358000D01*
X131064000Y-91948000D02*
X129232000Y-91948000D01*
X133604000Y-91948000D02*
X131064000Y-91948000D01*
X117322000Y-90198000D02*
X116052000Y-91468000D01*
D27*
X161770200Y-98990000D02*
X163582000Y-100801800D01*
X161290000Y-98990000D02*
X161770200Y-98990000D01*
X163582000Y-100801800D02*
X163582000Y-102618000D01*
X119702000Y-106708000D02*
X121796000Y-104614000D01*
X121796000Y-104614000D02*
X129576000Y-104614000D01*
X129576000Y-104614000D02*
X136372000Y-97818000D01*
X164390000Y-95890000D02*
X161540000Y-95890000D01*
X161540000Y-95890000D02*
X161290000Y-95640000D01*
G04 #@! TA.AperFunction,Conductor*
G36*
X138493635Y-86913502D02*
G01*
X138540128Y-86967158D01*
X138550232Y-87037432D01*
X138520738Y-87102012D01*
X138473749Y-87135901D01*
X138441894Y-87149102D01*
X138420448Y-87157985D01*
X138384913Y-87172704D01*
X138384853Y-87172735D01*
X138334080Y-87206672D01*
X138330863Y-87208822D01*
X138281167Y-87242029D01*
X138281134Y-87242061D01*
X138281089Y-87242092D01*
X138280831Y-87242349D01*
X138280831Y-87242350D01*
X138233464Y-87289729D01*
X138233452Y-87289743D01*
X138192929Y-87330267D01*
X138192903Y-87330305D01*
X137549810Y-87973600D01*
X137176196Y-88347331D01*
X137113889Y-88381365D01*
X137043073Y-88376312D01*
X137013026Y-88360185D01*
X136856012Y-88246108D01*
X136856011Y-88246107D01*
X136856009Y-88246106D01*
X136665483Y-88149028D01*
X136665480Y-88149027D01*
X136665478Y-88149026D01*
X136462120Y-88082952D01*
X136462123Y-88082952D01*
X136401195Y-88073302D01*
X136250916Y-88049500D01*
X136037084Y-88049500D01*
X135825884Y-88082951D01*
X135825878Y-88082952D01*
X135622521Y-88149026D01*
X135622515Y-88149029D01*
X135431987Y-88246108D01*
X135258993Y-88371796D01*
X135258990Y-88371798D01*
X135107798Y-88522990D01*
X135107796Y-88522993D01*
X134982108Y-88695987D01*
X134981434Y-88697088D01*
X134981068Y-88697418D01*
X134979196Y-88699996D01*
X134978654Y-88699602D01*
X134928787Y-88744721D01*
X134858745Y-88756328D01*
X134793547Y-88728226D01*
X134768976Y-88699870D01*
X134768804Y-88699996D01*
X134767341Y-88697982D01*
X134766566Y-88697088D01*
X134765896Y-88695996D01*
X134765894Y-88695991D01*
X134640206Y-88522996D01*
X134640203Y-88522993D01*
X134640201Y-88522990D01*
X134489009Y-88371798D01*
X134489006Y-88371796D01*
X134489004Y-88371794D01*
X134316601Y-88246536D01*
X134316012Y-88246108D01*
X134316011Y-88246107D01*
X134316009Y-88246106D01*
X134125483Y-88149028D01*
X134125480Y-88149027D01*
X134125478Y-88149026D01*
X133922120Y-88082952D01*
X133922123Y-88082952D01*
X133861195Y-88073302D01*
X133710916Y-88049500D01*
X133497084Y-88049500D01*
X133285884Y-88082951D01*
X133285878Y-88082952D01*
X133082521Y-88149026D01*
X133082515Y-88149029D01*
X132891987Y-88246108D01*
X132718993Y-88371796D01*
X132718990Y-88371798D01*
X132567798Y-88522990D01*
X132567796Y-88522993D01*
X132442108Y-88695987D01*
X132441434Y-88697088D01*
X132441068Y-88697418D01*
X132439196Y-88699996D01*
X132438654Y-88699602D01*
X132388787Y-88744721D01*
X132318745Y-88756328D01*
X132253547Y-88728226D01*
X132228976Y-88699870D01*
X132228804Y-88699996D01*
X132227341Y-88697982D01*
X132226566Y-88697088D01*
X132225896Y-88695996D01*
X132225894Y-88695991D01*
X132100206Y-88522996D01*
X132100203Y-88522993D01*
X132100201Y-88522990D01*
X131949009Y-88371798D01*
X131949006Y-88371796D01*
X131949004Y-88371794D01*
X131776601Y-88246536D01*
X131776012Y-88246108D01*
X131776011Y-88246107D01*
X131776009Y-88246106D01*
X131585483Y-88149028D01*
X131585480Y-88149027D01*
X131585478Y-88149026D01*
X131382120Y-88082952D01*
X131382123Y-88082952D01*
X131321195Y-88073302D01*
X131170916Y-88049500D01*
X130957084Y-88049500D01*
X130745884Y-88082951D01*
X130745878Y-88082952D01*
X130542521Y-88149026D01*
X130542515Y-88149029D01*
X130351987Y-88246108D01*
X130178993Y-88371796D01*
X130178990Y-88371798D01*
X130027798Y-88522990D01*
X130027796Y-88522993D01*
X129902108Y-88695987D01*
X129805029Y-88886515D01*
X129805026Y-88886521D01*
X129738952Y-89089878D01*
X129738951Y-89089883D01*
X129738951Y-89089884D01*
X129705500Y-89301084D01*
X129705500Y-89514916D01*
X129738933Y-89726004D01*
X129738952Y-89726121D01*
X129801860Y-89919733D01*
X129805028Y-89929483D01*
X129902106Y-90120009D01*
X130027794Y-90293004D01*
X130027796Y-90293006D01*
X130027798Y-90293009D01*
X130165394Y-90430605D01*
X130176176Y-90450351D01*
X130190913Y-90467358D01*
X130192860Y-90480905D01*
X130199420Y-90492917D01*
X130197814Y-90515360D01*
X130201017Y-90537632D01*
X130195331Y-90550081D01*
X130194355Y-90563732D01*
X130180870Y-90581745D01*
X130171523Y-90602212D01*
X130160010Y-90609610D01*
X130151808Y-90620568D01*
X130130724Y-90628431D01*
X130111797Y-90640596D01*
X130089526Y-90643798D01*
X130085288Y-90645379D01*
X130076299Y-90645700D01*
X129823620Y-90645700D01*
X129755499Y-90625698D01*
X129734529Y-90608799D01*
X128330392Y-89204661D01*
X128197246Y-89107925D01*
X128164557Y-89084175D01*
X128164556Y-89084174D01*
X128164554Y-89084173D01*
X127981910Y-88991111D01*
X127981907Y-88991110D01*
X127981905Y-88991109D01*
X127786959Y-88927768D01*
X127786963Y-88927768D01*
X127740809Y-88920458D01*
X127584493Y-88895700D01*
X117219507Y-88895700D01*
X117017044Y-88927767D01*
X117017038Y-88927768D01*
X116822094Y-88991109D01*
X116822088Y-88991112D01*
X116639442Y-89084175D01*
X116473607Y-89204661D01*
X116435292Y-89242977D01*
X116328661Y-89349608D01*
X116328658Y-89349611D01*
X115417479Y-90260789D01*
X115185885Y-90492383D01*
X115185883Y-90492385D01*
X115058665Y-90619602D01*
X115058663Y-90619605D01*
X114938175Y-90785442D01*
X114845112Y-90968088D01*
X114845109Y-90968094D01*
X114781768Y-91163038D01*
X114781767Y-91163043D01*
X114781767Y-91163044D01*
X114762496Y-91284721D01*
X114749700Y-91365510D01*
X114749700Y-104766378D01*
X114740916Y-104796292D01*
X114734292Y-104826756D01*
X114730473Y-104831857D01*
X114729698Y-104834499D01*
X114712802Y-104855467D01*
X114705681Y-104862589D01*
X114643371Y-104896619D01*
X114616579Y-104899500D01*
X114583462Y-104899500D01*
X114348429Y-104930442D01*
X114119434Y-104991801D01*
X114119430Y-104991803D01*
X113900408Y-105082525D01*
X113900403Y-105082527D01*
X113900392Y-105082532D01*
X113695099Y-105201058D01*
X113695093Y-105201062D01*
X113507020Y-105345376D01*
X113506999Y-105345395D01*
X113339395Y-105512999D01*
X113339376Y-105513020D01*
X113195062Y-105701093D01*
X113195058Y-105701099D01*
X113076532Y-105906392D01*
X113076527Y-105906403D01*
X113076526Y-105906405D01*
X113013733Y-106058000D01*
X112985803Y-106125430D01*
X112985801Y-106125434D01*
X112924442Y-106354429D01*
X112893500Y-106589462D01*
X112893500Y-106826537D01*
X112924442Y-107061570D01*
X112985801Y-107290565D01*
X112985802Y-107290567D01*
X112985803Y-107290570D01*
X113076526Y-107509595D01*
X113076527Y-107509596D01*
X113076532Y-107509607D01*
X113195058Y-107714900D01*
X113195062Y-107714906D01*
X113339376Y-107902979D01*
X113339395Y-107903000D01*
X113506999Y-108070604D01*
X113507009Y-108070613D01*
X113507015Y-108070619D01*
X113507018Y-108070621D01*
X113507020Y-108070623D01*
X113695093Y-108214937D01*
X113695099Y-108214941D01*
X113900392Y-108333467D01*
X113900396Y-108333468D01*
X113900405Y-108333474D01*
X114119430Y-108424197D01*
X114348422Y-108485556D01*
X114348428Y-108485556D01*
X114348429Y-108485557D01*
X114375400Y-108489107D01*
X114583465Y-108516500D01*
X114583472Y-108516500D01*
X114820528Y-108516500D01*
X114820535Y-108516500D01*
X115055578Y-108485556D01*
X115284570Y-108424197D01*
X115503595Y-108333474D01*
X115708904Y-108214939D01*
X115896985Y-108070619D01*
X116064619Y-107902985D01*
X116208939Y-107714904D01*
X116327474Y-107509595D01*
X116418197Y-107290570D01*
X116479556Y-107061578D01*
X116510500Y-106826535D01*
X116510500Y-106793420D01*
X116530502Y-106725299D01*
X116547400Y-106704329D01*
X116893207Y-106358521D01*
X116893220Y-106358511D01*
X117045334Y-106206397D01*
X117045339Y-106206392D01*
X117165827Y-106040554D01*
X117258889Y-105857910D01*
X117322233Y-105662956D01*
X117354300Y-105460493D01*
X117354300Y-92059620D01*
X117374302Y-91991499D01*
X117391205Y-91970525D01*
X117824525Y-91537205D01*
X117886837Y-91503179D01*
X117913620Y-91500300D01*
X126890379Y-91500300D01*
X126958500Y-91520302D01*
X126979474Y-91537205D01*
X128235485Y-92793215D01*
X128235514Y-92793246D01*
X128383602Y-92941334D01*
X128383605Y-92941336D01*
X128383608Y-92941339D01*
X128549446Y-93061827D01*
X128732090Y-93154889D01*
X128892386Y-93206972D01*
X128927044Y-93218233D01*
X129129507Y-93250301D01*
X129129509Y-93250301D01*
X129339686Y-93250301D01*
X129339710Y-93250300D01*
X130655913Y-93250300D01*
X130694849Y-93256467D01*
X130745878Y-93273047D01*
X130745879Y-93273047D01*
X130745884Y-93273049D01*
X130957084Y-93306500D01*
X130957087Y-93306500D01*
X131170913Y-93306500D01*
X131170916Y-93306500D01*
X131382116Y-93273049D01*
X131433151Y-93256467D01*
X131472087Y-93250300D01*
X132833211Y-93250300D01*
X132901332Y-93270302D01*
X132947825Y-93323958D01*
X132957929Y-93394232D01*
X132928435Y-93458812D01*
X132922310Y-93465392D01*
X127970487Y-98417592D01*
X127908176Y-98451619D01*
X127881388Y-98454500D01*
X127491109Y-98454500D01*
X127422988Y-98434498D01*
X127378844Y-98385706D01*
X127378830Y-98385678D01*
X127373894Y-98375991D01*
X127351766Y-98345535D01*
X127312236Y-98291126D01*
X127248206Y-98202996D01*
X127248203Y-98202993D01*
X127248201Y-98202990D01*
X127097009Y-98051798D01*
X127097006Y-98051796D01*
X127097004Y-98051794D01*
X126924009Y-97926106D01*
X126924007Y-97926105D01*
X126922920Y-97925439D01*
X126922591Y-97925075D01*
X126920004Y-97923196D01*
X126920398Y-97922652D01*
X126875283Y-97872796D01*
X126863670Y-97802756D01*
X126891766Y-97737555D01*
X126920130Y-97712978D01*
X126920004Y-97712804D01*
X126922030Y-97711331D01*
X126922920Y-97710561D01*
X126923997Y-97709899D01*
X126924009Y-97709894D01*
X127097004Y-97584206D01*
X127248206Y-97433004D01*
X127373894Y-97260009D01*
X127470972Y-97069483D01*
X127537049Y-96866116D01*
X127570500Y-96654916D01*
X127570500Y-96441084D01*
X127537049Y-96229884D01*
X127470972Y-96026517D01*
X127373894Y-95835991D01*
X127248206Y-95662996D01*
X127248203Y-95662993D01*
X127248201Y-95662990D01*
X127097009Y-95511798D01*
X127097006Y-95511796D01*
X127097004Y-95511794D01*
X126966781Y-95417182D01*
X126924012Y-95386108D01*
X126922920Y-95385439D01*
X126922591Y-95385075D01*
X126920004Y-95383196D01*
X126920398Y-95382652D01*
X126875283Y-95332796D01*
X126863670Y-95262756D01*
X126891766Y-95197555D01*
X126920130Y-95172978D01*
X126920004Y-95172804D01*
X126922030Y-95171331D01*
X126922920Y-95170561D01*
X126923997Y-95169899D01*
X126924009Y-95169894D01*
X127097004Y-95044206D01*
X127248206Y-94893004D01*
X127373894Y-94720009D01*
X127470972Y-94529483D01*
X127537049Y-94326116D01*
X127570500Y-94114916D01*
X127570500Y-93901084D01*
X127537049Y-93689884D01*
X127470972Y-93486517D01*
X127373894Y-93295991D01*
X127248206Y-93122996D01*
X127248203Y-93122993D01*
X127248201Y-93122990D01*
X127097009Y-92971798D01*
X127097006Y-92971796D01*
X127097004Y-92971794D01*
X126924685Y-92846597D01*
X126924012Y-92846108D01*
X126924011Y-92846107D01*
X126924009Y-92846106D01*
X126733483Y-92749028D01*
X126733480Y-92749027D01*
X126733478Y-92749026D01*
X126530120Y-92682952D01*
X126530123Y-92682952D01*
X126476967Y-92674533D01*
X126318916Y-92649500D01*
X126105084Y-92649500D01*
X125893884Y-92682951D01*
X125893878Y-92682952D01*
X125690521Y-92749026D01*
X125690515Y-92749029D01*
X125499987Y-92846108D01*
X125326995Y-92971794D01*
X125224018Y-93074771D01*
X125161706Y-93108796D01*
X125090890Y-93103730D01*
X125034054Y-93061184D01*
X125016871Y-93029715D01*
X124972889Y-92911796D01*
X124972886Y-92911792D01*
X124972886Y-92911791D01*
X124885261Y-92794738D01*
X124768207Y-92707112D01*
X124768202Y-92707110D01*
X124631204Y-92656011D01*
X124631196Y-92656009D01*
X124570649Y-92649500D01*
X124570638Y-92649500D01*
X122773362Y-92649500D01*
X122773350Y-92649500D01*
X122712803Y-92656009D01*
X122712795Y-92656011D01*
X122575797Y-92707110D01*
X122575792Y-92707112D01*
X122458738Y-92794738D01*
X122371112Y-92911792D01*
X122371110Y-92911797D01*
X122320011Y-93048795D01*
X122320009Y-93048803D01*
X122313500Y-93109350D01*
X122313500Y-94906649D01*
X122320009Y-94967196D01*
X122320011Y-94967204D01*
X122371110Y-95104202D01*
X122371112Y-95104207D01*
X122458738Y-95221261D01*
X122575791Y-95308886D01*
X122575792Y-95308886D01*
X122575796Y-95308889D01*
X122693711Y-95352869D01*
X122750543Y-95395414D01*
X122775354Y-95461934D01*
X122760263Y-95531308D01*
X122738771Y-95560018D01*
X122635794Y-95662995D01*
X122510108Y-95835987D01*
X122413029Y-96026515D01*
X122413026Y-96026521D01*
X122346952Y-96229878D01*
X122346951Y-96229883D01*
X122346951Y-96229884D01*
X122313500Y-96441084D01*
X122313500Y-96654916D01*
X122344816Y-96852634D01*
X122346952Y-96866121D01*
X122406902Y-97050629D01*
X122413028Y-97069483D01*
X122510106Y-97260009D01*
X122635794Y-97433004D01*
X122635796Y-97433006D01*
X122635798Y-97433009D01*
X122786990Y-97584201D01*
X122786993Y-97584203D01*
X122786996Y-97584206D01*
X122959991Y-97709894D01*
X122959996Y-97709896D01*
X122961088Y-97710566D01*
X122961418Y-97710931D01*
X122963996Y-97712804D01*
X122963602Y-97713345D01*
X123008721Y-97763213D01*
X123020328Y-97833255D01*
X122992226Y-97898453D01*
X122963870Y-97923023D01*
X122963996Y-97923196D01*
X122961982Y-97924658D01*
X122961088Y-97925434D01*
X122959987Y-97926108D01*
X122786993Y-98051796D01*
X122786990Y-98051798D01*
X122635798Y-98202990D01*
X122635796Y-98202993D01*
X122510108Y-98375987D01*
X122413029Y-98566515D01*
X122413026Y-98566521D01*
X122346952Y-98769878D01*
X122346951Y-98769883D01*
X122346951Y-98769884D01*
X122313500Y-98981084D01*
X122313500Y-99194916D01*
X122345005Y-99393828D01*
X122346952Y-99406121D01*
X122403880Y-99581328D01*
X122413028Y-99609483D01*
X122510103Y-99800003D01*
X122510108Y-99800012D01*
X122521912Y-99816259D01*
X122635794Y-99973004D01*
X122635796Y-99973006D01*
X122635798Y-99973009D01*
X122786990Y-100124201D01*
X122786993Y-100124203D01*
X122786996Y-100124206D01*
X122959991Y-100249894D01*
X123150517Y-100346972D01*
X123353878Y-100413047D01*
X123353879Y-100413047D01*
X123353884Y-100413049D01*
X123565084Y-100446500D01*
X123565087Y-100446500D01*
X123778913Y-100446500D01*
X123778916Y-100446500D01*
X123990116Y-100413049D01*
X124193483Y-100346972D01*
X124384009Y-100249894D01*
X124557004Y-100124206D01*
X124708206Y-99973004D01*
X124833894Y-99800009D01*
X124833899Y-99799997D01*
X124834561Y-99798920D01*
X124834924Y-99798591D01*
X124836804Y-99796004D01*
X124837347Y-99796398D01*
X124887204Y-99751283D01*
X124957244Y-99739670D01*
X125022445Y-99767766D01*
X125047021Y-99796130D01*
X125047196Y-99796004D01*
X125048668Y-99798030D01*
X125049439Y-99798920D01*
X125050108Y-99800012D01*
X125061912Y-99816259D01*
X125175794Y-99973004D01*
X125175796Y-99973006D01*
X125175798Y-99973009D01*
X125326990Y-100124201D01*
X125326993Y-100124203D01*
X125326996Y-100124206D01*
X125499991Y-100249894D01*
X125690517Y-100346972D01*
X125893878Y-100413047D01*
X125893879Y-100413047D01*
X125893884Y-100413049D01*
X126105084Y-100446500D01*
X126105087Y-100446500D01*
X126318913Y-100446500D01*
X126318916Y-100446500D01*
X126530116Y-100413049D01*
X126733483Y-100346972D01*
X126924009Y-100249894D01*
X127097004Y-100124206D01*
X127248206Y-99973004D01*
X127373894Y-99800009D01*
X127378844Y-99790294D01*
X127427593Y-99738680D01*
X127491109Y-99721500D01*
X128133620Y-99721500D01*
X128133630Y-99721502D01*
X128183545Y-99721500D01*
X128258394Y-99721500D01*
X128258402Y-99721498D01*
X128258414Y-99721497D01*
X128258418Y-99721497D01*
X128292888Y-99714639D01*
X128310125Y-99711210D01*
X128310126Y-99711209D01*
X128380785Y-99697155D01*
X128380788Y-99697153D01*
X128380800Y-99697151D01*
X128380806Y-99697148D01*
X128380808Y-99697148D01*
X128441144Y-99672153D01*
X128496075Y-99649400D01*
X128496081Y-99649394D01*
X128496086Y-99649393D01*
X128496087Y-99649391D01*
X128496096Y-99649389D01*
X128555815Y-99609483D01*
X128599833Y-99580071D01*
X128599835Y-99580068D01*
X128600407Y-99579686D01*
X128600692Y-99579418D01*
X128603226Y-99576682D01*
X128652479Y-99527424D01*
X128652485Y-99527418D01*
X128688071Y-99491833D01*
X128688076Y-99491824D01*
X135145952Y-93033457D01*
X135208261Y-92999432D01*
X135279077Y-93004494D01*
X135309105Y-93020612D01*
X135431991Y-93109894D01*
X135622517Y-93206972D01*
X135825878Y-93273047D01*
X135825879Y-93273047D01*
X135825884Y-93273049D01*
X136037084Y-93306500D01*
X136037087Y-93306500D01*
X136250913Y-93306500D01*
X136250916Y-93306500D01*
X136462116Y-93273049D01*
X136665483Y-93206972D01*
X136856009Y-93109894D01*
X137029004Y-92984206D01*
X137180206Y-92833004D01*
X137305894Y-92660009D01*
X137305899Y-92659997D01*
X137306561Y-92658920D01*
X137306924Y-92658591D01*
X137308804Y-92656004D01*
X137309347Y-92656398D01*
X137359204Y-92611283D01*
X137429244Y-92599670D01*
X137494445Y-92627766D01*
X137519021Y-92656130D01*
X137519196Y-92656004D01*
X137520668Y-92658030D01*
X137521439Y-92658920D01*
X137522105Y-92660007D01*
X137522106Y-92660009D01*
X137647794Y-92833004D01*
X137647796Y-92833006D01*
X137647798Y-92833009D01*
X137798990Y-92984201D01*
X137798993Y-92984203D01*
X137798996Y-92984206D01*
X137971991Y-93109894D01*
X138162517Y-93206972D01*
X138365878Y-93273047D01*
X138365879Y-93273047D01*
X138365884Y-93273049D01*
X138577084Y-93306500D01*
X138577087Y-93306500D01*
X138790913Y-93306500D01*
X138790916Y-93306500D01*
X139002116Y-93273049D01*
X139205483Y-93206972D01*
X139232298Y-93193308D01*
X139302074Y-93180205D01*
X139367858Y-93206905D01*
X139408765Y-93264932D01*
X139415500Y-93305576D01*
X139415500Y-104815787D01*
X139395498Y-104883908D01*
X139341842Y-104930401D01*
X139322113Y-104937493D01*
X139119430Y-104991803D01*
X138900408Y-105082525D01*
X138900403Y-105082527D01*
X138900392Y-105082532D01*
X138695099Y-105201058D01*
X138695093Y-105201062D01*
X138507020Y-105345376D01*
X138506999Y-105345395D01*
X138339395Y-105512999D01*
X138339376Y-105513020D01*
X138195062Y-105701093D01*
X138195058Y-105701099D01*
X138076532Y-105906392D01*
X138076527Y-105906403D01*
X138076526Y-105906405D01*
X138013733Y-106058000D01*
X137985803Y-106125430D01*
X137985801Y-106125434D01*
X137924442Y-106354429D01*
X137893500Y-106589462D01*
X137893500Y-106826537D01*
X137924442Y-107061570D01*
X137985801Y-107290565D01*
X137985802Y-107290567D01*
X137985803Y-107290570D01*
X138076526Y-107509595D01*
X138076527Y-107509596D01*
X138076528Y-107509599D01*
X138080512Y-107516499D01*
X138097250Y-107585494D01*
X138074030Y-107652586D01*
X138018223Y-107696474D01*
X137971393Y-107705500D01*
X136432030Y-107705500D01*
X136363909Y-107685498D01*
X136317416Y-107631842D01*
X136307312Y-107561568D01*
X136322913Y-107516496D01*
X136327021Y-107509380D01*
X136327023Y-107509375D01*
X136417722Y-107290408D01*
X136479065Y-107061472D01*
X136509999Y-106826505D01*
X136510000Y-106826496D01*
X136510000Y-106589504D01*
X136509999Y-106589494D01*
X136479065Y-106354527D01*
X136417722Y-106125591D01*
X136327023Y-105906624D01*
X136327018Y-105906614D01*
X136208522Y-105701373D01*
X136147440Y-105621769D01*
X136147439Y-105621768D01*
X135304697Y-106464510D01*
X135278022Y-106400110D01*
X135206888Y-106293649D01*
X135116351Y-106203112D01*
X135009890Y-106131978D01*
X134945488Y-106105301D01*
X135788230Y-105262559D01*
X135708626Y-105201477D01*
X135503385Y-105082981D01*
X135503375Y-105082976D01*
X135284408Y-104992277D01*
X135055472Y-104930934D01*
X134820505Y-104900000D01*
X134583494Y-104900000D01*
X134348527Y-104930934D01*
X134119591Y-104992277D01*
X133900624Y-105082976D01*
X133900614Y-105082981D01*
X133695386Y-105201470D01*
X133695371Y-105201480D01*
X133615768Y-105262559D01*
X134458510Y-106105301D01*
X134394110Y-106131978D01*
X134287649Y-106203112D01*
X134197112Y-106293649D01*
X134125978Y-106400110D01*
X134099301Y-106464511D01*
X133256559Y-105621768D01*
X133195480Y-105701371D01*
X133195470Y-105701386D01*
X133076981Y-105906614D01*
X133076976Y-105906624D01*
X132986277Y-106125591D01*
X132924934Y-106354527D01*
X132894000Y-106589494D01*
X132894000Y-106826505D01*
X132924934Y-107061472D01*
X132986277Y-107290408D01*
X133076976Y-107509375D01*
X133076978Y-107509380D01*
X133081087Y-107516496D01*
X133097827Y-107585491D01*
X133074609Y-107652584D01*
X133018804Y-107696473D01*
X132971970Y-107705500D01*
X131432607Y-107705500D01*
X131364486Y-107685498D01*
X131317993Y-107631842D01*
X131307889Y-107561568D01*
X131323488Y-107516499D01*
X131323670Y-107516182D01*
X131327474Y-107509595D01*
X131418197Y-107290570D01*
X131479556Y-107061578D01*
X131510500Y-106826535D01*
X131510500Y-106589465D01*
X131483107Y-106381400D01*
X131479557Y-106354429D01*
X131479556Y-106354428D01*
X131479556Y-106354422D01*
X131418197Y-106125430D01*
X131327474Y-105906405D01*
X131327468Y-105906396D01*
X131327467Y-105906392D01*
X131208941Y-105701099D01*
X131208937Y-105701093D01*
X131064623Y-105513020D01*
X131064621Y-105513018D01*
X131064619Y-105513015D01*
X131064613Y-105513009D01*
X131064604Y-105512999D01*
X130897000Y-105345395D01*
X130896979Y-105345376D01*
X130708906Y-105201062D01*
X130708900Y-105201058D01*
X130503607Y-105082532D01*
X130503599Y-105082528D01*
X130503595Y-105082526D01*
X130324102Y-105008177D01*
X130268823Y-104963631D01*
X130246402Y-104896267D01*
X130263960Y-104827476D01*
X130283223Y-104802679D01*
X135956342Y-99129560D01*
X136018652Y-99095536D01*
X136065146Y-99094208D01*
X136065583Y-99094277D01*
X136065592Y-99094280D01*
X136269019Y-99126500D01*
X136269022Y-99126500D01*
X136474978Y-99126500D01*
X136474981Y-99126500D01*
X136678408Y-99094280D01*
X136874290Y-99030634D01*
X137057803Y-98937129D01*
X137224430Y-98816068D01*
X137370068Y-98670430D01*
X137491129Y-98503803D01*
X137584634Y-98320290D01*
X137648280Y-98124408D01*
X137680500Y-97920981D01*
X137680500Y-97715019D01*
X137648280Y-97511592D01*
X137584634Y-97315710D01*
X137491129Y-97132197D01*
X137370068Y-96965570D01*
X137370065Y-96965567D01*
X137370063Y-96965564D01*
X137224435Y-96819936D01*
X137224432Y-96819934D01*
X137224430Y-96819932D01*
X137057803Y-96698871D01*
X136874290Y-96605366D01*
X136874287Y-96605365D01*
X136874285Y-96605364D01*
X136678412Y-96541721D01*
X136678410Y-96541720D01*
X136678408Y-96541720D01*
X136474981Y-96509500D01*
X136269019Y-96509500D01*
X136065592Y-96541720D01*
X136065590Y-96541720D01*
X136065587Y-96541721D01*
X135869714Y-96605364D01*
X135869708Y-96605367D01*
X135686193Y-96698873D01*
X135519567Y-96819934D01*
X135519564Y-96819936D01*
X135373936Y-96965564D01*
X135373934Y-96965567D01*
X135252873Y-97132193D01*
X135159367Y-97315708D01*
X135159364Y-97315714D01*
X135095721Y-97511587D01*
X135095720Y-97511590D01*
X135095720Y-97511592D01*
X135063500Y-97715019D01*
X135063500Y-97920981D01*
X135075065Y-97993996D01*
X135095790Y-98124853D01*
X135086690Y-98195264D01*
X135060436Y-98233658D01*
X129350501Y-103943595D01*
X129288189Y-103977621D01*
X129261406Y-103980500D01*
X121733603Y-103980500D01*
X121660568Y-103995028D01*
X121611215Y-104004845D01*
X121611213Y-104004845D01*
X121611212Y-104004846D01*
X121495923Y-104052601D01*
X121392171Y-104121926D01*
X121392169Y-104121927D01*
X120512196Y-105001899D01*
X120449884Y-105035924D01*
X120379068Y-105030859D01*
X120374895Y-105029216D01*
X120284570Y-104991803D01*
X120284567Y-104991802D01*
X120284565Y-104991801D01*
X120096483Y-104941404D01*
X120055578Y-104930444D01*
X120055576Y-104930443D01*
X120055570Y-104930442D01*
X119820537Y-104899500D01*
X119820535Y-104899500D01*
X119583465Y-104899500D01*
X119583462Y-104899500D01*
X119348429Y-104930442D01*
X119119434Y-104991801D01*
X119119430Y-104991803D01*
X118900408Y-105082525D01*
X118900403Y-105082527D01*
X118900392Y-105082532D01*
X118695099Y-105201058D01*
X118695093Y-105201062D01*
X118507020Y-105345376D01*
X118506999Y-105345395D01*
X118339395Y-105512999D01*
X118339376Y-105513020D01*
X118195062Y-105701093D01*
X118195058Y-105701099D01*
X118076532Y-105906392D01*
X118076527Y-105906403D01*
X118076526Y-105906405D01*
X118013733Y-106058000D01*
X117985803Y-106125430D01*
X117985801Y-106125434D01*
X117924442Y-106354429D01*
X117893500Y-106589462D01*
X117893500Y-106826537D01*
X117924442Y-107061570D01*
X117985801Y-107290565D01*
X117985802Y-107290567D01*
X117985803Y-107290570D01*
X118076526Y-107509595D01*
X118076527Y-107509596D01*
X118076532Y-107509607D01*
X118195058Y-107714900D01*
X118195062Y-107714906D01*
X118339376Y-107902979D01*
X118339395Y-107903000D01*
X118506999Y-108070604D01*
X118507009Y-108070613D01*
X118507015Y-108070619D01*
X118507018Y-108070621D01*
X118507020Y-108070623D01*
X118695093Y-108214937D01*
X118695099Y-108214941D01*
X118900392Y-108333467D01*
X118900396Y-108333468D01*
X118900405Y-108333474D01*
X119119430Y-108424197D01*
X119348422Y-108485556D01*
X119348428Y-108485556D01*
X119348429Y-108485557D01*
X119375400Y-108489107D01*
X119583465Y-108516500D01*
X119583472Y-108516500D01*
X119820528Y-108516500D01*
X119820535Y-108516500D01*
X120055578Y-108485556D01*
X120284570Y-108424197D01*
X120503595Y-108333474D01*
X120708904Y-108214939D01*
X120896985Y-108070619D01*
X121064619Y-107902985D01*
X121208939Y-107714904D01*
X121327474Y-107509595D01*
X121418197Y-107290570D01*
X121479556Y-107061578D01*
X121510500Y-106826535D01*
X121510500Y-106589465D01*
X121483107Y-106381400D01*
X121479557Y-106354429D01*
X121479556Y-106354428D01*
X121479556Y-106354422D01*
X121418197Y-106125430D01*
X121380786Y-106035114D01*
X121373198Y-105964525D01*
X121404977Y-105901038D01*
X121408071Y-105897832D01*
X122021500Y-105284404D01*
X122083812Y-105250379D01*
X122110595Y-105247500D01*
X123300705Y-105247500D01*
X123368826Y-105267502D01*
X123415319Y-105321158D01*
X123425423Y-105391432D01*
X123395929Y-105456012D01*
X123389800Y-105462595D01*
X123339395Y-105512999D01*
X123339376Y-105513020D01*
X123195062Y-105701093D01*
X123195058Y-105701099D01*
X123076532Y-105906392D01*
X123076527Y-105906403D01*
X123076526Y-105906405D01*
X123013733Y-106058000D01*
X122985803Y-106125430D01*
X122985801Y-106125434D01*
X122924442Y-106354429D01*
X122893500Y-106589462D01*
X122893500Y-106826537D01*
X122924442Y-107061570D01*
X122985801Y-107290565D01*
X122985802Y-107290567D01*
X122985803Y-107290570D01*
X123076526Y-107509595D01*
X123076527Y-107509596D01*
X123076532Y-107509607D01*
X123195058Y-107714900D01*
X123195062Y-107714906D01*
X123339376Y-107902979D01*
X123339395Y-107903000D01*
X123506999Y-108070604D01*
X123507009Y-108070613D01*
X123507015Y-108070619D01*
X123507018Y-108070621D01*
X123507020Y-108070623D01*
X123695093Y-108214937D01*
X123695099Y-108214941D01*
X123900392Y-108333467D01*
X123900396Y-108333468D01*
X123900405Y-108333474D01*
X124119430Y-108424197D01*
X124348422Y-108485556D01*
X124348428Y-108485556D01*
X124348429Y-108485557D01*
X124375400Y-108489107D01*
X124583465Y-108516500D01*
X124583472Y-108516500D01*
X124820528Y-108516500D01*
X124820535Y-108516500D01*
X125055578Y-108485556D01*
X125284570Y-108424197D01*
X125374885Y-108386786D01*
X125445473Y-108379198D01*
X125508960Y-108410977D01*
X125512197Y-108414101D01*
X125929167Y-108831071D01*
X126032925Y-108900400D01*
X126148215Y-108948155D01*
X126270606Y-108972500D01*
X126270607Y-108972500D01*
X140439393Y-108972500D01*
X140439394Y-108972500D01*
X140561785Y-108948155D01*
X140677075Y-108900400D01*
X140780833Y-108831071D01*
X141829071Y-107782833D01*
X141898400Y-107679075D01*
X141946155Y-107563785D01*
X141970500Y-107441394D01*
X141970500Y-107316606D01*
X141970500Y-105176594D01*
X141990502Y-105108473D01*
X142044158Y-105061980D01*
X142114432Y-105051876D01*
X142179012Y-105081370D01*
X142185595Y-105087499D01*
X142995898Y-105897802D01*
X143029924Y-105960114D01*
X143024859Y-106030929D01*
X143023212Y-106035114D01*
X142985805Y-106125424D01*
X142985801Y-106125434D01*
X142924442Y-106354429D01*
X142893500Y-106589462D01*
X142893500Y-106826537D01*
X142924442Y-107061570D01*
X142985801Y-107290565D01*
X142985802Y-107290567D01*
X142985803Y-107290570D01*
X143076526Y-107509595D01*
X143076527Y-107509596D01*
X143076532Y-107509607D01*
X143195058Y-107714900D01*
X143195062Y-107714906D01*
X143339376Y-107902979D01*
X143339395Y-107903000D01*
X143506999Y-108070604D01*
X143507009Y-108070613D01*
X143507015Y-108070619D01*
X143507018Y-108070621D01*
X143507020Y-108070623D01*
X143695093Y-108214937D01*
X143695099Y-108214941D01*
X143900392Y-108333467D01*
X143900396Y-108333468D01*
X143900405Y-108333474D01*
X144119430Y-108424197D01*
X144348422Y-108485556D01*
X144348428Y-108485556D01*
X144348429Y-108485557D01*
X144375400Y-108489107D01*
X144583465Y-108516500D01*
X144583472Y-108516500D01*
X144820528Y-108516500D01*
X144820535Y-108516500D01*
X145055578Y-108485556D01*
X145284570Y-108424197D01*
X145503595Y-108333474D01*
X145708904Y-108214939D01*
X145896985Y-108070619D01*
X146064619Y-107902985D01*
X146208939Y-107714904D01*
X146327474Y-107509595D01*
X146418197Y-107290570D01*
X146479556Y-107061578D01*
X146510500Y-106826535D01*
X146510500Y-106589465D01*
X146483107Y-106381400D01*
X146479557Y-106354429D01*
X146479556Y-106354428D01*
X146479556Y-106354422D01*
X146418197Y-106125430D01*
X146327474Y-105906405D01*
X146327468Y-105906396D01*
X146327467Y-105906392D01*
X146208941Y-105701099D01*
X146208937Y-105701093D01*
X146064623Y-105513020D01*
X146064621Y-105513018D01*
X146064619Y-105513015D01*
X146064613Y-105513009D01*
X146064604Y-105512999D01*
X145897000Y-105345395D01*
X145896979Y-105345376D01*
X145708906Y-105201062D01*
X145708900Y-105201058D01*
X145503607Y-105082532D01*
X145503599Y-105082528D01*
X145503595Y-105082526D01*
X145284570Y-104991803D01*
X145284567Y-104991802D01*
X145284565Y-104991801D01*
X145096483Y-104941404D01*
X145055578Y-104930444D01*
X145055576Y-104930443D01*
X145055570Y-104930442D01*
X144820537Y-104899500D01*
X144820535Y-104899500D01*
X144583465Y-104899500D01*
X144583462Y-104899500D01*
X144348429Y-104930442D01*
X144119434Y-104991801D01*
X144119424Y-104991805D01*
X144029114Y-105029212D01*
X143958524Y-105036801D01*
X143895037Y-105005021D01*
X143891802Y-105001898D01*
X143249405Y-104359501D01*
X143215379Y-104297189D01*
X143212500Y-104270406D01*
X143212500Y-99095001D01*
X143232502Y-99026880D01*
X143286158Y-98980387D01*
X143356432Y-98970283D01*
X143395698Y-98982732D01*
X143489710Y-99030634D01*
X143685592Y-99094280D01*
X143889019Y-99126500D01*
X143889022Y-99126500D01*
X144094978Y-99126500D01*
X144094981Y-99126500D01*
X144298408Y-99094280D01*
X144298411Y-99094278D01*
X144298853Y-99094209D01*
X144369264Y-99103309D01*
X144407659Y-99129563D01*
X146869595Y-101591499D01*
X146903621Y-101653811D01*
X146906500Y-101680594D01*
X146906500Y-110186497D01*
X146886498Y-110254618D01*
X146869595Y-110275592D01*
X146834324Y-110310862D01*
X146834319Y-110310869D01*
X146734899Y-110459662D01*
X146666414Y-110624996D01*
X146631500Y-110800518D01*
X146631500Y-110979481D01*
X146648838Y-111066645D01*
X146666413Y-111155000D01*
X146734898Y-111320336D01*
X146834322Y-111469135D01*
X146960865Y-111595678D01*
X147109664Y-111695102D01*
X147275000Y-111763587D01*
X147450521Y-111798500D01*
X147450522Y-111798500D01*
X147629478Y-111798500D01*
X147629479Y-111798500D01*
X147805000Y-111763587D01*
X147970336Y-111695102D01*
X148119135Y-111595678D01*
X148245678Y-111469135D01*
X148345102Y-111320336D01*
X148413587Y-111155000D01*
X148448500Y-110979479D01*
X148448500Y-110800521D01*
X148413587Y-110625000D01*
X148345102Y-110459664D01*
X148245678Y-110310865D01*
X148210405Y-110275592D01*
X148176379Y-110213280D01*
X148173500Y-110186497D01*
X148173500Y-108041295D01*
X148193502Y-107973174D01*
X148247158Y-107926681D01*
X148317432Y-107916577D01*
X148382012Y-107946071D01*
X148388595Y-107952200D01*
X148506999Y-108070604D01*
X148507009Y-108070613D01*
X148507015Y-108070619D01*
X148507018Y-108070621D01*
X148507020Y-108070623D01*
X148695093Y-108214937D01*
X148695099Y-108214941D01*
X148900392Y-108333467D01*
X148900396Y-108333468D01*
X148900405Y-108333474D01*
X149119430Y-108424197D01*
X149348422Y-108485556D01*
X149348428Y-108485556D01*
X149348429Y-108485557D01*
X149375400Y-108489107D01*
X149583465Y-108516500D01*
X149583472Y-108516500D01*
X149820528Y-108516500D01*
X149820535Y-108516500D01*
X150055578Y-108485556D01*
X150284570Y-108424197D01*
X150503595Y-108333474D01*
X150708904Y-108214939D01*
X150896985Y-108070619D01*
X151064619Y-107902985D01*
X151208939Y-107714904D01*
X151327474Y-107509595D01*
X151418197Y-107290570D01*
X151479556Y-107061578D01*
X151510500Y-106826535D01*
X151510500Y-106589465D01*
X151483107Y-106381400D01*
X151479557Y-106354429D01*
X151479556Y-106354428D01*
X151479556Y-106354422D01*
X151418197Y-106125430D01*
X151327474Y-105906405D01*
X151327468Y-105906396D01*
X151327467Y-105906392D01*
X151208941Y-105701099D01*
X151208937Y-105701093D01*
X151064623Y-105513020D01*
X151064621Y-105513018D01*
X151064619Y-105513015D01*
X151064613Y-105513009D01*
X151064604Y-105512999D01*
X150897000Y-105345395D01*
X150896979Y-105345376D01*
X150708906Y-105201062D01*
X150708900Y-105201058D01*
X150503607Y-105082532D01*
X150503593Y-105082525D01*
X150413280Y-105045115D01*
X150358000Y-105000566D01*
X150335580Y-104933202D01*
X150335500Y-104928707D01*
X150335500Y-101203607D01*
X150335499Y-101203603D01*
X150311155Y-101081215D01*
X150263400Y-100965925D01*
X150194071Y-100862167D01*
X150105833Y-100773929D01*
X148633933Y-99302029D01*
X148599907Y-99239717D01*
X148604972Y-99168902D01*
X148647519Y-99112066D01*
X148714039Y-99087255D01*
X148761969Y-99093102D01*
X148765592Y-99094280D01*
X148969019Y-99126500D01*
X148969022Y-99126500D01*
X149174978Y-99126500D01*
X149174981Y-99126500D01*
X149378408Y-99094280D01*
X149574290Y-99030634D01*
X149757803Y-98937129D01*
X149924430Y-98816068D01*
X150070068Y-98670430D01*
X150191129Y-98503803D01*
X150284634Y-98320290D01*
X150299723Y-98273849D01*
X150339796Y-98215244D01*
X150405192Y-98187606D01*
X150475149Y-98199712D01*
X150508650Y-98223688D01*
X152215597Y-99930573D01*
X153965680Y-101680594D01*
X154031594Y-101746505D01*
X154065620Y-101808817D01*
X154068500Y-101835602D01*
X154068500Y-104928707D01*
X154048498Y-104996828D01*
X153994842Y-105043321D01*
X153990720Y-105045115D01*
X153900406Y-105082525D01*
X153900392Y-105082532D01*
X153695099Y-105201058D01*
X153695093Y-105201062D01*
X153507020Y-105345376D01*
X153506999Y-105345395D01*
X153339395Y-105512999D01*
X153339376Y-105513020D01*
X153195062Y-105701093D01*
X153195058Y-105701099D01*
X153076532Y-105906392D01*
X153076527Y-105906403D01*
X153076526Y-105906405D01*
X153013733Y-106058000D01*
X152985803Y-106125430D01*
X152985801Y-106125434D01*
X152924442Y-106354429D01*
X152893500Y-106589462D01*
X152893500Y-106826537D01*
X152924442Y-107061570D01*
X152985801Y-107290565D01*
X152985802Y-107290567D01*
X152985803Y-107290570D01*
X153076526Y-107509595D01*
X153076527Y-107509596D01*
X153076532Y-107509607D01*
X153195058Y-107714900D01*
X153195062Y-107714906D01*
X153339376Y-107902979D01*
X153339395Y-107903000D01*
X153506999Y-108070604D01*
X153507009Y-108070613D01*
X153507015Y-108070619D01*
X153507018Y-108070621D01*
X153507020Y-108070623D01*
X153695093Y-108214937D01*
X153695099Y-108214941D01*
X153900392Y-108333467D01*
X153900396Y-108333468D01*
X153900405Y-108333474D01*
X154119430Y-108424197D01*
X154348422Y-108485556D01*
X154348428Y-108485556D01*
X154348429Y-108485557D01*
X154375400Y-108489107D01*
X154583465Y-108516500D01*
X154583472Y-108516500D01*
X154820528Y-108516500D01*
X154820535Y-108516500D01*
X155055578Y-108485556D01*
X155284570Y-108424197D01*
X155503595Y-108333474D01*
X155708904Y-108214939D01*
X155896985Y-108070619D01*
X155974697Y-107992907D01*
X161673500Y-107992907D01*
X161673500Y-108243092D01*
X161706153Y-108491122D01*
X161711209Y-108509990D01*
X161770906Y-108732784D01*
X161811617Y-108831068D01*
X161866646Y-108963920D01*
X161866652Y-108963931D01*
X161991735Y-109180582D01*
X162144030Y-109379056D01*
X162144049Y-109379077D01*
X162320922Y-109555950D01*
X162320932Y-109555959D01*
X162320938Y-109555965D01*
X162320941Y-109555967D01*
X162320943Y-109555969D01*
X162519417Y-109708264D01*
X162736068Y-109833347D01*
X162736079Y-109833353D01*
X162736081Y-109833354D01*
X162967216Y-109929094D01*
X163208871Y-109993845D01*
X163208875Y-109993845D01*
X163208877Y-109993846D01*
X163272802Y-110002261D01*
X163456910Y-110026500D01*
X163456917Y-110026500D01*
X163578567Y-110026500D01*
X163646688Y-110046502D01*
X163693181Y-110100158D01*
X163703489Y-110168946D01*
X163674000Y-110392940D01*
X163674000Y-110643059D01*
X163706644Y-110891023D01*
X163771379Y-111132617D01*
X163771381Y-111132621D01*
X163867096Y-111363699D01*
X163867101Y-111363710D01*
X163992149Y-111580299D01*
X164065238Y-111675551D01*
X164717160Y-111023629D01*
X164805249Y-111155463D01*
X164944537Y-111294751D01*
X165076369Y-111382838D01*
X164424447Y-112034760D01*
X164519695Y-112107847D01*
X164736289Y-112232898D01*
X164736300Y-112232903D01*
X164967378Y-112328618D01*
X164967382Y-112328620D01*
X165208976Y-112393355D01*
X165456940Y-112425999D01*
X165456950Y-112426000D01*
X165707050Y-112426000D01*
X165707059Y-112425999D01*
X165955023Y-112393355D01*
X166196617Y-112328620D01*
X166196621Y-112328618D01*
X166427699Y-112232903D01*
X166427710Y-112232898D01*
X166644299Y-112107850D01*
X166644306Y-112107845D01*
X166739551Y-112034761D01*
X166739551Y-112034760D01*
X166087630Y-111382839D01*
X166219463Y-111294751D01*
X166358751Y-111155463D01*
X166446839Y-111023630D01*
X167098760Y-111675551D01*
X167098761Y-111675551D01*
X167171845Y-111580306D01*
X167171850Y-111580299D01*
X167296898Y-111363710D01*
X167296903Y-111363699D01*
X167392618Y-111132621D01*
X167392620Y-111132617D01*
X167457355Y-110891023D01*
X167489999Y-110643059D01*
X167490000Y-110643050D01*
X167490000Y-110392950D01*
X167489999Y-110392940D01*
X167457355Y-110144976D01*
X167392620Y-109903382D01*
X167392618Y-109903378D01*
X167296903Y-109672300D01*
X167296898Y-109672289D01*
X167171847Y-109455695D01*
X167098760Y-109360448D01*
X167098760Y-109360447D01*
X166446838Y-110012368D01*
X166358751Y-109880537D01*
X166219463Y-109741249D01*
X166087629Y-109653160D01*
X166739551Y-109001238D01*
X166644299Y-108928149D01*
X166427710Y-108803101D01*
X166427699Y-108803096D01*
X166196621Y-108707381D01*
X166196617Y-108707379D01*
X165955023Y-108642644D01*
X165707059Y-108610000D01*
X165585871Y-108610000D01*
X165517750Y-108589998D01*
X165471257Y-108536342D01*
X165460949Y-108467554D01*
X165475823Y-108354569D01*
X165490500Y-108243090D01*
X165490500Y-107992910D01*
X165457845Y-107744871D01*
X165393094Y-107503216D01*
X165297354Y-107272081D01*
X165297353Y-107272079D01*
X165297347Y-107272068D01*
X165172264Y-107055417D01*
X165019969Y-106856943D01*
X165019967Y-106856941D01*
X165019965Y-106856938D01*
X165019959Y-106856932D01*
X165019950Y-106856922D01*
X164843077Y-106680049D01*
X164843056Y-106680030D01*
X164644582Y-106527735D01*
X164427931Y-106402652D01*
X164427920Y-106402646D01*
X164297900Y-106348790D01*
X164196784Y-106306906D01*
X163955129Y-106242155D01*
X163955122Y-106242153D01*
X163707092Y-106209500D01*
X163707090Y-106209500D01*
X163456910Y-106209500D01*
X163456907Y-106209500D01*
X163208877Y-106242153D01*
X162967216Y-106306906D01*
X162736079Y-106402646D01*
X162736068Y-106402652D01*
X162519417Y-106527735D01*
X162320943Y-106680030D01*
X162320922Y-106680049D01*
X162144049Y-106856922D01*
X162144030Y-106856943D01*
X161991735Y-107055417D01*
X161866652Y-107272068D01*
X161866646Y-107272079D01*
X161770906Y-107503216D01*
X161706153Y-107744877D01*
X161673500Y-107992907D01*
X155974697Y-107992907D01*
X156064619Y-107902985D01*
X156208939Y-107714904D01*
X156327474Y-107509595D01*
X156418197Y-107290570D01*
X156479556Y-107061578D01*
X156510500Y-106826535D01*
X156510500Y-106589465D01*
X156483107Y-106381400D01*
X156479557Y-106354429D01*
X156479556Y-106354428D01*
X156479556Y-106354422D01*
X156418197Y-106125430D01*
X156327474Y-105906405D01*
X156327468Y-105906396D01*
X156327467Y-105906392D01*
X156208941Y-105701099D01*
X156208937Y-105701093D01*
X156064623Y-105513020D01*
X156064621Y-105513018D01*
X156064619Y-105513015D01*
X156064613Y-105513009D01*
X156064604Y-105512999D01*
X155897000Y-105345395D01*
X155896979Y-105345376D01*
X155708906Y-105201062D01*
X155708900Y-105201058D01*
X155503607Y-105082532D01*
X155503593Y-105082525D01*
X155413280Y-105045115D01*
X155358000Y-105000566D01*
X155335580Y-104933202D01*
X155335500Y-104928707D01*
X155335500Y-101583387D01*
X155335501Y-101583382D01*
X155335500Y-101522928D01*
X155335500Y-101458606D01*
X155311155Y-101336215D01*
X155311151Y-101336206D01*
X155311151Y-101336204D01*
X155311150Y-101336202D01*
X155311090Y-101336013D01*
X155310556Y-101334768D01*
X155281284Y-101264101D01*
X155265096Y-101225021D01*
X155263779Y-101221492D01*
X155263396Y-101220919D01*
X155263395Y-101220915D01*
X155261507Y-101218089D01*
X155213767Y-101146643D01*
X155213767Y-101146644D01*
X155194071Y-101117167D01*
X155194068Y-101117164D01*
X155194064Y-101117158D01*
X155130102Y-101053198D01*
X155130102Y-101053197D01*
X155130100Y-101053196D01*
X155105833Y-101028929D01*
X155105832Y-101028928D01*
X155102681Y-101025777D01*
X155102664Y-101025761D01*
X147214012Y-93137391D01*
X147179986Y-93075079D01*
X147185050Y-93004264D01*
X147214009Y-92959200D01*
X147340206Y-92833004D01*
X147465894Y-92660009D01*
X147465902Y-92659992D01*
X147466854Y-92658441D01*
X147467377Y-92657967D01*
X147468804Y-92656004D01*
X147469216Y-92656303D01*
X147519497Y-92610804D01*
X147589537Y-92599189D01*
X147654738Y-92627285D01*
X147679484Y-92655843D01*
X147679624Y-92655742D01*
X147680801Y-92657362D01*
X147681729Y-92658433D01*
X147682535Y-92659749D01*
X147808177Y-92832679D01*
X147959320Y-92983822D01*
X148132249Y-93109463D01*
X148322707Y-93206506D01*
X148322713Y-93206509D01*
X148525998Y-93272560D01*
X148590000Y-93282696D01*
X148590000Y-92378702D01*
X148651007Y-92413925D01*
X148778174Y-92448000D01*
X148909826Y-92448000D01*
X149036993Y-92413925D01*
X149098000Y-92378702D01*
X149098000Y-93282696D01*
X149162001Y-93272560D01*
X149365286Y-93206509D01*
X149365292Y-93206506D01*
X149555746Y-93109465D01*
X149703923Y-93001808D01*
X149770791Y-92977950D01*
X149839943Y-92994030D01*
X149867075Y-93014643D01*
X154671039Y-97818000D01*
X155123561Y-98270465D01*
X155163167Y-98310071D01*
X155163182Y-98310081D01*
X155163198Y-98310097D01*
X155216243Y-98345535D01*
X155266925Y-98379400D01*
X155266944Y-98379408D01*
X155266961Y-98379419D01*
X155282142Y-98385706D01*
X155324144Y-98403101D01*
X155324150Y-98403104D01*
X155350318Y-98413942D01*
X155380645Y-98426504D01*
X155382027Y-98427101D01*
X155382208Y-98427152D01*
X155382215Y-98427155D01*
X155382221Y-98427156D01*
X155382242Y-98427162D01*
X155382254Y-98427167D01*
X155382276Y-98427171D01*
X155382717Y-98427296D01*
X155384497Y-98427613D01*
X155445584Y-98439759D01*
X155491796Y-98448951D01*
X155524830Y-98466232D01*
X155554700Y-98481856D01*
X155569420Y-98500190D01*
X155569961Y-98499798D01*
X155599355Y-98540255D01*
X155693932Y-98670430D01*
X155693934Y-98670432D01*
X155693936Y-98670435D01*
X155839564Y-98816063D01*
X155839567Y-98816065D01*
X155839570Y-98816068D01*
X156006197Y-98937129D01*
X156189710Y-99030634D01*
X156385592Y-99094280D01*
X156589019Y-99126500D01*
X156589022Y-99126500D01*
X156794978Y-99126500D01*
X156794981Y-99126500D01*
X156998408Y-99094280D01*
X157194290Y-99030634D01*
X157377803Y-98937129D01*
X157544430Y-98816068D01*
X157690068Y-98670430D01*
X157811129Y-98503803D01*
X157904634Y-98320290D01*
X157968280Y-98124408D01*
X158000500Y-97920981D01*
X158000500Y-97715019D01*
X157968280Y-97511592D01*
X157904634Y-97315710D01*
X157811129Y-97132197D01*
X157690068Y-96965570D01*
X157690065Y-96965567D01*
X157690063Y-96965564D01*
X157544435Y-96819936D01*
X157544432Y-96819934D01*
X157544430Y-96819932D01*
X157377803Y-96698871D01*
X157194290Y-96605366D01*
X157194287Y-96605365D01*
X157194285Y-96605364D01*
X156998412Y-96541721D01*
X156998410Y-96541720D01*
X156998408Y-96541720D01*
X156794981Y-96509500D01*
X156589019Y-96509500D01*
X156385592Y-96541720D01*
X156385590Y-96541720D01*
X156385587Y-96541721D01*
X156189714Y-96605364D01*
X156189708Y-96605367D01*
X156006193Y-96698873D01*
X155839569Y-96819932D01*
X155741269Y-96918232D01*
X155678957Y-96952257D01*
X155608141Y-96947191D01*
X155563084Y-96918237D01*
X153720854Y-95076239D01*
X151992268Y-93347871D01*
X151958240Y-93285562D01*
X151963301Y-93214746D01*
X152005844Y-93157908D01*
X152024152Y-93146506D01*
X152096009Y-93109894D01*
X152269004Y-92984206D01*
X152420206Y-92833004D01*
X152545894Y-92660009D01*
X152545899Y-92659997D01*
X152546561Y-92658920D01*
X152546924Y-92658591D01*
X152548804Y-92656004D01*
X152549347Y-92656398D01*
X152599204Y-92611283D01*
X152669244Y-92599670D01*
X152734445Y-92627766D01*
X152759021Y-92656130D01*
X152759196Y-92656004D01*
X152760668Y-92658030D01*
X152761439Y-92658920D01*
X152762105Y-92660007D01*
X152762106Y-92660009D01*
X152887794Y-92833004D01*
X152887796Y-92833006D01*
X152887798Y-92833009D01*
X153038990Y-92984201D01*
X153038993Y-92984203D01*
X153038996Y-92984206D01*
X153211991Y-93109894D01*
X153402517Y-93206972D01*
X153605878Y-93273047D01*
X153605879Y-93273047D01*
X153605884Y-93273049D01*
X153817084Y-93306500D01*
X153817087Y-93306500D01*
X154030913Y-93306500D01*
X154030916Y-93306500D01*
X154242116Y-93273049D01*
X154445483Y-93206972D01*
X154636009Y-93109894D01*
X154809004Y-92984206D01*
X154960206Y-92833004D01*
X155085894Y-92660009D01*
X155085899Y-92659997D01*
X155086561Y-92658920D01*
X155086924Y-92658591D01*
X155088804Y-92656004D01*
X155089347Y-92656398D01*
X155139204Y-92611283D01*
X155209244Y-92599670D01*
X155274445Y-92627766D01*
X155299021Y-92656130D01*
X155299196Y-92656004D01*
X155300668Y-92658030D01*
X155301439Y-92658920D01*
X155302105Y-92660007D01*
X155302106Y-92660009D01*
X155427794Y-92833004D01*
X155427796Y-92833006D01*
X155427798Y-92833009D01*
X155578990Y-92984201D01*
X155578993Y-92984203D01*
X155578996Y-92984206D01*
X155751991Y-93109894D01*
X155942517Y-93206972D01*
X156145878Y-93273047D01*
X156145879Y-93273047D01*
X156145884Y-93273049D01*
X156357084Y-93306500D01*
X156357087Y-93306500D01*
X156570913Y-93306500D01*
X156570916Y-93306500D01*
X156782116Y-93273049D01*
X156985483Y-93206972D01*
X157176009Y-93109894D01*
X157349004Y-92984206D01*
X157500206Y-92833004D01*
X157625894Y-92660009D01*
X157625899Y-92659997D01*
X157626561Y-92658920D01*
X157626924Y-92658591D01*
X157628804Y-92656004D01*
X157629347Y-92656398D01*
X157679204Y-92611283D01*
X157749244Y-92599670D01*
X157814445Y-92627766D01*
X157839021Y-92656130D01*
X157839196Y-92656004D01*
X157840668Y-92658030D01*
X157841439Y-92658920D01*
X157842105Y-92660007D01*
X157842106Y-92660009D01*
X157967794Y-92833004D01*
X157967796Y-92833006D01*
X157967798Y-92833009D01*
X158118990Y-92984201D01*
X158118993Y-92984203D01*
X158118996Y-92984206D01*
X158243648Y-93074771D01*
X158291400Y-93109465D01*
X158291991Y-93109894D01*
X158301702Y-93114842D01*
X158353316Y-93163586D01*
X158370500Y-93227108D01*
X158370500Y-103666396D01*
X158377502Y-103701597D01*
X158394845Y-103788785D01*
X158442600Y-103904075D01*
X158511929Y-104007833D01*
X160136167Y-105632071D01*
X160239925Y-105701400D01*
X160355215Y-105749155D01*
X160477606Y-105773500D01*
X160477607Y-105773500D01*
X165027093Y-105773500D01*
X165027094Y-105773500D01*
X165149485Y-105749155D01*
X165264775Y-105701400D01*
X165368533Y-105632071D01*
X166813060Y-104187543D01*
X166875370Y-104153520D01*
X166946185Y-104158584D01*
X167003021Y-104201131D01*
X167027075Y-104260194D01*
X167043996Y-104388725D01*
X167043999Y-104388738D01*
X167078071Y-104515894D01*
X167129371Y-104639744D01*
X167129377Y-104639754D01*
X167195194Y-104753753D01*
X167195199Y-104753760D01*
X167276794Y-104860097D01*
X167276813Y-104860118D01*
X167369881Y-104953186D01*
X167369902Y-104953205D01*
X167476239Y-105034800D01*
X167476246Y-105034805D01*
X167494104Y-105045115D01*
X167590257Y-105100629D01*
X167714101Y-105151927D01*
X167841268Y-105186002D01*
X167841271Y-105186002D01*
X167841274Y-105186003D01*
X167875523Y-105190511D01*
X167974174Y-105203500D01*
X167974181Y-105203500D01*
X168605819Y-105203500D01*
X168605826Y-105203500D01*
X168725941Y-105187685D01*
X168738725Y-105186003D01*
X168738725Y-105186002D01*
X168738732Y-105186002D01*
X168865899Y-105151927D01*
X168989743Y-105100629D01*
X169103757Y-105034803D01*
X169210106Y-104953198D01*
X169303198Y-104860106D01*
X169384803Y-104753757D01*
X169450629Y-104639743D01*
X169501927Y-104515899D01*
X169531265Y-104406408D01*
X169563873Y-104349930D01*
X170540472Y-103373333D01*
X170609801Y-103269575D01*
X170624091Y-103235074D01*
X170668639Y-103179793D01*
X170736002Y-103157372D01*
X170804793Y-103174930D01*
X170853172Y-103226892D01*
X170866500Y-103283292D01*
X170866500Y-114324194D01*
X170866270Y-114331802D01*
X170848626Y-114623481D01*
X170846792Y-114638585D01*
X170794807Y-114922260D01*
X170791166Y-114937034D01*
X170705364Y-115212381D01*
X170699968Y-115226607D01*
X170581608Y-115489592D01*
X170574538Y-115503064D01*
X170425336Y-115749876D01*
X170416692Y-115762399D01*
X170238826Y-115989427D01*
X170228736Y-116000815D01*
X170024815Y-116204736D01*
X170013427Y-116214826D01*
X169786399Y-116392692D01*
X169773876Y-116401336D01*
X169527064Y-116550538D01*
X169513592Y-116557608D01*
X169250607Y-116675968D01*
X169236381Y-116681364D01*
X168961034Y-116767166D01*
X168946260Y-116770807D01*
X168662585Y-116822792D01*
X168647481Y-116824626D01*
X168355802Y-116842270D01*
X168348194Y-116842500D01*
X108435806Y-116842500D01*
X108428198Y-116842270D01*
X108136518Y-116824626D01*
X108121414Y-116822792D01*
X107837739Y-116770807D01*
X107822969Y-116767167D01*
X107547618Y-116681364D01*
X107533392Y-116675968D01*
X107270407Y-116557608D01*
X107256935Y-116550538D01*
X107182324Y-116505434D01*
X107010119Y-116401333D01*
X106997605Y-116392695D01*
X106770572Y-116214826D01*
X106759184Y-116204736D01*
X106555263Y-116000815D01*
X106545173Y-115989427D01*
X106408455Y-115814920D01*
X106367301Y-115762391D01*
X106358668Y-115749884D01*
X106209459Y-115503060D01*
X106202391Y-115489592D01*
X106084031Y-115226607D01*
X106078638Y-115212390D01*
X105992829Y-114937018D01*
X105989194Y-114922272D01*
X105937205Y-114638573D01*
X105935374Y-114623493D01*
X105917730Y-114331802D01*
X105917500Y-114324194D01*
X105917500Y-105359350D01*
X107893500Y-105359350D01*
X107893500Y-108056649D01*
X107900009Y-108117196D01*
X107900011Y-108117204D01*
X107951110Y-108254202D01*
X107951112Y-108254207D01*
X108038738Y-108371261D01*
X108155792Y-108458887D01*
X108155794Y-108458888D01*
X108155796Y-108458889D01*
X108179028Y-108467554D01*
X108292795Y-108509988D01*
X108292803Y-108509990D01*
X108353350Y-108516499D01*
X108353355Y-108516499D01*
X108353362Y-108516500D01*
X108353368Y-108516500D01*
X111050632Y-108516500D01*
X111050638Y-108516500D01*
X111050645Y-108516499D01*
X111050649Y-108516499D01*
X111111196Y-108509990D01*
X111111199Y-108509989D01*
X111111201Y-108509989D01*
X111248204Y-108458889D01*
X111294549Y-108424196D01*
X111365261Y-108371261D01*
X111452887Y-108254207D01*
X111452887Y-108254206D01*
X111452889Y-108254204D01*
X111503989Y-108117201D01*
X111510500Y-108056638D01*
X111510500Y-105359362D01*
X111510499Y-105359350D01*
X111503990Y-105298803D01*
X111503988Y-105298795D01*
X111468444Y-105203500D01*
X111452889Y-105161796D01*
X111452888Y-105161794D01*
X111452887Y-105161792D01*
X111365261Y-105044738D01*
X111248207Y-104957112D01*
X111248202Y-104957110D01*
X111111204Y-104906011D01*
X111111196Y-104906009D01*
X111050649Y-104899500D01*
X111050638Y-104899500D01*
X108353362Y-104899500D01*
X108353350Y-104899500D01*
X108292803Y-104906009D01*
X108292795Y-104906011D01*
X108155797Y-104957110D01*
X108155792Y-104957112D01*
X108038738Y-105044738D01*
X107951112Y-105161792D01*
X107951110Y-105161797D01*
X107900011Y-105298795D01*
X107900009Y-105298803D01*
X107893500Y-105359350D01*
X105917500Y-105359350D01*
X105917500Y-96296928D01*
X105937502Y-96228807D01*
X105991158Y-96182314D01*
X106061432Y-96172210D01*
X106126012Y-96201704D01*
X106164396Y-96261430D01*
X106168893Y-96284578D01*
X106202597Y-96626790D01*
X106202599Y-96626806D01*
X106279426Y-97013037D01*
X106393740Y-97389883D01*
X106393741Y-97389887D01*
X106544441Y-97753708D01*
X106730074Y-98101003D01*
X106948862Y-98428443D01*
X107162287Y-98688502D01*
X108767925Y-97082864D01*
X108853457Y-97194331D01*
X109015669Y-97356543D01*
X109127134Y-97442073D01*
X107521496Y-99047711D01*
X107781549Y-99261131D01*
X107781564Y-99261142D01*
X108108996Y-99479925D01*
X108456291Y-99665558D01*
X108820112Y-99816258D01*
X108820116Y-99816259D01*
X109196962Y-99930573D01*
X109583193Y-100007400D01*
X109583209Y-100007402D01*
X109975093Y-100045999D01*
X109975109Y-100046000D01*
X110368891Y-100046000D01*
X110368906Y-100045999D01*
X110760790Y-100007402D01*
X110760806Y-100007400D01*
X111147037Y-99930573D01*
X111523883Y-99816259D01*
X111523887Y-99816258D01*
X111887708Y-99665558D01*
X112235003Y-99479925D01*
X112562433Y-99261144D01*
X112562439Y-99261139D01*
X112822502Y-99047711D01*
X111216864Y-97442073D01*
X111328331Y-97356543D01*
X111490543Y-97194331D01*
X111576073Y-97082864D01*
X113181711Y-98688502D01*
X113395139Y-98428439D01*
X113395144Y-98428433D01*
X113613925Y-98101003D01*
X113799558Y-97753708D01*
X113950258Y-97389887D01*
X113950259Y-97389883D01*
X114064573Y-97013037D01*
X114141400Y-96626806D01*
X114141402Y-96626790D01*
X114179999Y-96234906D01*
X114180000Y-96234890D01*
X114180000Y-95841109D01*
X114179999Y-95841093D01*
X114141402Y-95449209D01*
X114141400Y-95449193D01*
X114064573Y-95062962D01*
X113950259Y-94686116D01*
X113950258Y-94686112D01*
X113799558Y-94322291D01*
X113613925Y-93974996D01*
X113395142Y-93647564D01*
X113395131Y-93647549D01*
X113181711Y-93387496D01*
X111576073Y-94993134D01*
X111490543Y-94881669D01*
X111328331Y-94719457D01*
X111216864Y-94633925D01*
X112822502Y-93028287D01*
X112822502Y-93028286D01*
X112562443Y-92814862D01*
X112235003Y-92596074D01*
X111887708Y-92410441D01*
X111523887Y-92259741D01*
X111523883Y-92259740D01*
X111147037Y-92145426D01*
X110760806Y-92068599D01*
X110760790Y-92068597D01*
X110368906Y-92030000D01*
X109975093Y-92030000D01*
X109583209Y-92068597D01*
X109583193Y-92068599D01*
X109196962Y-92145426D01*
X108820116Y-92259740D01*
X108820112Y-92259741D01*
X108456291Y-92410441D01*
X108108996Y-92596074D01*
X107781563Y-92814858D01*
X107521496Y-93028287D01*
X109127135Y-94633926D01*
X109015669Y-94719457D01*
X108853457Y-94881669D01*
X108767926Y-94993135D01*
X107162287Y-93387496D01*
X106948858Y-93647563D01*
X106730074Y-93974996D01*
X106544441Y-94322291D01*
X106393741Y-94686112D01*
X106393740Y-94686116D01*
X106279426Y-95062962D01*
X106202599Y-95449193D01*
X106202597Y-95449209D01*
X106168893Y-95791421D01*
X106142311Y-95857253D01*
X106084356Y-95898263D01*
X106013430Y-95901430D01*
X105952051Y-95865749D01*
X105919707Y-95802549D01*
X105917500Y-95779071D01*
X105917500Y-89411805D01*
X105917730Y-89404197D01*
X105921482Y-89342174D01*
X105935374Y-89112504D01*
X105937205Y-89097428D01*
X105989195Y-88813723D01*
X105992828Y-88798984D01*
X106078640Y-88523603D01*
X106084027Y-88509402D01*
X106202395Y-88246397D01*
X106209455Y-88232945D01*
X106358673Y-87986107D01*
X106367295Y-87973616D01*
X106545181Y-87746562D01*
X106555255Y-87735192D01*
X106759192Y-87531255D01*
X106770562Y-87521181D01*
X106997616Y-87343295D01*
X107010107Y-87334673D01*
X107256945Y-87185455D01*
X107270397Y-87178395D01*
X107533402Y-87060027D01*
X107547603Y-87054640D01*
X107822984Y-86968828D01*
X107837723Y-86965195D01*
X108121428Y-86913205D01*
X108136504Y-86911374D01*
X108428198Y-86893730D01*
X108435806Y-86893500D01*
X108440285Y-86893500D01*
X138425514Y-86893500D01*
X138493635Y-86913502D01*
G37*
G04 #@! TD.AperFunction*
G04 #@! TA.AperFunction,Conductor*
G36*
X168355802Y-86893730D02*
G01*
X168647493Y-86911374D01*
X168662573Y-86913205D01*
X168946272Y-86965194D01*
X168961018Y-86968829D01*
X169236390Y-87054638D01*
X169250602Y-87060029D01*
X169513595Y-87178392D01*
X169527060Y-87185459D01*
X169773884Y-87334668D01*
X169786391Y-87343301D01*
X169976243Y-87492041D01*
X170013427Y-87521173D01*
X170024815Y-87531263D01*
X170228736Y-87735184D01*
X170238826Y-87746572D01*
X170380470Y-87927367D01*
X170416692Y-87973600D01*
X170425333Y-87986119D01*
X170446343Y-88020873D01*
X170574538Y-88232935D01*
X170581608Y-88246407D01*
X170699968Y-88509392D01*
X170705364Y-88523618D01*
X170777879Y-88756328D01*
X170791166Y-88798965D01*
X170794807Y-88813739D01*
X170846792Y-89097414D01*
X170848626Y-89112518D01*
X170866270Y-89404197D01*
X170866500Y-89411805D01*
X170866500Y-93034608D01*
X170846498Y-93102729D01*
X170792842Y-93149222D01*
X170722568Y-93159326D01*
X170657988Y-93129832D01*
X170624092Y-93082827D01*
X170609802Y-93048329D01*
X170609800Y-93048325D01*
X170602998Y-93038145D01*
X170540471Y-92944567D01*
X170452233Y-92856329D01*
X169185404Y-91589500D01*
X169151378Y-91527188D01*
X169148499Y-91500405D01*
X169148499Y-90539455D01*
X169137887Y-90435574D01*
X169131951Y-90417660D01*
X169082115Y-90267262D01*
X168989030Y-90116348D01*
X168989029Y-90116347D01*
X168989024Y-90116341D01*
X168925543Y-90052860D01*
X168891517Y-89990548D01*
X168896582Y-89919733D01*
X168912702Y-89889704D01*
X168924166Y-89873925D01*
X168959129Y-89825803D01*
X169052634Y-89642290D01*
X169116280Y-89446408D01*
X169148500Y-89242981D01*
X169148500Y-89037019D01*
X169116280Y-88833592D01*
X169052634Y-88637710D01*
X168959129Y-88454197D01*
X168838068Y-88287570D01*
X168838065Y-88287567D01*
X168838063Y-88287564D01*
X168692435Y-88141936D01*
X168692432Y-88141934D01*
X168692430Y-88141932D01*
X168525803Y-88020871D01*
X168342290Y-87927366D01*
X168342287Y-87927365D01*
X168342285Y-87927364D01*
X168146412Y-87863721D01*
X168146410Y-87863720D01*
X168146408Y-87863720D01*
X167942981Y-87831500D01*
X167737019Y-87831500D01*
X167533592Y-87863720D01*
X167533590Y-87863720D01*
X167533587Y-87863721D01*
X167337714Y-87927364D01*
X167337708Y-87927367D01*
X167154193Y-88020873D01*
X166987567Y-88141934D01*
X166987564Y-88141936D01*
X166841936Y-88287564D01*
X166841934Y-88287567D01*
X166720873Y-88454193D01*
X166627367Y-88637708D01*
X166627364Y-88637714D01*
X166563721Y-88833587D01*
X166563720Y-88833590D01*
X166563720Y-88833592D01*
X166531500Y-89037019D01*
X166531500Y-89242981D01*
X166537680Y-89282000D01*
X166563790Y-89446853D01*
X166554690Y-89517264D01*
X166528436Y-89555658D01*
X165286167Y-90797929D01*
X165197931Y-90886164D01*
X165197926Y-90886171D01*
X165128601Y-90989923D01*
X165086490Y-91091588D01*
X165080845Y-91105215D01*
X165072987Y-91144720D01*
X165056500Y-91227603D01*
X165056500Y-94505027D01*
X165036498Y-94573148D01*
X164982842Y-94619641D01*
X164912570Y-94629745D01*
X164890000Y-94626500D01*
X164324174Y-94626500D01*
X164324171Y-94626500D01*
X164191274Y-94643996D01*
X164191261Y-94643999D01*
X164064105Y-94678071D01*
X163940255Y-94729371D01*
X163940245Y-94729377D01*
X163826246Y-94795194D01*
X163826239Y-94795199D01*
X163719902Y-94876794D01*
X163719881Y-94876813D01*
X163626813Y-94969881D01*
X163626794Y-94969902D01*
X163545199Y-95076239D01*
X163545194Y-95076246D01*
X163477498Y-95193500D01*
X163426115Y-95242493D01*
X163368379Y-95256500D01*
X162632775Y-95256500D01*
X162564654Y-95236498D01*
X162518161Y-95182842D01*
X162512942Y-95169436D01*
X162502635Y-95137714D01*
X162502634Y-95137710D01*
X162409129Y-94954197D01*
X162288068Y-94787570D01*
X162288065Y-94787567D01*
X162288063Y-94787564D01*
X162142435Y-94641936D01*
X162142432Y-94641934D01*
X162142430Y-94641932D01*
X161987658Y-94529484D01*
X161975806Y-94520873D01*
X161975805Y-94520872D01*
X161975803Y-94520871D01*
X161792290Y-94427366D01*
X161792287Y-94427365D01*
X161792285Y-94427364D01*
X161596412Y-94363721D01*
X161596410Y-94363720D01*
X161596408Y-94363720D01*
X161392981Y-94331500D01*
X161187019Y-94331500D01*
X160983592Y-94363720D01*
X160983590Y-94363720D01*
X160983587Y-94363721D01*
X160787714Y-94427364D01*
X160787708Y-94427367D01*
X160604193Y-94520873D01*
X160437567Y-94641934D01*
X160437564Y-94641936D01*
X160291936Y-94787564D01*
X160291934Y-94787567D01*
X160170873Y-94954193D01*
X160077367Y-95137708D01*
X160077364Y-95137714D01*
X160013721Y-95333587D01*
X160013720Y-95333590D01*
X160013720Y-95333592D01*
X159981500Y-95537019D01*
X159981500Y-95742981D01*
X160007712Y-95908473D01*
X160013721Y-95946412D01*
X160043479Y-96037999D01*
X160077366Y-96142290D01*
X160170871Y-96325803D01*
X160291932Y-96492430D01*
X160291934Y-96492432D01*
X160291936Y-96492435D01*
X160437564Y-96638063D01*
X160437567Y-96638065D01*
X160437570Y-96638068D01*
X160604197Y-96759129D01*
X160787710Y-96852634D01*
X160983592Y-96916280D01*
X161187019Y-96948500D01*
X161187022Y-96948500D01*
X161392978Y-96948500D01*
X161392981Y-96948500D01*
X161596408Y-96916280D01*
X161792290Y-96852634D01*
X161975803Y-96759129D01*
X162142430Y-96638068D01*
X162220094Y-96560403D01*
X162282404Y-96526380D01*
X162309188Y-96523500D01*
X163368379Y-96523500D01*
X163436500Y-96543502D01*
X163477498Y-96586500D01*
X163545194Y-96703753D01*
X163545199Y-96703760D01*
X163626794Y-96810097D01*
X163626813Y-96810118D01*
X163719881Y-96903186D01*
X163719902Y-96903205D01*
X163801170Y-96965564D01*
X163826243Y-96984803D01*
X163940257Y-97050629D01*
X164064101Y-97101927D01*
X164191268Y-97136002D01*
X164191271Y-97136002D01*
X164191274Y-97136003D01*
X164225523Y-97140511D01*
X164324174Y-97153500D01*
X164324181Y-97153500D01*
X164889990Y-97153500D01*
X164890000Y-97153500D01*
X164921512Y-97151246D01*
X164990883Y-97166335D01*
X165041086Y-97216536D01*
X165056500Y-97276924D01*
X165056500Y-98927606D01*
X165056500Y-99052394D01*
X165080845Y-99174785D01*
X165128600Y-99290075D01*
X165197929Y-99393833D01*
X165197931Y-99393835D01*
X167024545Y-101220449D01*
X167058571Y-101282761D01*
X167057157Y-101342152D01*
X167043997Y-101391266D01*
X167043997Y-101391270D01*
X167026500Y-101524171D01*
X167026500Y-102139995D01*
X167029900Y-102187539D01*
X167014808Y-102256913D01*
X166964605Y-102307115D01*
X166952440Y-102312935D01*
X166914625Y-102328598D01*
X166810867Y-102397927D01*
X166810861Y-102397932D01*
X165357718Y-103851077D01*
X165295406Y-103885102D01*
X165224591Y-103880038D01*
X165167755Y-103837491D01*
X165142944Y-103770971D01*
X165158035Y-103701597D01*
X165168663Y-103685275D01*
X165172265Y-103680581D01*
X165297354Y-103463919D01*
X165393094Y-103232784D01*
X165457845Y-102991129D01*
X165490500Y-102743090D01*
X165490500Y-102492910D01*
X165459889Y-102260396D01*
X165457846Y-102244877D01*
X165457845Y-102244875D01*
X165457845Y-102244871D01*
X165393094Y-102003216D01*
X165297354Y-101772081D01*
X165297353Y-101772079D01*
X165297347Y-101772068D01*
X165172264Y-101555417D01*
X165019969Y-101356943D01*
X165019967Y-101356941D01*
X165019965Y-101356938D01*
X165019959Y-101356932D01*
X165019950Y-101356922D01*
X164843077Y-101180049D01*
X164843056Y-101180030D01*
X164644582Y-101027735D01*
X164427931Y-100902652D01*
X164427922Y-100902647D01*
X164427919Y-100902646D01*
X164427912Y-100902643D01*
X164292998Y-100846758D01*
X164237717Y-100802210D01*
X164216839Y-100745451D01*
X164216708Y-100745478D01*
X164216541Y-100744641D01*
X164215822Y-100742685D01*
X164215500Y-100739418D01*
X164215500Y-100739406D01*
X164191155Y-100617015D01*
X164143400Y-100501725D01*
X164074071Y-100397967D01*
X163985833Y-100309729D01*
X162576651Y-98900547D01*
X162542625Y-98838235D01*
X162540824Y-98827896D01*
X162536004Y-98791278D01*
X162536002Y-98791272D01*
X162536002Y-98791268D01*
X162501927Y-98664101D01*
X162450629Y-98540257D01*
X162399454Y-98451619D01*
X162384805Y-98426246D01*
X162384800Y-98426239D01*
X162303205Y-98319902D01*
X162303186Y-98319881D01*
X162210118Y-98226813D01*
X162210097Y-98226794D01*
X162103760Y-98145199D01*
X162103753Y-98145194D01*
X161989754Y-98079377D01*
X161989744Y-98079371D01*
X161865894Y-98028071D01*
X161738738Y-97993999D01*
X161738725Y-97993996D01*
X161605828Y-97976500D01*
X161605826Y-97976500D01*
X160974174Y-97976500D01*
X160974171Y-97976500D01*
X160841274Y-97993996D01*
X160841261Y-97993999D01*
X160714105Y-98028071D01*
X160590255Y-98079371D01*
X160590245Y-98079377D01*
X160476246Y-98145194D01*
X160476239Y-98145199D01*
X160369902Y-98226794D01*
X160369881Y-98226813D01*
X160276813Y-98319881D01*
X160276794Y-98319902D01*
X160195199Y-98426239D01*
X160195194Y-98426246D01*
X160129377Y-98540245D01*
X160129371Y-98540255D01*
X160078071Y-98664105D01*
X160043999Y-98791261D01*
X160043996Y-98791274D01*
X160026500Y-98924171D01*
X160026500Y-98924174D01*
X160026500Y-99490000D01*
X160029176Y-99527418D01*
X160031727Y-99563081D01*
X160042397Y-99599419D01*
X160046219Y-99652848D01*
X160026500Y-99790002D01*
X160026500Y-100355828D01*
X160043996Y-100488725D01*
X160043999Y-100488738D01*
X160078071Y-100615894D01*
X160129371Y-100739744D01*
X160129377Y-100739754D01*
X160195194Y-100853753D01*
X160195199Y-100853760D01*
X160276794Y-100960097D01*
X160276813Y-100960118D01*
X160307748Y-100991053D01*
X160341774Y-101053365D01*
X160336709Y-101124180D01*
X160294162Y-101181016D01*
X160266873Y-101196556D01*
X160234665Y-101209897D01*
X160234664Y-101209897D01*
X160085869Y-101309319D01*
X160085862Y-101309324D01*
X159959324Y-101435862D01*
X159959319Y-101435869D01*
X159868265Y-101572141D01*
X159813788Y-101617669D01*
X159743345Y-101626517D01*
X159679301Y-101595875D01*
X159641990Y-101535474D01*
X159637500Y-101502139D01*
X159637500Y-93227108D01*
X159657502Y-93158987D01*
X159706297Y-93114842D01*
X159716009Y-93109894D01*
X159889004Y-92984206D01*
X159992371Y-92880838D01*
X160054681Y-92846815D01*
X160125497Y-92851879D01*
X160182333Y-92894426D01*
X160199521Y-92925903D01*
X160243555Y-93043965D01*
X160331095Y-93160904D01*
X160448034Y-93248444D01*
X160584906Y-93299494D01*
X160645402Y-93305999D01*
X160645415Y-93306000D01*
X161290000Y-93306000D01*
X161290000Y-92378702D01*
X161351007Y-92413925D01*
X161478174Y-92448000D01*
X161609826Y-92448000D01*
X161736993Y-92413925D01*
X161798000Y-92378702D01*
X161798000Y-93306000D01*
X162442585Y-93306000D01*
X162442597Y-93305999D01*
X162503093Y-93299494D01*
X162639964Y-93248444D01*
X162639965Y-93248444D01*
X162756904Y-93160904D01*
X162844444Y-93043965D01*
X162844444Y-93043964D01*
X162895494Y-92907093D01*
X162901999Y-92846597D01*
X162902000Y-92846585D01*
X162902000Y-92202000D01*
X161974703Y-92202000D01*
X162009925Y-92140993D01*
X162044000Y-92013826D01*
X162044000Y-91882174D01*
X162009925Y-91755007D01*
X161974703Y-91694000D01*
X162902000Y-91694000D01*
X162902000Y-91049414D01*
X162901999Y-91049402D01*
X162895494Y-90988906D01*
X162844444Y-90852035D01*
X162844444Y-90852034D01*
X162756904Y-90735095D01*
X162639966Y-90647556D01*
X162521386Y-90603328D01*
X162464551Y-90560781D01*
X162439740Y-90494260D01*
X162454832Y-90424886D01*
X162476324Y-90396176D01*
X162579823Y-90292677D01*
X162705463Y-90119750D01*
X162802506Y-89929292D01*
X162802509Y-89929286D01*
X162868559Y-89726004D01*
X162878698Y-89662000D01*
X161974703Y-89662000D01*
X162009925Y-89600993D01*
X162044000Y-89473826D01*
X162044000Y-89342174D01*
X162009925Y-89215007D01*
X161974703Y-89154000D01*
X162878697Y-89154000D01*
X162868559Y-89089995D01*
X162802509Y-88886713D01*
X162802506Y-88886707D01*
X162705463Y-88696249D01*
X162579822Y-88523320D01*
X162428679Y-88372177D01*
X162255750Y-88246536D01*
X162065292Y-88149493D01*
X162065286Y-88149490D01*
X161862004Y-88083440D01*
X161798000Y-88073302D01*
X161798000Y-88977297D01*
X161736993Y-88942075D01*
X161609826Y-88908000D01*
X161478174Y-88908000D01*
X161351007Y-88942075D01*
X161290000Y-88977297D01*
X161290000Y-88073302D01*
X161225995Y-88083440D01*
X161022713Y-88149490D01*
X161022707Y-88149493D01*
X160832249Y-88246536D01*
X160659320Y-88372177D01*
X160508177Y-88523320D01*
X160382531Y-88696256D01*
X160381431Y-88698052D01*
X160380835Y-88698591D01*
X160379624Y-88700258D01*
X160379273Y-88700003D01*
X160328783Y-88745682D01*
X160258741Y-88757288D01*
X160193544Y-88729183D01*
X160168440Y-88700211D01*
X160168376Y-88700258D01*
X160167833Y-88699511D01*
X160166569Y-88698052D01*
X160165468Y-88696256D01*
X160039822Y-88523320D01*
X159888679Y-88372177D01*
X159715750Y-88246536D01*
X159525292Y-88149493D01*
X159525286Y-88149490D01*
X159322004Y-88083440D01*
X159258000Y-88073302D01*
X159258000Y-88977297D01*
X159196993Y-88942075D01*
X159069826Y-88908000D01*
X158938174Y-88908000D01*
X158811007Y-88942075D01*
X158750000Y-88977297D01*
X158750000Y-88073302D01*
X158685995Y-88083440D01*
X158482713Y-88149490D01*
X158482707Y-88149493D01*
X158292249Y-88246536D01*
X158119320Y-88372177D01*
X157968177Y-88523320D01*
X157842532Y-88696255D01*
X157841724Y-88697574D01*
X157841286Y-88697969D01*
X157839624Y-88700258D01*
X157839143Y-88699908D01*
X157789075Y-88745203D01*
X157719033Y-88756807D01*
X157653836Y-88728702D01*
X157628901Y-88699924D01*
X157628804Y-88699996D01*
X157627975Y-88698855D01*
X157626859Y-88697567D01*
X157625899Y-88696001D01*
X157625894Y-88695991D01*
X157500206Y-88522996D01*
X157500203Y-88522993D01*
X157500201Y-88522990D01*
X157349009Y-88371798D01*
X157349006Y-88371796D01*
X157349004Y-88371794D01*
X157176601Y-88246536D01*
X157176012Y-88246108D01*
X157176011Y-88246107D01*
X157176009Y-88246106D01*
X156985483Y-88149028D01*
X156985480Y-88149027D01*
X156985478Y-88149026D01*
X156782120Y-88082952D01*
X156782123Y-88082952D01*
X156721195Y-88073302D01*
X156570916Y-88049500D01*
X156357084Y-88049500D01*
X156145884Y-88082951D01*
X156145878Y-88082952D01*
X155942521Y-88149026D01*
X155942515Y-88149029D01*
X155751987Y-88246108D01*
X155578993Y-88371796D01*
X155578990Y-88371798D01*
X155427798Y-88522990D01*
X155427796Y-88522993D01*
X155302108Y-88695987D01*
X155301434Y-88697088D01*
X155301068Y-88697418D01*
X155299196Y-88699996D01*
X155298654Y-88699602D01*
X155248787Y-88744721D01*
X155178745Y-88756328D01*
X155113547Y-88728226D01*
X155088976Y-88699870D01*
X155088804Y-88699996D01*
X155087341Y-88697982D01*
X155086566Y-88697088D01*
X155085896Y-88695996D01*
X155085894Y-88695991D01*
X154960206Y-88522996D01*
X154960203Y-88522993D01*
X154960201Y-88522990D01*
X154809009Y-88371798D01*
X154809006Y-88371796D01*
X154809004Y-88371794D01*
X154636601Y-88246536D01*
X154636012Y-88246108D01*
X154636011Y-88246107D01*
X154636009Y-88246106D01*
X154445483Y-88149028D01*
X154445480Y-88149027D01*
X154445478Y-88149026D01*
X154242120Y-88082952D01*
X154242123Y-88082952D01*
X154181195Y-88073302D01*
X154030916Y-88049500D01*
X153817084Y-88049500D01*
X153605884Y-88082951D01*
X153605878Y-88082952D01*
X153402521Y-88149026D01*
X153402515Y-88149029D01*
X153211987Y-88246108D01*
X153038993Y-88371796D01*
X153038990Y-88371798D01*
X152887798Y-88522990D01*
X152887796Y-88522993D01*
X152762108Y-88695987D01*
X152761434Y-88697088D01*
X152761068Y-88697418D01*
X152759196Y-88699996D01*
X152758654Y-88699602D01*
X152708787Y-88744721D01*
X152638745Y-88756328D01*
X152573547Y-88728226D01*
X152548976Y-88699870D01*
X152548804Y-88699996D01*
X152547341Y-88697982D01*
X152546566Y-88697088D01*
X152545896Y-88695996D01*
X152545894Y-88695991D01*
X152420206Y-88522996D01*
X152420203Y-88522993D01*
X152420201Y-88522990D01*
X152269009Y-88371798D01*
X152269006Y-88371796D01*
X152269004Y-88371794D01*
X152096601Y-88246536D01*
X152096012Y-88246108D01*
X152096011Y-88246107D01*
X152096009Y-88246106D01*
X151905483Y-88149028D01*
X151905480Y-88149027D01*
X151905478Y-88149026D01*
X151702120Y-88082952D01*
X151702123Y-88082952D01*
X151641195Y-88073302D01*
X151490916Y-88049500D01*
X151277084Y-88049500D01*
X151065884Y-88082951D01*
X151065878Y-88082952D01*
X150862521Y-88149026D01*
X150862515Y-88149029D01*
X150671988Y-88246107D01*
X150549520Y-88335085D01*
X150482652Y-88358943D01*
X150413501Y-88342862D01*
X150386378Y-88322257D01*
X149348338Y-87284534D01*
X149348336Y-87284532D01*
X149305833Y-87242029D01*
X149305796Y-87242004D01*
X149305759Y-87241967D01*
X149252933Y-87206681D01*
X149252918Y-87206672D01*
X149202066Y-87172694D01*
X149201994Y-87172656D01*
X149195617Y-87170015D01*
X149145851Y-87149411D01*
X149113253Y-87135908D01*
X149057973Y-87091361D01*
X149057972Y-87091360D01*
X149044745Y-87051617D01*
X149035552Y-87023998D01*
X149035552Y-87023996D01*
X149049632Y-86968833D01*
X149053110Y-86955206D01*
X149094583Y-86916594D01*
X149105073Y-86906827D01*
X149105086Y-86906824D01*
X149161472Y-86893500D01*
X168343715Y-86893500D01*
X168348194Y-86893500D01*
X168355802Y-86893730D01*
G37*
G04 #@! TD.AperFunction*
G04 #@! TA.AperFunction,Conductor*
G36*
X161798000Y-91517297D02*
G01*
X161736993Y-91482075D01*
X161609826Y-91448000D01*
X161478174Y-91448000D01*
X161351007Y-91482075D01*
X161290000Y-91517297D01*
X161290000Y-89838702D01*
X161351007Y-89873925D01*
X161478174Y-89908000D01*
X161609826Y-89908000D01*
X161736993Y-89873925D01*
X161798000Y-89838702D01*
X161798000Y-91517297D01*
G37*
G04 #@! TD.AperFunction*
G04 #@! TA.AperFunction,Conductor*
G36*
X137801440Y-90451689D02*
G01*
X137831497Y-90467819D01*
X137971991Y-90569894D01*
X137971996Y-90569896D01*
X137973088Y-90570566D01*
X137973418Y-90570931D01*
X137975996Y-90572804D01*
X137975602Y-90573345D01*
X138020721Y-90623213D01*
X138032328Y-90693255D01*
X138004226Y-90758453D01*
X137975870Y-90783023D01*
X137975996Y-90783196D01*
X137973982Y-90784658D01*
X137973088Y-90785434D01*
X137971987Y-90786108D01*
X137798993Y-90911796D01*
X137798990Y-90911798D01*
X137647798Y-91062990D01*
X137647796Y-91062993D01*
X137522108Y-91235987D01*
X137521434Y-91237088D01*
X137521068Y-91237418D01*
X137519196Y-91239996D01*
X137518654Y-91239602D01*
X137496577Y-91259576D01*
X137472504Y-91282849D01*
X137470388Y-91283271D01*
X137468787Y-91284721D01*
X137435733Y-91290198D01*
X137402885Y-91296764D01*
X137400874Y-91295975D01*
X137398745Y-91296328D01*
X137367975Y-91283065D01*
X137336794Y-91270830D01*
X137335036Y-91268867D01*
X137333547Y-91268226D01*
X137311868Y-91245045D01*
X137307251Y-91238655D01*
X137305894Y-91235991D01*
X137203898Y-91095606D01*
X137203728Y-91095370D01*
X137191976Y-91062157D01*
X137180065Y-91028773D01*
X137180104Y-91028602D01*
X137180047Y-91028440D01*
X137188099Y-90994224D01*
X137196146Y-90959622D01*
X137196285Y-90959437D01*
X137196311Y-90959331D01*
X137196521Y-90959127D01*
X137216735Y-90932515D01*
X137668323Y-90480683D01*
X137730623Y-90446644D01*
X137801440Y-90451689D01*
G37*
G04 #@! TD.AperFunction*
G04 #@! TA.AperFunction,Conductor*
G36*
X139967396Y-90059543D02*
G01*
X139969537Y-90059189D01*
X140000313Y-90072450D01*
X140031476Y-90084670D01*
X140033481Y-90086743D01*
X140034738Y-90087285D01*
X140041047Y-90094566D01*
X140056409Y-90110449D01*
X140180077Y-90281530D01*
X140191909Y-90314948D01*
X140203756Y-90348151D01*
X140203720Y-90348305D01*
X140203773Y-90348455D01*
X140195681Y-90382876D01*
X140187676Y-90417303D01*
X140187562Y-90417413D01*
X140187526Y-90417568D01*
X140167073Y-90444425D01*
X139720903Y-90890748D01*
X139658596Y-90924784D01*
X139587780Y-90919731D01*
X139557731Y-90903604D01*
X139553292Y-90900379D01*
X139396009Y-90786106D01*
X139396007Y-90786105D01*
X139394920Y-90785439D01*
X139394591Y-90785075D01*
X139392004Y-90783196D01*
X139392398Y-90782652D01*
X139347283Y-90732796D01*
X139335670Y-90662756D01*
X139363766Y-90597555D01*
X139392130Y-90572978D01*
X139392004Y-90572804D01*
X139394030Y-90571331D01*
X139394920Y-90570561D01*
X139395997Y-90569899D01*
X139396009Y-90569894D01*
X139569004Y-90444206D01*
X139720206Y-90293004D01*
X139845894Y-90120009D01*
X139845902Y-90119992D01*
X139846854Y-90118441D01*
X139847377Y-90117967D01*
X139848804Y-90116004D01*
X139849216Y-90116303D01*
X139871684Y-90095971D01*
X139895763Y-90072684D01*
X139897889Y-90072258D01*
X139899497Y-90070804D01*
X139932543Y-90065323D01*
X139965379Y-90058753D01*
X139967396Y-90059543D01*
G37*
G04 #@! TD.AperFunction*
G04 #@! TA.AperFunction,Conductor*
G36*
X161078075Y-89215007D02*
G01*
X161044000Y-89342174D01*
X161044000Y-89473826D01*
X161078075Y-89600993D01*
X161113297Y-89662000D01*
X159434703Y-89662000D01*
X159469925Y-89600993D01*
X159504000Y-89473826D01*
X159504000Y-89342174D01*
X159469925Y-89215007D01*
X159434703Y-89154000D01*
X161113297Y-89154000D01*
X161078075Y-89215007D01*
G37*
G04 #@! TD.AperFunction*
M02*
