G04 #@! TF.GenerationSoftware,KiCad,Pcbnew,9.0.8-9.0.8~ubuntu24.04.1*
G04 #@! TF.CreationDate,2026-03-29T19:28:16-04:00*
G04 #@! TF.ProjectId,imac_g3_slot_loading_J22_adapter_board,696d6163-5f67-4335-9f73-6c6f745f6c6f,2*
G04 #@! TF.SameCoordinates,Original*
G04 #@! TF.FileFunction,Legend,Top*
G04 #@! TF.FilePolarity,Positive*
%FSLAX46Y46*%
G04 Gerber Fmt 4.6, Leading zero omitted, Abs format (unit mm)*
G04 Created by KiCad (PCBNEW 9.0.8-9.0.8~ubuntu24.04.1) date 2026-03-29 19:28:16*
%MOMM*%
%LPD*%
G01*
G04 APERTURE LIST*
G04 Aperture macros list*
%AMRoundRect*
0 Rectangle with rounded corners*
0 $1 Rounding radius*
0 $2 $3 $4 $5 $6 $7 $8 $9 X,Y pos of 4 corners*
0 Add a 4 corners polygon primitive as box body*
4,1,4,$2,$3,$4,$5,$6,$7,$8,$9,$2,$3,0*
0 Add four circle primitives for the rounded corners*
1,1,$1+$1,$2,$3*
1,1,$1+$1,$4,$5*
1,1,$1+$1,$6,$7*
1,1,$1+$1,$8,$9*
0 Add four rect primitives between the rounded corners*
20,1,$1+$1,$2,$3,$4,$5,0*
20,1,$1+$1,$4,$5,$6,$7,0*
20,1,$1+$1,$6,$7,$8,$9,0*
20,1,$1+$1,$8,$9,$2,$3,0*%
G04 Aperture macros list end*
%ADD10C,0.120000*%
%ADD11C,0.150000*%
%ADD12C,0.125000*%
%ADD13C,7.102000*%
%ADD14C,1.702000*%
%ADD15O,1.702000X1.702000*%
%ADD16C,2.902000*%
%ADD17RoundRect,0.051000X-0.850000X-0.850000X0.850000X-0.850000X0.850000X0.850000X-0.850000X0.850000X0*%
%ADD18O,1.802000X1.802000*%
%ADD19RoundRect,0.051000X-1.300000X-1.300000X1.300000X-1.300000X1.300000X1.300000X-1.300000X1.300000X0*%
%ADD20C,2.702000*%
%ADD21RoundRect,0.265938X0.585062X-0.585062X0.585062X0.585062X-0.585062X0.585062X-0.585062X-0.585062X0*%
%ADD22RoundRect,0.051000X0.850000X-0.850000X0.850000X0.850000X-0.850000X0.850000X-0.850000X-0.850000X0*%
G04 APERTURE END LIST*
D10*
X112242000Y-114328000D02*
X105892000Y-114328000D01*
X112242000Y-114328000D02*
X112242000Y-116868000D01*
X117322000Y-114328000D02*
X112242000Y-114328000D01*
X117322000Y-114328000D02*
X117322000Y-116868000D01*
X117322000Y-114328000D02*
X137642000Y-114328000D01*
X122402000Y-114328000D02*
X122402000Y-116868000D01*
X127482000Y-114328000D02*
X127482000Y-116868000D01*
X132562000Y-114328000D02*
X132562000Y-116868000D01*
X137642000Y-114328000D02*
X137642000Y-116868000D01*
X137642000Y-114328000D02*
X156692000Y-114328000D01*
X146532000Y-114328000D02*
X146532000Y-116868000D01*
X156692000Y-114328000D02*
X156692000Y-116868000D01*
D11*
X118673334Y-100125886D02*
X118606667Y-100092553D01*
X118606667Y-100092553D02*
X118506667Y-100092553D01*
X118506667Y-100092553D02*
X118406667Y-100125886D01*
X118406667Y-100125886D02*
X118340001Y-100192553D01*
X118340001Y-100192553D02*
X118306667Y-100259220D01*
X118306667Y-100259220D02*
X118273334Y-100392553D01*
X118273334Y-100392553D02*
X118273334Y-100492553D01*
X118273334Y-100492553D02*
X118306667Y-100625886D01*
X118306667Y-100625886D02*
X118340001Y-100692553D01*
X118340001Y-100692553D02*
X118406667Y-100759220D01*
X118406667Y-100759220D02*
X118506667Y-100792553D01*
X118506667Y-100792553D02*
X118573334Y-100792553D01*
X118573334Y-100792553D02*
X118673334Y-100759220D01*
X118673334Y-100759220D02*
X118706667Y-100725886D01*
X118706667Y-100725886D02*
X118706667Y-100492553D01*
X118706667Y-100492553D02*
X118573334Y-100492553D01*
X119406667Y-100792553D02*
X119173334Y-100459220D01*
X119006667Y-100792553D02*
X119006667Y-100092553D01*
X119006667Y-100092553D02*
X119273334Y-100092553D01*
X119273334Y-100092553D02*
X119340001Y-100125886D01*
X119340001Y-100125886D02*
X119373334Y-100159220D01*
X119373334Y-100159220D02*
X119406667Y-100225886D01*
X119406667Y-100225886D02*
X119406667Y-100325886D01*
X119406667Y-100325886D02*
X119373334Y-100392553D01*
X119373334Y-100392553D02*
X119340001Y-100425886D01*
X119340001Y-100425886D02*
X119273334Y-100459220D01*
X119273334Y-100459220D02*
X119006667Y-100459220D01*
X119706667Y-100425886D02*
X119940001Y-100425886D01*
X120040001Y-100792553D02*
X119706667Y-100792553D01*
X119706667Y-100792553D02*
X119706667Y-100092553D01*
X119706667Y-100092553D02*
X120040001Y-100092553D01*
X120340000Y-100425886D02*
X120573334Y-100425886D01*
X120673334Y-100792553D02*
X120340000Y-100792553D01*
X120340000Y-100792553D02*
X120340000Y-100092553D01*
X120340000Y-100092553D02*
X120673334Y-100092553D01*
X120973333Y-100792553D02*
X120973333Y-100092553D01*
X120973333Y-100092553D02*
X121373333Y-100792553D01*
X121373333Y-100792553D02*
X121373333Y-100092553D01*
X119390000Y-101919514D02*
X119056666Y-101919514D01*
X119056666Y-101919514D02*
X119056666Y-101219514D01*
X119623333Y-101552847D02*
X119856667Y-101552847D01*
X119956667Y-101919514D02*
X119623333Y-101919514D01*
X119623333Y-101919514D02*
X119623333Y-101219514D01*
X119623333Y-101219514D02*
X119956667Y-101219514D01*
X120256666Y-101919514D02*
X120256666Y-101219514D01*
X120256666Y-101219514D02*
X120423333Y-101219514D01*
X120423333Y-101219514D02*
X120523333Y-101252847D01*
X120523333Y-101252847D02*
X120590000Y-101319514D01*
X120590000Y-101319514D02*
X120623333Y-101386181D01*
X120623333Y-101386181D02*
X120656666Y-101519514D01*
X120656666Y-101519514D02*
X120656666Y-101619514D01*
X120656666Y-101619514D02*
X120623333Y-101752847D01*
X120623333Y-101752847D02*
X120590000Y-101819514D01*
X120590000Y-101819514D02*
X120523333Y-101886181D01*
X120523333Y-101886181D02*
X120423333Y-101919514D01*
X120423333Y-101919514D02*
X120256666Y-101919514D01*
X124106666Y-101392553D02*
X124106666Y-100692553D01*
X124106666Y-100692553D02*
X124373333Y-100692553D01*
X124373333Y-100692553D02*
X124440000Y-100725886D01*
X124440000Y-100725886D02*
X124473333Y-100759220D01*
X124473333Y-100759220D02*
X124506666Y-100825886D01*
X124506666Y-100825886D02*
X124506666Y-100925886D01*
X124506666Y-100925886D02*
X124473333Y-100992553D01*
X124473333Y-100992553D02*
X124440000Y-101025886D01*
X124440000Y-101025886D02*
X124373333Y-101059220D01*
X124373333Y-101059220D02*
X124106666Y-101059220D01*
X124740000Y-100692553D02*
X124906666Y-101392553D01*
X124906666Y-101392553D02*
X125040000Y-100892553D01*
X125040000Y-100892553D02*
X125173333Y-101392553D01*
X125173333Y-101392553D02*
X125340000Y-100692553D01*
X126006666Y-101392553D02*
X125773333Y-101059220D01*
X125606666Y-101392553D02*
X125606666Y-100692553D01*
X125606666Y-100692553D02*
X125873333Y-100692553D01*
X125873333Y-100692553D02*
X125940000Y-100725886D01*
X125940000Y-100725886D02*
X125973333Y-100759220D01*
X125973333Y-100759220D02*
X126006666Y-100825886D01*
X126006666Y-100825886D02*
X126006666Y-100925886D01*
X126006666Y-100925886D02*
X125973333Y-100992553D01*
X125973333Y-100992553D02*
X125940000Y-101025886D01*
X125940000Y-101025886D02*
X125873333Y-101059220D01*
X125873333Y-101059220D02*
X125606666Y-101059220D01*
X123456668Y-102152847D02*
X123556668Y-102186181D01*
X123556668Y-102186181D02*
X123590001Y-102219514D01*
X123590001Y-102219514D02*
X123623334Y-102286181D01*
X123623334Y-102286181D02*
X123623334Y-102386181D01*
X123623334Y-102386181D02*
X123590001Y-102452847D01*
X123590001Y-102452847D02*
X123556668Y-102486181D01*
X123556668Y-102486181D02*
X123490001Y-102519514D01*
X123490001Y-102519514D02*
X123223334Y-102519514D01*
X123223334Y-102519514D02*
X123223334Y-101819514D01*
X123223334Y-101819514D02*
X123456668Y-101819514D01*
X123456668Y-101819514D02*
X123523334Y-101852847D01*
X123523334Y-101852847D02*
X123556668Y-101886181D01*
X123556668Y-101886181D02*
X123590001Y-101952847D01*
X123590001Y-101952847D02*
X123590001Y-102019514D01*
X123590001Y-102019514D02*
X123556668Y-102086181D01*
X123556668Y-102086181D02*
X123523334Y-102119514D01*
X123523334Y-102119514D02*
X123456668Y-102152847D01*
X123456668Y-102152847D02*
X123223334Y-102152847D01*
X123923334Y-101819514D02*
X123923334Y-102386181D01*
X123923334Y-102386181D02*
X123956668Y-102452847D01*
X123956668Y-102452847D02*
X123990001Y-102486181D01*
X123990001Y-102486181D02*
X124056668Y-102519514D01*
X124056668Y-102519514D02*
X124190001Y-102519514D01*
X124190001Y-102519514D02*
X124256668Y-102486181D01*
X124256668Y-102486181D02*
X124290001Y-102452847D01*
X124290001Y-102452847D02*
X124323334Y-102386181D01*
X124323334Y-102386181D02*
X124323334Y-101819514D01*
X124556667Y-101819514D02*
X124956667Y-101819514D01*
X124756667Y-102519514D02*
X124756667Y-101819514D01*
X125090000Y-101819514D02*
X125490000Y-101819514D01*
X125290000Y-102519514D02*
X125290000Y-101819514D01*
X125856667Y-101819514D02*
X125990000Y-101819514D01*
X125990000Y-101819514D02*
X126056667Y-101852847D01*
X126056667Y-101852847D02*
X126123333Y-101919514D01*
X126123333Y-101919514D02*
X126156667Y-102052847D01*
X126156667Y-102052847D02*
X126156667Y-102286181D01*
X126156667Y-102286181D02*
X126123333Y-102419514D01*
X126123333Y-102419514D02*
X126056667Y-102486181D01*
X126056667Y-102486181D02*
X125990000Y-102519514D01*
X125990000Y-102519514D02*
X125856667Y-102519514D01*
X125856667Y-102519514D02*
X125790000Y-102486181D01*
X125790000Y-102486181D02*
X125723333Y-102419514D01*
X125723333Y-102419514D02*
X125690000Y-102286181D01*
X125690000Y-102286181D02*
X125690000Y-102052847D01*
X125690000Y-102052847D02*
X125723333Y-101919514D01*
X125723333Y-101919514D02*
X125790000Y-101852847D01*
X125790000Y-101852847D02*
X125856667Y-101819514D01*
X126456666Y-102519514D02*
X126456666Y-101819514D01*
X126456666Y-101819514D02*
X126856666Y-102519514D01*
X126856666Y-102519514D02*
X126856666Y-101819514D01*
X128456667Y-100792553D02*
X128790000Y-100792553D01*
X128390000Y-100992553D02*
X128623334Y-100292553D01*
X128623334Y-100292553D02*
X128856667Y-100992553D01*
X129090000Y-100992553D02*
X129090000Y-100292553D01*
X129090000Y-100292553D02*
X129323334Y-100792553D01*
X129323334Y-100792553D02*
X129556667Y-100292553D01*
X129556667Y-100292553D02*
X129556667Y-100992553D01*
X130123334Y-100625886D02*
X130223334Y-100659220D01*
X130223334Y-100659220D02*
X130256667Y-100692553D01*
X130256667Y-100692553D02*
X130290000Y-100759220D01*
X130290000Y-100759220D02*
X130290000Y-100859220D01*
X130290000Y-100859220D02*
X130256667Y-100925886D01*
X130256667Y-100925886D02*
X130223334Y-100959220D01*
X130223334Y-100959220D02*
X130156667Y-100992553D01*
X130156667Y-100992553D02*
X129890000Y-100992553D01*
X129890000Y-100992553D02*
X129890000Y-100292553D01*
X129890000Y-100292553D02*
X130123334Y-100292553D01*
X130123334Y-100292553D02*
X130190000Y-100325886D01*
X130190000Y-100325886D02*
X130223334Y-100359220D01*
X130223334Y-100359220D02*
X130256667Y-100425886D01*
X130256667Y-100425886D02*
X130256667Y-100492553D01*
X130256667Y-100492553D02*
X130223334Y-100559220D01*
X130223334Y-100559220D02*
X130190000Y-100592553D01*
X130190000Y-100592553D02*
X130123334Y-100625886D01*
X130123334Y-100625886D02*
X129890000Y-100625886D01*
X130590000Y-100625886D02*
X130823334Y-100625886D01*
X130923334Y-100992553D02*
X130590000Y-100992553D01*
X130590000Y-100992553D02*
X130590000Y-100292553D01*
X130590000Y-100292553D02*
X130923334Y-100292553D01*
X131623333Y-100992553D02*
X131390000Y-100659220D01*
X131223333Y-100992553D02*
X131223333Y-100292553D01*
X131223333Y-100292553D02*
X131490000Y-100292553D01*
X131490000Y-100292553D02*
X131556667Y-100325886D01*
X131556667Y-100325886D02*
X131590000Y-100359220D01*
X131590000Y-100359220D02*
X131623333Y-100425886D01*
X131623333Y-100425886D02*
X131623333Y-100525886D01*
X131623333Y-100525886D02*
X131590000Y-100592553D01*
X131590000Y-100592553D02*
X131556667Y-100625886D01*
X131556667Y-100625886D02*
X131490000Y-100659220D01*
X131490000Y-100659220D02*
X131223333Y-100659220D01*
X129590000Y-102119514D02*
X129256666Y-102119514D01*
X129256666Y-102119514D02*
X129256666Y-101419514D01*
X129823333Y-101752847D02*
X130056667Y-101752847D01*
X130156667Y-102119514D02*
X129823333Y-102119514D01*
X129823333Y-102119514D02*
X129823333Y-101419514D01*
X129823333Y-101419514D02*
X130156667Y-101419514D01*
X130456666Y-102119514D02*
X130456666Y-101419514D01*
X130456666Y-101419514D02*
X130623333Y-101419514D01*
X130623333Y-101419514D02*
X130723333Y-101452847D01*
X130723333Y-101452847D02*
X130790000Y-101519514D01*
X130790000Y-101519514D02*
X130823333Y-101586181D01*
X130823333Y-101586181D02*
X130856666Y-101719514D01*
X130856666Y-101719514D02*
X130856666Y-101819514D01*
X130856666Y-101819514D02*
X130823333Y-101952847D01*
X130823333Y-101952847D02*
X130790000Y-102019514D01*
X130790000Y-102019514D02*
X130723333Y-102086181D01*
X130723333Y-102086181D02*
X130623333Y-102119514D01*
X130623333Y-102119514D02*
X130456666Y-102119514D01*
X118612000Y-114619149D02*
X118540572Y-114583435D01*
X118540572Y-114583435D02*
X118433429Y-114583435D01*
X118433429Y-114583435D02*
X118326286Y-114619149D01*
X118326286Y-114619149D02*
X118254857Y-114690578D01*
X118254857Y-114690578D02*
X118219143Y-114762006D01*
X118219143Y-114762006D02*
X118183429Y-114904863D01*
X118183429Y-114904863D02*
X118183429Y-115012006D01*
X118183429Y-115012006D02*
X118219143Y-115154863D01*
X118219143Y-115154863D02*
X118254857Y-115226292D01*
X118254857Y-115226292D02*
X118326286Y-115297721D01*
X118326286Y-115297721D02*
X118433429Y-115333435D01*
X118433429Y-115333435D02*
X118504857Y-115333435D01*
X118504857Y-115333435D02*
X118612000Y-115297721D01*
X118612000Y-115297721D02*
X118647714Y-115262006D01*
X118647714Y-115262006D02*
X118647714Y-115012006D01*
X118647714Y-115012006D02*
X118504857Y-115012006D01*
X119397714Y-115333435D02*
X119147714Y-114976292D01*
X118969143Y-115333435D02*
X118969143Y-114583435D01*
X118969143Y-114583435D02*
X119254857Y-114583435D01*
X119254857Y-114583435D02*
X119326286Y-114619149D01*
X119326286Y-114619149D02*
X119362000Y-114654863D01*
X119362000Y-114654863D02*
X119397714Y-114726292D01*
X119397714Y-114726292D02*
X119397714Y-114833435D01*
X119397714Y-114833435D02*
X119362000Y-114904863D01*
X119362000Y-114904863D02*
X119326286Y-114940578D01*
X119326286Y-114940578D02*
X119254857Y-114976292D01*
X119254857Y-114976292D02*
X118969143Y-114976292D01*
X119719143Y-114940578D02*
X119969143Y-114940578D01*
X120076286Y-115333435D02*
X119719143Y-115333435D01*
X119719143Y-115333435D02*
X119719143Y-114583435D01*
X119719143Y-114583435D02*
X120076286Y-114583435D01*
X120397714Y-114940578D02*
X120647714Y-114940578D01*
X120754857Y-115333435D02*
X120397714Y-115333435D01*
X120397714Y-115333435D02*
X120397714Y-114583435D01*
X120397714Y-114583435D02*
X120754857Y-114583435D01*
X121076285Y-115333435D02*
X121076285Y-114583435D01*
X121076285Y-114583435D02*
X121504856Y-115333435D01*
X121504856Y-115333435D02*
X121504856Y-114583435D01*
X119379857Y-116540893D02*
X119022714Y-116540893D01*
X119022714Y-116540893D02*
X119022714Y-115790893D01*
X119629857Y-116148036D02*
X119879857Y-116148036D01*
X119987000Y-116540893D02*
X119629857Y-116540893D01*
X119629857Y-116540893D02*
X119629857Y-115790893D01*
X119629857Y-115790893D02*
X119987000Y-115790893D01*
X120308428Y-116540893D02*
X120308428Y-115790893D01*
X120308428Y-115790893D02*
X120486999Y-115790893D01*
X120486999Y-115790893D02*
X120594142Y-115826607D01*
X120594142Y-115826607D02*
X120665571Y-115898036D01*
X120665571Y-115898036D02*
X120701285Y-115969464D01*
X120701285Y-115969464D02*
X120736999Y-116112321D01*
X120736999Y-116112321D02*
X120736999Y-116219464D01*
X120736999Y-116219464D02*
X120701285Y-116362321D01*
X120701285Y-116362321D02*
X120665571Y-116433750D01*
X120665571Y-116433750D02*
X120594142Y-116505179D01*
X120594142Y-116505179D02*
X120486999Y-116540893D01*
X120486999Y-116540893D02*
X120308428Y-116540893D01*
X123209857Y-115333435D02*
X123209857Y-114583435D01*
X123209857Y-114583435D02*
X123495571Y-114583435D01*
X123495571Y-114583435D02*
X123567000Y-114619149D01*
X123567000Y-114619149D02*
X123602714Y-114654863D01*
X123602714Y-114654863D02*
X123638428Y-114726292D01*
X123638428Y-114726292D02*
X123638428Y-114833435D01*
X123638428Y-114833435D02*
X123602714Y-114904863D01*
X123602714Y-114904863D02*
X123567000Y-114940578D01*
X123567000Y-114940578D02*
X123495571Y-114976292D01*
X123495571Y-114976292D02*
X123209857Y-114976292D01*
X124102714Y-114583435D02*
X124245571Y-114583435D01*
X124245571Y-114583435D02*
X124317000Y-114619149D01*
X124317000Y-114619149D02*
X124388428Y-114690578D01*
X124388428Y-114690578D02*
X124424143Y-114833435D01*
X124424143Y-114833435D02*
X124424143Y-115083435D01*
X124424143Y-115083435D02*
X124388428Y-115226292D01*
X124388428Y-115226292D02*
X124317000Y-115297721D01*
X124317000Y-115297721D02*
X124245571Y-115333435D01*
X124245571Y-115333435D02*
X124102714Y-115333435D01*
X124102714Y-115333435D02*
X124031286Y-115297721D01*
X124031286Y-115297721D02*
X123959857Y-115226292D01*
X123959857Y-115226292D02*
X123924143Y-115083435D01*
X123924143Y-115083435D02*
X123924143Y-114833435D01*
X123924143Y-114833435D02*
X123959857Y-114690578D01*
X123959857Y-114690578D02*
X124031286Y-114619149D01*
X124031286Y-114619149D02*
X124102714Y-114583435D01*
X124674142Y-114583435D02*
X124852714Y-115333435D01*
X124852714Y-115333435D02*
X124995571Y-114797721D01*
X124995571Y-114797721D02*
X125138428Y-115333435D01*
X125138428Y-115333435D02*
X125317000Y-114583435D01*
X125602714Y-114940578D02*
X125852714Y-114940578D01*
X125959857Y-115333435D02*
X125602714Y-115333435D01*
X125602714Y-115333435D02*
X125602714Y-114583435D01*
X125602714Y-114583435D02*
X125959857Y-114583435D01*
X126709856Y-115333435D02*
X126459856Y-114976292D01*
X126281285Y-115333435D02*
X126281285Y-114583435D01*
X126281285Y-114583435D02*
X126566999Y-114583435D01*
X126566999Y-114583435D02*
X126638428Y-114619149D01*
X126638428Y-114619149D02*
X126674142Y-114654863D01*
X126674142Y-114654863D02*
X126709856Y-114726292D01*
X126709856Y-114726292D02*
X126709856Y-114833435D01*
X126709856Y-114833435D02*
X126674142Y-114904863D01*
X126674142Y-114904863D02*
X126638428Y-114940578D01*
X126638428Y-114940578D02*
X126566999Y-114976292D01*
X126566999Y-114976292D02*
X126281285Y-114976292D01*
X123245571Y-116148036D02*
X123352714Y-116183750D01*
X123352714Y-116183750D02*
X123388428Y-116219464D01*
X123388428Y-116219464D02*
X123424142Y-116290893D01*
X123424142Y-116290893D02*
X123424142Y-116398036D01*
X123424142Y-116398036D02*
X123388428Y-116469464D01*
X123388428Y-116469464D02*
X123352714Y-116505179D01*
X123352714Y-116505179D02*
X123281285Y-116540893D01*
X123281285Y-116540893D02*
X122995571Y-116540893D01*
X122995571Y-116540893D02*
X122995571Y-115790893D01*
X122995571Y-115790893D02*
X123245571Y-115790893D01*
X123245571Y-115790893D02*
X123317000Y-115826607D01*
X123317000Y-115826607D02*
X123352714Y-115862321D01*
X123352714Y-115862321D02*
X123388428Y-115933750D01*
X123388428Y-115933750D02*
X123388428Y-116005179D01*
X123388428Y-116005179D02*
X123352714Y-116076607D01*
X123352714Y-116076607D02*
X123317000Y-116112321D01*
X123317000Y-116112321D02*
X123245571Y-116148036D01*
X123245571Y-116148036D02*
X122995571Y-116148036D01*
X123745571Y-115790893D02*
X123745571Y-116398036D01*
X123745571Y-116398036D02*
X123781285Y-116469464D01*
X123781285Y-116469464D02*
X123817000Y-116505179D01*
X123817000Y-116505179D02*
X123888428Y-116540893D01*
X123888428Y-116540893D02*
X124031285Y-116540893D01*
X124031285Y-116540893D02*
X124102714Y-116505179D01*
X124102714Y-116505179D02*
X124138428Y-116469464D01*
X124138428Y-116469464D02*
X124174142Y-116398036D01*
X124174142Y-116398036D02*
X124174142Y-115790893D01*
X124424142Y-115790893D02*
X124852714Y-115790893D01*
X124638428Y-116540893D02*
X124638428Y-115790893D01*
X124995571Y-115790893D02*
X125424143Y-115790893D01*
X125209857Y-116540893D02*
X125209857Y-115790893D01*
X125817000Y-115790893D02*
X125959857Y-115790893D01*
X125959857Y-115790893D02*
X126031286Y-115826607D01*
X126031286Y-115826607D02*
X126102714Y-115898036D01*
X126102714Y-115898036D02*
X126138429Y-116040893D01*
X126138429Y-116040893D02*
X126138429Y-116290893D01*
X126138429Y-116290893D02*
X126102714Y-116433750D01*
X126102714Y-116433750D02*
X126031286Y-116505179D01*
X126031286Y-116505179D02*
X125959857Y-116540893D01*
X125959857Y-116540893D02*
X125817000Y-116540893D01*
X125817000Y-116540893D02*
X125745572Y-116505179D01*
X125745572Y-116505179D02*
X125674143Y-116433750D01*
X125674143Y-116433750D02*
X125638429Y-116290893D01*
X125638429Y-116290893D02*
X125638429Y-116040893D01*
X125638429Y-116040893D02*
X125674143Y-115898036D01*
X125674143Y-115898036D02*
X125745572Y-115826607D01*
X125745572Y-115826607D02*
X125817000Y-115790893D01*
X126459857Y-116540893D02*
X126459857Y-115790893D01*
X126459857Y-115790893D02*
X126888428Y-116540893D01*
X126888428Y-116540893D02*
X126888428Y-115790893D01*
X128325572Y-115119149D02*
X128682715Y-115119149D01*
X128254143Y-115333435D02*
X128504143Y-114583435D01*
X128504143Y-114583435D02*
X128754143Y-115333435D01*
X129004143Y-115333435D02*
X129004143Y-114583435D01*
X129004143Y-114583435D02*
X129254143Y-115119149D01*
X129254143Y-115119149D02*
X129504143Y-114583435D01*
X129504143Y-114583435D02*
X129504143Y-115333435D01*
X130111286Y-114940578D02*
X130218429Y-114976292D01*
X130218429Y-114976292D02*
X130254143Y-115012006D01*
X130254143Y-115012006D02*
X130289857Y-115083435D01*
X130289857Y-115083435D02*
X130289857Y-115190578D01*
X130289857Y-115190578D02*
X130254143Y-115262006D01*
X130254143Y-115262006D02*
X130218429Y-115297721D01*
X130218429Y-115297721D02*
X130147000Y-115333435D01*
X130147000Y-115333435D02*
X129861286Y-115333435D01*
X129861286Y-115333435D02*
X129861286Y-114583435D01*
X129861286Y-114583435D02*
X130111286Y-114583435D01*
X130111286Y-114583435D02*
X130182715Y-114619149D01*
X130182715Y-114619149D02*
X130218429Y-114654863D01*
X130218429Y-114654863D02*
X130254143Y-114726292D01*
X130254143Y-114726292D02*
X130254143Y-114797721D01*
X130254143Y-114797721D02*
X130218429Y-114869149D01*
X130218429Y-114869149D02*
X130182715Y-114904863D01*
X130182715Y-114904863D02*
X130111286Y-114940578D01*
X130111286Y-114940578D02*
X129861286Y-114940578D01*
X130611286Y-114940578D02*
X130861286Y-114940578D01*
X130968429Y-115333435D02*
X130611286Y-115333435D01*
X130611286Y-115333435D02*
X130611286Y-114583435D01*
X130611286Y-114583435D02*
X130968429Y-114583435D01*
X131718428Y-115333435D02*
X131468428Y-114976292D01*
X131289857Y-115333435D02*
X131289857Y-114583435D01*
X131289857Y-114583435D02*
X131575571Y-114583435D01*
X131575571Y-114583435D02*
X131647000Y-114619149D01*
X131647000Y-114619149D02*
X131682714Y-114654863D01*
X131682714Y-114654863D02*
X131718428Y-114726292D01*
X131718428Y-114726292D02*
X131718428Y-114833435D01*
X131718428Y-114833435D02*
X131682714Y-114904863D01*
X131682714Y-114904863D02*
X131647000Y-114940578D01*
X131647000Y-114940578D02*
X131575571Y-114976292D01*
X131575571Y-114976292D02*
X131289857Y-114976292D01*
X129539857Y-116540893D02*
X129182714Y-116540893D01*
X129182714Y-116540893D02*
X129182714Y-115790893D01*
X129789857Y-116148036D02*
X130039857Y-116148036D01*
X130147000Y-116540893D02*
X129789857Y-116540893D01*
X129789857Y-116540893D02*
X129789857Y-115790893D01*
X129789857Y-115790893D02*
X130147000Y-115790893D01*
X130468428Y-116540893D02*
X130468428Y-115790893D01*
X130468428Y-115790893D02*
X130646999Y-115790893D01*
X130646999Y-115790893D02*
X130754142Y-115826607D01*
X130754142Y-115826607D02*
X130825571Y-115898036D01*
X130825571Y-115898036D02*
X130861285Y-115969464D01*
X130861285Y-115969464D02*
X130896999Y-116112321D01*
X130896999Y-116112321D02*
X130896999Y-116219464D01*
X130896999Y-116219464D02*
X130861285Y-116362321D01*
X130861285Y-116362321D02*
X130825571Y-116433750D01*
X130825571Y-116433750D02*
X130754142Y-116505179D01*
X130754142Y-116505179D02*
X130646999Y-116540893D01*
X130646999Y-116540893D02*
X130468428Y-116540893D01*
D12*
X107932476Y-112609357D02*
X107980095Y-112561738D01*
X107980095Y-112561738D02*
X108075333Y-112514119D01*
X108075333Y-112514119D02*
X108313428Y-112514119D01*
X108313428Y-112514119D02*
X108408666Y-112561738D01*
X108408666Y-112561738D02*
X108456285Y-112609357D01*
X108456285Y-112609357D02*
X108503904Y-112704595D01*
X108503904Y-112704595D02*
X108503904Y-112799833D01*
X108503904Y-112799833D02*
X108456285Y-112942690D01*
X108456285Y-112942690D02*
X107884857Y-113514119D01*
X107884857Y-113514119D02*
X108503904Y-113514119D01*
X109361047Y-112847452D02*
X109361047Y-113514119D01*
X109122952Y-112466500D02*
X108884857Y-113180785D01*
X108884857Y-113180785D02*
X109503904Y-113180785D01*
X110503905Y-112514119D02*
X110837238Y-113514119D01*
X110837238Y-113514119D02*
X111170571Y-112514119D01*
X111456286Y-113228404D02*
X111932476Y-113228404D01*
X111361048Y-113514119D02*
X111694381Y-112514119D01*
X111694381Y-112514119D02*
X112027714Y-113514119D01*
X112932476Y-113418880D02*
X112884857Y-113466500D01*
X112884857Y-113466500D02*
X112742000Y-113514119D01*
X112742000Y-113514119D02*
X112646762Y-113514119D01*
X112646762Y-113514119D02*
X112503905Y-113466500D01*
X112503905Y-113466500D02*
X112408667Y-113371261D01*
X112408667Y-113371261D02*
X112361048Y-113276023D01*
X112361048Y-113276023D02*
X112313429Y-113085547D01*
X112313429Y-113085547D02*
X112313429Y-112942690D01*
X112313429Y-112942690D02*
X112361048Y-112752214D01*
X112361048Y-112752214D02*
X112408667Y-112656976D01*
X112408667Y-112656976D02*
X112503905Y-112561738D01*
X112503905Y-112561738D02*
X112646762Y-112514119D01*
X112646762Y-112514119D02*
X112742000Y-112514119D01*
X112742000Y-112514119D02*
X112884857Y-112561738D01*
X112884857Y-112561738D02*
X112932476Y-112609357D01*
X114313429Y-112514119D02*
X114503905Y-112514119D01*
X114503905Y-112514119D02*
X114599143Y-112561738D01*
X114599143Y-112561738D02*
X114694381Y-112656976D01*
X114694381Y-112656976D02*
X114742000Y-112847452D01*
X114742000Y-112847452D02*
X114742000Y-113180785D01*
X114742000Y-113180785D02*
X114694381Y-113371261D01*
X114694381Y-113371261D02*
X114599143Y-113466500D01*
X114599143Y-113466500D02*
X114503905Y-113514119D01*
X114503905Y-113514119D02*
X114313429Y-113514119D01*
X114313429Y-113514119D02*
X114218191Y-113466500D01*
X114218191Y-113466500D02*
X114122953Y-113371261D01*
X114122953Y-113371261D02*
X114075334Y-113180785D01*
X114075334Y-113180785D02*
X114075334Y-112847452D01*
X114075334Y-112847452D02*
X114122953Y-112656976D01*
X114122953Y-112656976D02*
X114218191Y-112561738D01*
X114218191Y-112561738D02*
X114313429Y-112514119D01*
X115170572Y-112514119D02*
X115170572Y-113323642D01*
X115170572Y-113323642D02*
X115218191Y-113418880D01*
X115218191Y-113418880D02*
X115265810Y-113466500D01*
X115265810Y-113466500D02*
X115361048Y-113514119D01*
X115361048Y-113514119D02*
X115551524Y-113514119D01*
X115551524Y-113514119D02*
X115646762Y-113466500D01*
X115646762Y-113466500D02*
X115694381Y-113418880D01*
X115694381Y-113418880D02*
X115742000Y-113323642D01*
X115742000Y-113323642D02*
X115742000Y-112514119D01*
X116075334Y-112514119D02*
X116646762Y-112514119D01*
X116361048Y-113514119D02*
X116361048Y-112514119D01*
D11*
X107122476Y-115671866D02*
X107884381Y-115671866D01*
X107503428Y-116052819D02*
X107503428Y-115290914D01*
X108312952Y-115767104D02*
X108789142Y-115767104D01*
X108217714Y-116052819D02*
X108551047Y-115052819D01*
X108551047Y-115052819D02*
X108884380Y-116052819D01*
X109789142Y-115957580D02*
X109741523Y-116005200D01*
X109741523Y-116005200D02*
X109598666Y-116052819D01*
X109598666Y-116052819D02*
X109503428Y-116052819D01*
X109503428Y-116052819D02*
X109360571Y-116005200D01*
X109360571Y-116005200D02*
X109265333Y-115909961D01*
X109265333Y-115909961D02*
X109217714Y-115814723D01*
X109217714Y-115814723D02*
X109170095Y-115624247D01*
X109170095Y-115624247D02*
X109170095Y-115481390D01*
X109170095Y-115481390D02*
X109217714Y-115290914D01*
X109217714Y-115290914D02*
X109265333Y-115195676D01*
X109265333Y-115195676D02*
X109360571Y-115100438D01*
X109360571Y-115100438D02*
X109503428Y-115052819D01*
X109503428Y-115052819D02*
X109598666Y-115052819D01*
X109598666Y-115052819D02*
X109741523Y-115100438D01*
X109741523Y-115100438D02*
X109789142Y-115148057D01*
X107730476Y-101713866D02*
X108492381Y-101713866D01*
X108111428Y-102094819D02*
X108111428Y-101332914D01*
X108920952Y-101809104D02*
X109397142Y-101809104D01*
X108825714Y-102094819D02*
X109159047Y-101094819D01*
X109159047Y-101094819D02*
X109492380Y-102094819D01*
X110397142Y-101999580D02*
X110349523Y-102047200D01*
X110349523Y-102047200D02*
X110206666Y-102094819D01*
X110206666Y-102094819D02*
X110111428Y-102094819D01*
X110111428Y-102094819D02*
X109968571Y-102047200D01*
X109968571Y-102047200D02*
X109873333Y-101951961D01*
X109873333Y-101951961D02*
X109825714Y-101856723D01*
X109825714Y-101856723D02*
X109778095Y-101666247D01*
X109778095Y-101666247D02*
X109778095Y-101523390D01*
X109778095Y-101523390D02*
X109825714Y-101332914D01*
X109825714Y-101332914D02*
X109873333Y-101237676D01*
X109873333Y-101237676D02*
X109968571Y-101142438D01*
X109968571Y-101142438D02*
X110111428Y-101094819D01*
X110111428Y-101094819D02*
X110206666Y-101094819D01*
X110206666Y-101094819D02*
X110349523Y-101142438D01*
X110349523Y-101142438D02*
X110397142Y-101190057D01*
X112730476Y-101713866D02*
X113492381Y-101713866D01*
X113920952Y-101809104D02*
X114397142Y-101809104D01*
X113825714Y-102094819D02*
X114159047Y-101094819D01*
X114159047Y-101094819D02*
X114492380Y-102094819D01*
X115397142Y-101999580D02*
X115349523Y-102047200D01*
X115349523Y-102047200D02*
X115206666Y-102094819D01*
X115206666Y-102094819D02*
X115111428Y-102094819D01*
X115111428Y-102094819D02*
X114968571Y-102047200D01*
X114968571Y-102047200D02*
X114873333Y-101951961D01*
X114873333Y-101951961D02*
X114825714Y-101856723D01*
X114825714Y-101856723D02*
X114778095Y-101666247D01*
X114778095Y-101666247D02*
X114778095Y-101523390D01*
X114778095Y-101523390D02*
X114825714Y-101332914D01*
X114825714Y-101332914D02*
X114873333Y-101237676D01*
X114873333Y-101237676D02*
X114968571Y-101142438D01*
X114968571Y-101142438D02*
X115111428Y-101094819D01*
X115111428Y-101094819D02*
X115206666Y-101094819D01*
X115206666Y-101094819D02*
X115349523Y-101142438D01*
X115349523Y-101142438D02*
X115397142Y-101190057D01*
X113472476Y-115671866D02*
X114234381Y-115671866D01*
X114662952Y-115767104D02*
X115139142Y-115767104D01*
X114567714Y-116052819D02*
X114901047Y-115052819D01*
X114901047Y-115052819D02*
X115234380Y-116052819D01*
X116139142Y-115957580D02*
X116091523Y-116005200D01*
X116091523Y-116005200D02*
X115948666Y-116052819D01*
X115948666Y-116052819D02*
X115853428Y-116052819D01*
X115853428Y-116052819D02*
X115710571Y-116005200D01*
X115710571Y-116005200D02*
X115615333Y-115909961D01*
X115615333Y-115909961D02*
X115567714Y-115814723D01*
X115567714Y-115814723D02*
X115520095Y-115624247D01*
X115520095Y-115624247D02*
X115520095Y-115481390D01*
X115520095Y-115481390D02*
X115567714Y-115290914D01*
X115567714Y-115290914D02*
X115615333Y-115195676D01*
X115615333Y-115195676D02*
X115710571Y-115100438D01*
X115710571Y-115100438D02*
X115853428Y-115052819D01*
X115853428Y-115052819D02*
X115948666Y-115052819D01*
X115948666Y-115052819D02*
X116091523Y-115100438D01*
X116091523Y-115100438D02*
X116139142Y-115148057D01*
X114298189Y-89382819D02*
X113964856Y-88906628D01*
X113726761Y-89382819D02*
X113726761Y-88382819D01*
X113726761Y-88382819D02*
X114107713Y-88382819D01*
X114107713Y-88382819D02*
X114202951Y-88430438D01*
X114202951Y-88430438D02*
X114250570Y-88478057D01*
X114250570Y-88478057D02*
X114298189Y-88573295D01*
X114298189Y-88573295D02*
X114298189Y-88716152D01*
X114298189Y-88716152D02*
X114250570Y-88811390D01*
X114250570Y-88811390D02*
X114202951Y-88859009D01*
X114202951Y-88859009D02*
X114107713Y-88906628D01*
X114107713Y-88906628D02*
X113726761Y-88906628D01*
X114869618Y-89382819D02*
X114774380Y-89335200D01*
X114774380Y-89335200D02*
X114726761Y-89287580D01*
X114726761Y-89287580D02*
X114679142Y-89192342D01*
X114679142Y-89192342D02*
X114679142Y-88906628D01*
X114679142Y-88906628D02*
X114726761Y-88811390D01*
X114726761Y-88811390D02*
X114774380Y-88763771D01*
X114774380Y-88763771D02*
X114869618Y-88716152D01*
X114869618Y-88716152D02*
X115012475Y-88716152D01*
X115012475Y-88716152D02*
X115107713Y-88763771D01*
X115107713Y-88763771D02*
X115155332Y-88811390D01*
X115155332Y-88811390D02*
X115202951Y-88906628D01*
X115202951Y-88906628D02*
X115202951Y-89192342D01*
X115202951Y-89192342D02*
X115155332Y-89287580D01*
X115155332Y-89287580D02*
X115107713Y-89335200D01*
X115107713Y-89335200D02*
X115012475Y-89382819D01*
X115012475Y-89382819D02*
X114869618Y-89382819D01*
X116060094Y-89335200D02*
X115964856Y-89382819D01*
X115964856Y-89382819D02*
X115774380Y-89382819D01*
X115774380Y-89382819D02*
X115679142Y-89335200D01*
X115679142Y-89335200D02*
X115631523Y-89287580D01*
X115631523Y-89287580D02*
X115583904Y-89192342D01*
X115583904Y-89192342D02*
X115583904Y-88906628D01*
X115583904Y-88906628D02*
X115631523Y-88811390D01*
X115631523Y-88811390D02*
X115679142Y-88763771D01*
X115679142Y-88763771D02*
X115774380Y-88716152D01*
X115774380Y-88716152D02*
X115964856Y-88716152D01*
X115964856Y-88716152D02*
X116060094Y-88763771D01*
X116488666Y-89382819D02*
X116488666Y-88382819D01*
X116583904Y-89001866D02*
X116869618Y-89382819D01*
X116869618Y-88716152D02*
X116488666Y-89097104D01*
X117202952Y-88716152D02*
X117441047Y-89382819D01*
X117679142Y-88716152D02*
X117441047Y-89382819D01*
X117441047Y-89382819D02*
X117345809Y-89620914D01*
X117345809Y-89620914D02*
X117298190Y-89668533D01*
X117298190Y-89668533D02*
X117202952Y-89716152D01*
X118822000Y-89382819D02*
X118822000Y-88382819D01*
X118822000Y-88859009D02*
X119393428Y-88859009D01*
X119393428Y-89382819D02*
X119393428Y-88382819D01*
X119869619Y-89382819D02*
X119869619Y-88716152D01*
X119869619Y-88382819D02*
X119822000Y-88430438D01*
X119822000Y-88430438D02*
X119869619Y-88478057D01*
X119869619Y-88478057D02*
X119917238Y-88430438D01*
X119917238Y-88430438D02*
X119869619Y-88382819D01*
X119869619Y-88382819D02*
X119869619Y-88478057D01*
X120488666Y-89382819D02*
X120393428Y-89335200D01*
X120393428Y-89335200D02*
X120345809Y-89239961D01*
X120345809Y-89239961D02*
X120345809Y-88382819D01*
X121012476Y-89382819D02*
X120917238Y-89335200D01*
X120917238Y-89335200D02*
X120869619Y-89239961D01*
X120869619Y-89239961D02*
X120869619Y-88382819D01*
X114516190Y-97002819D02*
X114516190Y-96002819D01*
X114516190Y-96479009D02*
X115087618Y-96479009D01*
X115087618Y-97002819D02*
X115087618Y-96002819D01*
X115516190Y-96098057D02*
X115563809Y-96050438D01*
X115563809Y-96050438D02*
X115659047Y-96002819D01*
X115659047Y-96002819D02*
X115897142Y-96002819D01*
X115897142Y-96002819D02*
X115992380Y-96050438D01*
X115992380Y-96050438D02*
X116039999Y-96098057D01*
X116039999Y-96098057D02*
X116087618Y-96193295D01*
X116087618Y-96193295D02*
X116087618Y-96288533D01*
X116087618Y-96288533D02*
X116039999Y-96431390D01*
X116039999Y-96431390D02*
X115468571Y-97002819D01*
X115468571Y-97002819D02*
X116087618Y-97002819D01*
X117230476Y-96955200D02*
X117373333Y-97002819D01*
X117373333Y-97002819D02*
X117611428Y-97002819D01*
X117611428Y-97002819D02*
X117706666Y-96955200D01*
X117706666Y-96955200D02*
X117754285Y-96907580D01*
X117754285Y-96907580D02*
X117801904Y-96812342D01*
X117801904Y-96812342D02*
X117801904Y-96717104D01*
X117801904Y-96717104D02*
X117754285Y-96621866D01*
X117754285Y-96621866D02*
X117706666Y-96574247D01*
X117706666Y-96574247D02*
X117611428Y-96526628D01*
X117611428Y-96526628D02*
X117420952Y-96479009D01*
X117420952Y-96479009D02*
X117325714Y-96431390D01*
X117325714Y-96431390D02*
X117278095Y-96383771D01*
X117278095Y-96383771D02*
X117230476Y-96288533D01*
X117230476Y-96288533D02*
X117230476Y-96193295D01*
X117230476Y-96193295D02*
X117278095Y-96098057D01*
X117278095Y-96098057D02*
X117325714Y-96050438D01*
X117325714Y-96050438D02*
X117420952Y-96002819D01*
X117420952Y-96002819D02*
X117659047Y-96002819D01*
X117659047Y-96002819D02*
X117801904Y-96050438D01*
X118230476Y-96479009D02*
X118563809Y-96479009D01*
X118706666Y-97002819D02*
X118230476Y-97002819D01*
X118230476Y-97002819D02*
X118230476Y-96002819D01*
X118230476Y-96002819D02*
X118706666Y-96002819D01*
X119135238Y-97002819D02*
X119135238Y-96002819D01*
X119135238Y-96002819D02*
X119706666Y-97002819D01*
X119706666Y-97002819D02*
X119706666Y-96002819D01*
X120135238Y-96955200D02*
X120278095Y-97002819D01*
X120278095Y-97002819D02*
X120516190Y-97002819D01*
X120516190Y-97002819D02*
X120611428Y-96955200D01*
X120611428Y-96955200D02*
X120659047Y-96907580D01*
X120659047Y-96907580D02*
X120706666Y-96812342D01*
X120706666Y-96812342D02*
X120706666Y-96717104D01*
X120706666Y-96717104D02*
X120659047Y-96621866D01*
X120659047Y-96621866D02*
X120611428Y-96574247D01*
X120611428Y-96574247D02*
X120516190Y-96526628D01*
X120516190Y-96526628D02*
X120325714Y-96479009D01*
X120325714Y-96479009D02*
X120230476Y-96431390D01*
X120230476Y-96431390D02*
X120182857Y-96383771D01*
X120182857Y-96383771D02*
X120135238Y-96288533D01*
X120135238Y-96288533D02*
X120135238Y-96193295D01*
X120135238Y-96193295D02*
X120182857Y-96098057D01*
X120182857Y-96098057D02*
X120230476Y-96050438D01*
X120230476Y-96050438D02*
X120325714Y-96002819D01*
X120325714Y-96002819D02*
X120563809Y-96002819D01*
X120563809Y-96002819D02*
X120706666Y-96050438D01*
X121135238Y-96479009D02*
X121468571Y-96479009D01*
X121611428Y-97002819D02*
X121135238Y-97002819D01*
X121135238Y-97002819D02*
X121135238Y-96002819D01*
X121135238Y-96002819D02*
X121611428Y-96002819D01*
X115004286Y-94344819D02*
X115004286Y-93344819D01*
X115004286Y-93821009D02*
X115575714Y-93821009D01*
X115575714Y-94344819D02*
X115575714Y-93344819D01*
X116004286Y-93440057D02*
X116051905Y-93392438D01*
X116051905Y-93392438D02*
X116147143Y-93344819D01*
X116147143Y-93344819D02*
X116385238Y-93344819D01*
X116385238Y-93344819D02*
X116480476Y-93392438D01*
X116480476Y-93392438D02*
X116528095Y-93440057D01*
X116528095Y-93440057D02*
X116575714Y-93535295D01*
X116575714Y-93535295D02*
X116575714Y-93630533D01*
X116575714Y-93630533D02*
X116528095Y-93773390D01*
X116528095Y-93773390D02*
X115956667Y-94344819D01*
X115956667Y-94344819D02*
X116575714Y-94344819D01*
X118337619Y-94344819D02*
X118004286Y-93868628D01*
X117766191Y-94344819D02*
X117766191Y-93344819D01*
X117766191Y-93344819D02*
X118147143Y-93344819D01*
X118147143Y-93344819D02*
X118242381Y-93392438D01*
X118242381Y-93392438D02*
X118290000Y-93440057D01*
X118290000Y-93440057D02*
X118337619Y-93535295D01*
X118337619Y-93535295D02*
X118337619Y-93678152D01*
X118337619Y-93678152D02*
X118290000Y-93773390D01*
X118290000Y-93773390D02*
X118242381Y-93821009D01*
X118242381Y-93821009D02*
X118147143Y-93868628D01*
X118147143Y-93868628D02*
X117766191Y-93868628D01*
X118766191Y-94344819D02*
X118766191Y-93344819D01*
X119766190Y-93392438D02*
X119670952Y-93344819D01*
X119670952Y-93344819D02*
X119528095Y-93344819D01*
X119528095Y-93344819D02*
X119385238Y-93392438D01*
X119385238Y-93392438D02*
X119290000Y-93487676D01*
X119290000Y-93487676D02*
X119242381Y-93582914D01*
X119242381Y-93582914D02*
X119194762Y-93773390D01*
X119194762Y-93773390D02*
X119194762Y-93916247D01*
X119194762Y-93916247D02*
X119242381Y-94106723D01*
X119242381Y-94106723D02*
X119290000Y-94201961D01*
X119290000Y-94201961D02*
X119385238Y-94297200D01*
X119385238Y-94297200D02*
X119528095Y-94344819D01*
X119528095Y-94344819D02*
X119623333Y-94344819D01*
X119623333Y-94344819D02*
X119766190Y-94297200D01*
X119766190Y-94297200D02*
X119813809Y-94249580D01*
X119813809Y-94249580D02*
X119813809Y-93916247D01*
X119813809Y-93916247D02*
X119623333Y-93916247D01*
X120242381Y-94344819D02*
X120242381Y-93344819D01*
X120242381Y-93821009D02*
X120813809Y-93821009D01*
X120813809Y-94344819D02*
X120813809Y-93344819D01*
X121147143Y-93344819D02*
X121718571Y-93344819D01*
X121432857Y-94344819D02*
X121432857Y-93344819D01*
X115154286Y-99494819D02*
X115154286Y-98494819D01*
X115154286Y-98971009D02*
X115725714Y-98971009D01*
X115725714Y-99494819D02*
X115725714Y-98494819D01*
X116725714Y-99494819D02*
X116154286Y-99494819D01*
X116440000Y-99494819D02*
X116440000Y-98494819D01*
X116440000Y-98494819D02*
X116344762Y-98637676D01*
X116344762Y-98637676D02*
X116249524Y-98732914D01*
X116249524Y-98732914D02*
X116154286Y-98780533D01*
X118487619Y-99494819D02*
X118154286Y-99018628D01*
X117916191Y-99494819D02*
X117916191Y-98494819D01*
X117916191Y-98494819D02*
X118297143Y-98494819D01*
X118297143Y-98494819D02*
X118392381Y-98542438D01*
X118392381Y-98542438D02*
X118440000Y-98590057D01*
X118440000Y-98590057D02*
X118487619Y-98685295D01*
X118487619Y-98685295D02*
X118487619Y-98828152D01*
X118487619Y-98828152D02*
X118440000Y-98923390D01*
X118440000Y-98923390D02*
X118392381Y-98971009D01*
X118392381Y-98971009D02*
X118297143Y-99018628D01*
X118297143Y-99018628D02*
X117916191Y-99018628D01*
X118916191Y-99494819D02*
X118916191Y-98494819D01*
X119916190Y-98542438D02*
X119820952Y-98494819D01*
X119820952Y-98494819D02*
X119678095Y-98494819D01*
X119678095Y-98494819D02*
X119535238Y-98542438D01*
X119535238Y-98542438D02*
X119440000Y-98637676D01*
X119440000Y-98637676D02*
X119392381Y-98732914D01*
X119392381Y-98732914D02*
X119344762Y-98923390D01*
X119344762Y-98923390D02*
X119344762Y-99066247D01*
X119344762Y-99066247D02*
X119392381Y-99256723D01*
X119392381Y-99256723D02*
X119440000Y-99351961D01*
X119440000Y-99351961D02*
X119535238Y-99447200D01*
X119535238Y-99447200D02*
X119678095Y-99494819D01*
X119678095Y-99494819D02*
X119773333Y-99494819D01*
X119773333Y-99494819D02*
X119916190Y-99447200D01*
X119916190Y-99447200D02*
X119963809Y-99399580D01*
X119963809Y-99399580D02*
X119963809Y-99066247D01*
X119963809Y-99066247D02*
X119773333Y-99066247D01*
X120392381Y-99494819D02*
X120392381Y-98494819D01*
X120392381Y-98971009D02*
X120963809Y-98971009D01*
X120963809Y-99494819D02*
X120963809Y-98494819D01*
X121297143Y-98494819D02*
X121868571Y-98494819D01*
X121582857Y-99494819D02*
X121582857Y-98494819D01*
X124854856Y-89382819D02*
X124521523Y-88906628D01*
X124283428Y-89382819D02*
X124283428Y-88382819D01*
X124283428Y-88382819D02*
X124664380Y-88382819D01*
X124664380Y-88382819D02*
X124759618Y-88430438D01*
X124759618Y-88430438D02*
X124807237Y-88478057D01*
X124807237Y-88478057D02*
X124854856Y-88573295D01*
X124854856Y-88573295D02*
X124854856Y-88716152D01*
X124854856Y-88716152D02*
X124807237Y-88811390D01*
X124807237Y-88811390D02*
X124759618Y-88859009D01*
X124759618Y-88859009D02*
X124664380Y-88906628D01*
X124664380Y-88906628D02*
X124283428Y-88906628D01*
X125664380Y-89335200D02*
X125569142Y-89382819D01*
X125569142Y-89382819D02*
X125378666Y-89382819D01*
X125378666Y-89382819D02*
X125283428Y-89335200D01*
X125283428Y-89335200D02*
X125235809Y-89239961D01*
X125235809Y-89239961D02*
X125235809Y-88859009D01*
X125235809Y-88859009D02*
X125283428Y-88763771D01*
X125283428Y-88763771D02*
X125378666Y-88716152D01*
X125378666Y-88716152D02*
X125569142Y-88716152D01*
X125569142Y-88716152D02*
X125664380Y-88763771D01*
X125664380Y-88763771D02*
X125711999Y-88859009D01*
X125711999Y-88859009D02*
X125711999Y-88954247D01*
X125711999Y-88954247D02*
X125235809Y-89049485D01*
X126045333Y-88716152D02*
X126283428Y-89382819D01*
X126283428Y-89382819D02*
X126521523Y-88716152D01*
X127616762Y-88478057D02*
X127664381Y-88430438D01*
X127664381Y-88430438D02*
X127759619Y-88382819D01*
X127759619Y-88382819D02*
X127997714Y-88382819D01*
X127997714Y-88382819D02*
X128092952Y-88430438D01*
X128092952Y-88430438D02*
X128140571Y-88478057D01*
X128140571Y-88478057D02*
X128188190Y-88573295D01*
X128188190Y-88573295D02*
X128188190Y-88668533D01*
X128188190Y-88668533D02*
X128140571Y-88811390D01*
X128140571Y-88811390D02*
X127569143Y-89382819D01*
X127569143Y-89382819D02*
X128188190Y-89382819D01*
X128230476Y-94844819D02*
X128230476Y-93844819D01*
X128230476Y-94321009D02*
X128801904Y-94321009D01*
X128801904Y-94844819D02*
X128801904Y-93844819D01*
X129230476Y-93940057D02*
X129278095Y-93892438D01*
X129278095Y-93892438D02*
X129373333Y-93844819D01*
X129373333Y-93844819D02*
X129611428Y-93844819D01*
X129611428Y-93844819D02*
X129706666Y-93892438D01*
X129706666Y-93892438D02*
X129754285Y-93940057D01*
X129754285Y-93940057D02*
X129801904Y-94035295D01*
X129801904Y-94035295D02*
X129801904Y-94130533D01*
X129801904Y-94130533D02*
X129754285Y-94273390D01*
X129754285Y-94273390D02*
X129182857Y-94844819D01*
X129182857Y-94844819D02*
X129801904Y-94844819D01*
X131468571Y-94844819D02*
X130992381Y-94844819D01*
X130992381Y-94844819D02*
X130992381Y-93844819D01*
X131801905Y-94321009D02*
X132135238Y-94321009D01*
X132278095Y-94844819D02*
X131801905Y-94844819D01*
X131801905Y-94844819D02*
X131801905Y-93844819D01*
X131801905Y-93844819D02*
X132278095Y-93844819D01*
X133040000Y-94321009D02*
X132706667Y-94321009D01*
X132706667Y-94844819D02*
X132706667Y-93844819D01*
X132706667Y-93844819D02*
X133182857Y-93844819D01*
X133420953Y-93844819D02*
X133992381Y-93844819D01*
X133706667Y-94844819D02*
X133706667Y-93844819D01*
X128430476Y-99494819D02*
X128430476Y-98494819D01*
X128430476Y-98971009D02*
X129001904Y-98971009D01*
X129001904Y-99494819D02*
X129001904Y-98494819D01*
X130001904Y-99494819D02*
X129430476Y-99494819D01*
X129716190Y-99494819D02*
X129716190Y-98494819D01*
X129716190Y-98494819D02*
X129620952Y-98637676D01*
X129620952Y-98637676D02*
X129525714Y-98732914D01*
X129525714Y-98732914D02*
X129430476Y-98780533D01*
X131668571Y-99494819D02*
X131192381Y-99494819D01*
X131192381Y-99494819D02*
X131192381Y-98494819D01*
X132001905Y-98971009D02*
X132335238Y-98971009D01*
X132478095Y-99494819D02*
X132001905Y-99494819D01*
X132001905Y-99494819D02*
X132001905Y-98494819D01*
X132001905Y-98494819D02*
X132478095Y-98494819D01*
X133240000Y-98971009D02*
X132906667Y-98971009D01*
X132906667Y-99494819D02*
X132906667Y-98494819D01*
X132906667Y-98494819D02*
X133382857Y-98494819D01*
X133620953Y-98494819D02*
X134192381Y-98494819D01*
X133906667Y-99494819D02*
X133906667Y-98494819D01*
X128266190Y-97002819D02*
X128266190Y-96002819D01*
X128266190Y-96479009D02*
X128837618Y-96479009D01*
X128837618Y-97002819D02*
X128837618Y-96002819D01*
X129837618Y-97002819D02*
X129266190Y-97002819D01*
X129551904Y-97002819D02*
X129551904Y-96002819D01*
X129551904Y-96002819D02*
X129456666Y-96145676D01*
X129456666Y-96145676D02*
X129361428Y-96240914D01*
X129361428Y-96240914D02*
X129266190Y-96288533D01*
X130980476Y-96955200D02*
X131123333Y-97002819D01*
X131123333Y-97002819D02*
X131361428Y-97002819D01*
X131361428Y-97002819D02*
X131456666Y-96955200D01*
X131456666Y-96955200D02*
X131504285Y-96907580D01*
X131504285Y-96907580D02*
X131551904Y-96812342D01*
X131551904Y-96812342D02*
X131551904Y-96717104D01*
X131551904Y-96717104D02*
X131504285Y-96621866D01*
X131504285Y-96621866D02*
X131456666Y-96574247D01*
X131456666Y-96574247D02*
X131361428Y-96526628D01*
X131361428Y-96526628D02*
X131170952Y-96479009D01*
X131170952Y-96479009D02*
X131075714Y-96431390D01*
X131075714Y-96431390D02*
X131028095Y-96383771D01*
X131028095Y-96383771D02*
X130980476Y-96288533D01*
X130980476Y-96288533D02*
X130980476Y-96193295D01*
X130980476Y-96193295D02*
X131028095Y-96098057D01*
X131028095Y-96098057D02*
X131075714Y-96050438D01*
X131075714Y-96050438D02*
X131170952Y-96002819D01*
X131170952Y-96002819D02*
X131409047Y-96002819D01*
X131409047Y-96002819D02*
X131551904Y-96050438D01*
X131980476Y-96479009D02*
X132313809Y-96479009D01*
X132456666Y-97002819D02*
X131980476Y-97002819D01*
X131980476Y-97002819D02*
X131980476Y-96002819D01*
X131980476Y-96002819D02*
X132456666Y-96002819D01*
X132885238Y-97002819D02*
X132885238Y-96002819D01*
X132885238Y-96002819D02*
X133456666Y-97002819D01*
X133456666Y-97002819D02*
X133456666Y-96002819D01*
X133885238Y-96955200D02*
X134028095Y-97002819D01*
X134028095Y-97002819D02*
X134266190Y-97002819D01*
X134266190Y-97002819D02*
X134361428Y-96955200D01*
X134361428Y-96955200D02*
X134409047Y-96907580D01*
X134409047Y-96907580D02*
X134456666Y-96812342D01*
X134456666Y-96812342D02*
X134456666Y-96717104D01*
X134456666Y-96717104D02*
X134409047Y-96621866D01*
X134409047Y-96621866D02*
X134361428Y-96574247D01*
X134361428Y-96574247D02*
X134266190Y-96526628D01*
X134266190Y-96526628D02*
X134075714Y-96479009D01*
X134075714Y-96479009D02*
X133980476Y-96431390D01*
X133980476Y-96431390D02*
X133932857Y-96383771D01*
X133932857Y-96383771D02*
X133885238Y-96288533D01*
X133885238Y-96288533D02*
X133885238Y-96193295D01*
X133885238Y-96193295D02*
X133932857Y-96098057D01*
X133932857Y-96098057D02*
X133980476Y-96050438D01*
X133980476Y-96050438D02*
X134075714Y-96002819D01*
X134075714Y-96002819D02*
X134313809Y-96002819D01*
X134313809Y-96002819D02*
X134456666Y-96050438D01*
X134885238Y-96479009D02*
X135218571Y-96479009D01*
X135361428Y-97002819D02*
X134885238Y-97002819D01*
X134885238Y-97002819D02*
X134885238Y-96002819D01*
X134885238Y-96002819D02*
X135361428Y-96002819D01*
X133278095Y-101142438D02*
X133182857Y-101094819D01*
X133182857Y-101094819D02*
X133040000Y-101094819D01*
X133040000Y-101094819D02*
X132897143Y-101142438D01*
X132897143Y-101142438D02*
X132801905Y-101237676D01*
X132801905Y-101237676D02*
X132754286Y-101332914D01*
X132754286Y-101332914D02*
X132706667Y-101523390D01*
X132706667Y-101523390D02*
X132706667Y-101666247D01*
X132706667Y-101666247D02*
X132754286Y-101856723D01*
X132754286Y-101856723D02*
X132801905Y-101951961D01*
X132801905Y-101951961D02*
X132897143Y-102047200D01*
X132897143Y-102047200D02*
X133040000Y-102094819D01*
X133040000Y-102094819D02*
X133135238Y-102094819D01*
X133135238Y-102094819D02*
X133278095Y-102047200D01*
X133278095Y-102047200D02*
X133325714Y-101999580D01*
X133325714Y-101999580D02*
X133325714Y-101666247D01*
X133325714Y-101666247D02*
X133135238Y-101666247D01*
X133754286Y-102094819D02*
X133754286Y-101094819D01*
X133754286Y-101094819D02*
X134325714Y-102094819D01*
X134325714Y-102094819D02*
X134325714Y-101094819D01*
X134801905Y-102094819D02*
X134801905Y-101094819D01*
X134801905Y-101094819D02*
X135040000Y-101094819D01*
X135040000Y-101094819D02*
X135182857Y-101142438D01*
X135182857Y-101142438D02*
X135278095Y-101237676D01*
X135278095Y-101237676D02*
X135325714Y-101332914D01*
X135325714Y-101332914D02*
X135373333Y-101523390D01*
X135373333Y-101523390D02*
X135373333Y-101666247D01*
X135373333Y-101666247D02*
X135325714Y-101856723D01*
X135325714Y-101856723D02*
X135278095Y-101951961D01*
X135278095Y-101951961D02*
X135182857Y-102047200D01*
X135182857Y-102047200D02*
X135040000Y-102094819D01*
X135040000Y-102094819D02*
X134801905Y-102094819D01*
X134340095Y-115100438D02*
X134244857Y-115052819D01*
X134244857Y-115052819D02*
X134102000Y-115052819D01*
X134102000Y-115052819D02*
X133959143Y-115100438D01*
X133959143Y-115100438D02*
X133863905Y-115195676D01*
X133863905Y-115195676D02*
X133816286Y-115290914D01*
X133816286Y-115290914D02*
X133768667Y-115481390D01*
X133768667Y-115481390D02*
X133768667Y-115624247D01*
X133768667Y-115624247D02*
X133816286Y-115814723D01*
X133816286Y-115814723D02*
X133863905Y-115909961D01*
X133863905Y-115909961D02*
X133959143Y-116005200D01*
X133959143Y-116005200D02*
X134102000Y-116052819D01*
X134102000Y-116052819D02*
X134197238Y-116052819D01*
X134197238Y-116052819D02*
X134340095Y-116005200D01*
X134340095Y-116005200D02*
X134387714Y-115957580D01*
X134387714Y-115957580D02*
X134387714Y-115624247D01*
X134387714Y-115624247D02*
X134197238Y-115624247D01*
X134816286Y-116052819D02*
X134816286Y-115052819D01*
X134816286Y-115052819D02*
X135387714Y-116052819D01*
X135387714Y-116052819D02*
X135387714Y-115052819D01*
X135863905Y-116052819D02*
X135863905Y-115052819D01*
X135863905Y-115052819D02*
X136102000Y-115052819D01*
X136102000Y-115052819D02*
X136244857Y-115100438D01*
X136244857Y-115100438D02*
X136340095Y-115195676D01*
X136340095Y-115195676D02*
X136387714Y-115290914D01*
X136387714Y-115290914D02*
X136435333Y-115481390D01*
X136435333Y-115481390D02*
X136435333Y-115624247D01*
X136435333Y-115624247D02*
X136387714Y-115814723D01*
X136387714Y-115814723D02*
X136340095Y-115909961D01*
X136340095Y-115909961D02*
X136244857Y-116005200D01*
X136244857Y-116005200D02*
X136102000Y-116052819D01*
X136102000Y-116052819D02*
X135863905Y-116052819D01*
X138126286Y-115671866D02*
X138888191Y-115671866D01*
X139840571Y-116052819D02*
X139364381Y-116052819D01*
X139364381Y-116052819D02*
X139364381Y-115052819D01*
X138254286Y-101713866D02*
X139016191Y-101713866D01*
X139968571Y-102094819D02*
X139492381Y-102094819D01*
X139492381Y-102094819D02*
X139492381Y-101094819D01*
X139301905Y-99940057D02*
X139349524Y-99892438D01*
X139349524Y-99892438D02*
X139444762Y-99844819D01*
X139444762Y-99844819D02*
X139682857Y-99844819D01*
X139682857Y-99844819D02*
X139778095Y-99892438D01*
X139778095Y-99892438D02*
X139825714Y-99940057D01*
X139825714Y-99940057D02*
X139873333Y-100035295D01*
X139873333Y-100035295D02*
X139873333Y-100130533D01*
X139873333Y-100130533D02*
X139825714Y-100273390D01*
X139825714Y-100273390D02*
X139254286Y-100844819D01*
X139254286Y-100844819D02*
X139873333Y-100844819D01*
X140254286Y-99940057D02*
X140301905Y-99892438D01*
X140301905Y-99892438D02*
X140397143Y-99844819D01*
X140397143Y-99844819D02*
X140635238Y-99844819D01*
X140635238Y-99844819D02*
X140730476Y-99892438D01*
X140730476Y-99892438D02*
X140778095Y-99940057D01*
X140778095Y-99940057D02*
X140825714Y-100035295D01*
X140825714Y-100035295D02*
X140825714Y-100130533D01*
X140825714Y-100130533D02*
X140778095Y-100273390D01*
X140778095Y-100273390D02*
X140206667Y-100844819D01*
X140206667Y-100844819D02*
X140825714Y-100844819D01*
X141444762Y-99844819D02*
X141540000Y-99844819D01*
X141540000Y-99844819D02*
X141635238Y-99892438D01*
X141635238Y-99892438D02*
X141682857Y-99940057D01*
X141682857Y-99940057D02*
X141730476Y-100035295D01*
X141730476Y-100035295D02*
X141778095Y-100225771D01*
X141778095Y-100225771D02*
X141778095Y-100463866D01*
X141778095Y-100463866D02*
X141730476Y-100654342D01*
X141730476Y-100654342D02*
X141682857Y-100749580D01*
X141682857Y-100749580D02*
X141635238Y-100797200D01*
X141635238Y-100797200D02*
X141540000Y-100844819D01*
X141540000Y-100844819D02*
X141444762Y-100844819D01*
X141444762Y-100844819D02*
X141349524Y-100797200D01*
X141349524Y-100797200D02*
X141301905Y-100749580D01*
X141301905Y-100749580D02*
X141254286Y-100654342D01*
X141254286Y-100654342D02*
X141206667Y-100463866D01*
X141206667Y-100463866D02*
X141206667Y-100225771D01*
X141206667Y-100225771D02*
X141254286Y-100035295D01*
X141254286Y-100035295D02*
X141301905Y-99940057D01*
X141301905Y-99940057D02*
X141349524Y-99892438D01*
X141349524Y-99892438D02*
X141444762Y-99844819D01*
X143206286Y-115671866D02*
X143968191Y-115671866D01*
X143587238Y-116052819D02*
X143587238Y-115290914D01*
X144920571Y-116052819D02*
X144444381Y-116052819D01*
X144444381Y-116052819D02*
X144444381Y-115052819D01*
X143254286Y-101713866D02*
X144016191Y-101713866D01*
X143635238Y-102094819D02*
X143635238Y-101332914D01*
X144968571Y-102094819D02*
X144492381Y-102094819D01*
X144492381Y-102094819D02*
X144492381Y-101094819D01*
X141666762Y-113465200D02*
X141809619Y-113512819D01*
X141809619Y-113512819D02*
X142047714Y-113512819D01*
X142047714Y-113512819D02*
X142142952Y-113465200D01*
X142142952Y-113465200D02*
X142190571Y-113417580D01*
X142190571Y-113417580D02*
X142238190Y-113322342D01*
X142238190Y-113322342D02*
X142238190Y-113227104D01*
X142238190Y-113227104D02*
X142190571Y-113131866D01*
X142190571Y-113131866D02*
X142142952Y-113084247D01*
X142142952Y-113084247D02*
X142047714Y-113036628D01*
X142047714Y-113036628D02*
X141857238Y-112989009D01*
X141857238Y-112989009D02*
X141762000Y-112941390D01*
X141762000Y-112941390D02*
X141714381Y-112893771D01*
X141714381Y-112893771D02*
X141666762Y-112798533D01*
X141666762Y-112798533D02*
X141666762Y-112703295D01*
X141666762Y-112703295D02*
X141714381Y-112608057D01*
X141714381Y-112608057D02*
X141762000Y-112560438D01*
X141762000Y-112560438D02*
X141857238Y-112512819D01*
X141857238Y-112512819D02*
X142095333Y-112512819D01*
X142095333Y-112512819D02*
X142238190Y-112560438D01*
X142666762Y-113512819D02*
X142666762Y-112512819D01*
X142666762Y-112512819D02*
X143047714Y-112512819D01*
X143047714Y-112512819D02*
X143142952Y-112560438D01*
X143142952Y-112560438D02*
X143190571Y-112608057D01*
X143190571Y-112608057D02*
X143238190Y-112703295D01*
X143238190Y-112703295D02*
X143238190Y-112846152D01*
X143238190Y-112846152D02*
X143190571Y-112941390D01*
X143190571Y-112941390D02*
X143142952Y-112989009D01*
X143142952Y-112989009D02*
X143047714Y-113036628D01*
X143047714Y-113036628D02*
X142666762Y-113036628D01*
X143666762Y-112989009D02*
X144000095Y-112989009D01*
X144142952Y-113512819D02*
X143666762Y-113512819D01*
X143666762Y-113512819D02*
X143666762Y-112512819D01*
X143666762Y-112512819D02*
X144142952Y-112512819D01*
X144523905Y-113227104D02*
X145000095Y-113227104D01*
X144428667Y-113512819D02*
X144762000Y-112512819D01*
X144762000Y-112512819D02*
X145095333Y-113512819D01*
X145428667Y-113512819D02*
X145428667Y-112512819D01*
X146000095Y-113512819D02*
X145571524Y-112941390D01*
X146000095Y-112512819D02*
X145428667Y-113084247D01*
X146428667Y-112989009D02*
X146762000Y-112989009D01*
X146904857Y-113512819D02*
X146428667Y-113512819D01*
X146428667Y-113512819D02*
X146428667Y-112512819D01*
X146428667Y-112512819D02*
X146904857Y-112512819D01*
X147904857Y-113512819D02*
X147571524Y-113036628D01*
X147333429Y-113512819D02*
X147333429Y-112512819D01*
X147333429Y-112512819D02*
X147714381Y-112512819D01*
X147714381Y-112512819D02*
X147809619Y-112560438D01*
X147809619Y-112560438D02*
X147857238Y-112608057D01*
X147857238Y-112608057D02*
X147904857Y-112703295D01*
X147904857Y-112703295D02*
X147904857Y-112846152D01*
X147904857Y-112846152D02*
X147857238Y-112941390D01*
X147857238Y-112941390D02*
X147809619Y-112989009D01*
X147809619Y-112989009D02*
X147714381Y-113036628D01*
X147714381Y-113036628D02*
X147333429Y-113036628D01*
X148285810Y-113465200D02*
X148428667Y-113512819D01*
X148428667Y-113512819D02*
X148666762Y-113512819D01*
X148666762Y-113512819D02*
X148762000Y-113465200D01*
X148762000Y-113465200D02*
X148809619Y-113417580D01*
X148809619Y-113417580D02*
X148857238Y-113322342D01*
X148857238Y-113322342D02*
X148857238Y-113227104D01*
X148857238Y-113227104D02*
X148809619Y-113131866D01*
X148809619Y-113131866D02*
X148762000Y-113084247D01*
X148762000Y-113084247D02*
X148666762Y-113036628D01*
X148666762Y-113036628D02*
X148476286Y-112989009D01*
X148476286Y-112989009D02*
X148381048Y-112941390D01*
X148381048Y-112941390D02*
X148333429Y-112893771D01*
X148333429Y-112893771D02*
X148285810Y-112798533D01*
X148285810Y-112798533D02*
X148285810Y-112703295D01*
X148285810Y-112703295D02*
X148333429Y-112608057D01*
X148333429Y-112608057D02*
X148381048Y-112560438D01*
X148381048Y-112560438D02*
X148476286Y-112512819D01*
X148476286Y-112512819D02*
X148714381Y-112512819D01*
X148714381Y-112512819D02*
X148857238Y-112560438D01*
X148159048Y-101713866D02*
X148920953Y-101713866D01*
X149968571Y-102094819D02*
X149635238Y-101618628D01*
X149397143Y-102094819D02*
X149397143Y-101094819D01*
X149397143Y-101094819D02*
X149778095Y-101094819D01*
X149778095Y-101094819D02*
X149873333Y-101142438D01*
X149873333Y-101142438D02*
X149920952Y-101190057D01*
X149920952Y-101190057D02*
X149968571Y-101285295D01*
X149968571Y-101285295D02*
X149968571Y-101428152D01*
X149968571Y-101428152D02*
X149920952Y-101523390D01*
X149920952Y-101523390D02*
X149873333Y-101571009D01*
X149873333Y-101571009D02*
X149778095Y-101618628D01*
X149778095Y-101618628D02*
X149397143Y-101618628D01*
X148191048Y-115671866D02*
X148952953Y-115671866D01*
X150000571Y-116052819D02*
X149667238Y-115576628D01*
X149429143Y-116052819D02*
X149429143Y-115052819D01*
X149429143Y-115052819D02*
X149810095Y-115052819D01*
X149810095Y-115052819D02*
X149905333Y-115100438D01*
X149905333Y-115100438D02*
X149952952Y-115148057D01*
X149952952Y-115148057D02*
X150000571Y-115243295D01*
X150000571Y-115243295D02*
X150000571Y-115386152D01*
X150000571Y-115386152D02*
X149952952Y-115481390D01*
X149952952Y-115481390D02*
X149905333Y-115529009D01*
X149905333Y-115529009D02*
X149810095Y-115576628D01*
X149810095Y-115576628D02*
X149429143Y-115576628D01*
X151801905Y-99940057D02*
X151849524Y-99892438D01*
X151849524Y-99892438D02*
X151944762Y-99844819D01*
X151944762Y-99844819D02*
X152182857Y-99844819D01*
X152182857Y-99844819D02*
X152278095Y-99892438D01*
X152278095Y-99892438D02*
X152325714Y-99940057D01*
X152325714Y-99940057D02*
X152373333Y-100035295D01*
X152373333Y-100035295D02*
X152373333Y-100130533D01*
X152373333Y-100130533D02*
X152325714Y-100273390D01*
X152325714Y-100273390D02*
X151754286Y-100844819D01*
X151754286Y-100844819D02*
X152373333Y-100844819D01*
X152754286Y-99940057D02*
X152801905Y-99892438D01*
X152801905Y-99892438D02*
X152897143Y-99844819D01*
X152897143Y-99844819D02*
X153135238Y-99844819D01*
X153135238Y-99844819D02*
X153230476Y-99892438D01*
X153230476Y-99892438D02*
X153278095Y-99940057D01*
X153278095Y-99940057D02*
X153325714Y-100035295D01*
X153325714Y-100035295D02*
X153325714Y-100130533D01*
X153325714Y-100130533D02*
X153278095Y-100273390D01*
X153278095Y-100273390D02*
X152706667Y-100844819D01*
X152706667Y-100844819D02*
X153325714Y-100844819D01*
X153944762Y-99844819D02*
X154040000Y-99844819D01*
X154040000Y-99844819D02*
X154135238Y-99892438D01*
X154135238Y-99892438D02*
X154182857Y-99940057D01*
X154182857Y-99940057D02*
X154230476Y-100035295D01*
X154230476Y-100035295D02*
X154278095Y-100225771D01*
X154278095Y-100225771D02*
X154278095Y-100463866D01*
X154278095Y-100463866D02*
X154230476Y-100654342D01*
X154230476Y-100654342D02*
X154182857Y-100749580D01*
X154182857Y-100749580D02*
X154135238Y-100797200D01*
X154135238Y-100797200D02*
X154040000Y-100844819D01*
X154040000Y-100844819D02*
X153944762Y-100844819D01*
X153944762Y-100844819D02*
X153849524Y-100797200D01*
X153849524Y-100797200D02*
X153801905Y-100749580D01*
X153801905Y-100749580D02*
X153754286Y-100654342D01*
X153754286Y-100654342D02*
X153706667Y-100463866D01*
X153706667Y-100463866D02*
X153706667Y-100225771D01*
X153706667Y-100225771D02*
X153754286Y-100035295D01*
X153754286Y-100035295D02*
X153801905Y-99940057D01*
X153801905Y-99940057D02*
X153849524Y-99892438D01*
X153849524Y-99892438D02*
X153944762Y-99844819D01*
X153271048Y-115671866D02*
X154032953Y-115671866D01*
X153652000Y-116052819D02*
X153652000Y-115290914D01*
X155080571Y-116052819D02*
X154747238Y-115576628D01*
X154509143Y-116052819D02*
X154509143Y-115052819D01*
X154509143Y-115052819D02*
X154890095Y-115052819D01*
X154890095Y-115052819D02*
X154985333Y-115100438D01*
X154985333Y-115100438D02*
X155032952Y-115148057D01*
X155032952Y-115148057D02*
X155080571Y-115243295D01*
X155080571Y-115243295D02*
X155080571Y-115386152D01*
X155080571Y-115386152D02*
X155032952Y-115481390D01*
X155032952Y-115481390D02*
X154985333Y-115529009D01*
X154985333Y-115529009D02*
X154890095Y-115576628D01*
X154890095Y-115576628D02*
X154509143Y-115576628D01*
X154159048Y-101713866D02*
X154920953Y-101713866D01*
X154540000Y-102094819D02*
X154540000Y-101332914D01*
X155968571Y-102094819D02*
X155635238Y-101618628D01*
X155397143Y-102094819D02*
X155397143Y-101094819D01*
X155397143Y-101094819D02*
X155778095Y-101094819D01*
X155778095Y-101094819D02*
X155873333Y-101142438D01*
X155873333Y-101142438D02*
X155920952Y-101190057D01*
X155920952Y-101190057D02*
X155968571Y-101285295D01*
X155968571Y-101285295D02*
X155968571Y-101428152D01*
X155968571Y-101428152D02*
X155920952Y-101523390D01*
X155920952Y-101523390D02*
X155873333Y-101571009D01*
X155873333Y-101571009D02*
X155778095Y-101618628D01*
X155778095Y-101618628D02*
X155397143Y-101618628D01*
X157623333Y-94190057D02*
X157670952Y-94142438D01*
X157670952Y-94142438D02*
X157766190Y-94094819D01*
X157766190Y-94094819D02*
X158004285Y-94094819D01*
X158004285Y-94094819D02*
X158099523Y-94142438D01*
X158099523Y-94142438D02*
X158147142Y-94190057D01*
X158147142Y-94190057D02*
X158194761Y-94285295D01*
X158194761Y-94285295D02*
X158194761Y-94380533D01*
X158194761Y-94380533D02*
X158147142Y-94523390D01*
X158147142Y-94523390D02*
X157575714Y-95094819D01*
X157575714Y-95094819D02*
X158194761Y-95094819D01*
X158623333Y-95094819D02*
X158623333Y-94094819D01*
X158718571Y-94713866D02*
X159004285Y-95094819D01*
X159004285Y-94428152D02*
X158623333Y-94809104D01*
X159385238Y-94190057D02*
X159432857Y-94142438D01*
X159432857Y-94142438D02*
X159528095Y-94094819D01*
X159528095Y-94094819D02*
X159766190Y-94094819D01*
X159766190Y-94094819D02*
X159861428Y-94142438D01*
X159861428Y-94142438D02*
X159909047Y-94190057D01*
X159909047Y-94190057D02*
X159956666Y-94285295D01*
X159956666Y-94285295D02*
X159956666Y-94380533D01*
X159956666Y-94380533D02*
X159909047Y-94523390D01*
X159909047Y-94523390D02*
X159337619Y-95094819D01*
X159337619Y-95094819D02*
X159956666Y-95094819D01*
X163944761Y-92394819D02*
X163373333Y-92394819D01*
X163659047Y-92394819D02*
X163659047Y-91394819D01*
X163659047Y-91394819D02*
X163563809Y-91537676D01*
X163563809Y-91537676D02*
X163468571Y-91632914D01*
X163468571Y-91632914D02*
X163373333Y-91680533D01*
X164801904Y-91728152D02*
X164801904Y-92394819D01*
X164373333Y-91728152D02*
X164373333Y-92251961D01*
X164373333Y-92251961D02*
X164420952Y-92347200D01*
X164420952Y-92347200D02*
X164516190Y-92394819D01*
X164516190Y-92394819D02*
X164659047Y-92394819D01*
X164659047Y-92394819D02*
X164754285Y-92347200D01*
X164754285Y-92347200D02*
X164801904Y-92299580D01*
X165611428Y-91871009D02*
X165278095Y-91871009D01*
X165278095Y-92394819D02*
X165278095Y-91394819D01*
X165278095Y-91394819D02*
X165754285Y-91394819D01*
X159744819Y-115759046D02*
X158744819Y-115759046D01*
X158744819Y-115759046D02*
X159459104Y-115425713D01*
X159459104Y-115425713D02*
X158744819Y-115092380D01*
X158744819Y-115092380D02*
X159744819Y-115092380D01*
X159744819Y-114616189D02*
X158744819Y-114616189D01*
X159649580Y-113568571D02*
X159697200Y-113616190D01*
X159697200Y-113616190D02*
X159744819Y-113759047D01*
X159744819Y-113759047D02*
X159744819Y-113854285D01*
X159744819Y-113854285D02*
X159697200Y-113997142D01*
X159697200Y-113997142D02*
X159601961Y-114092380D01*
X159601961Y-114092380D02*
X159506723Y-114139999D01*
X159506723Y-114139999D02*
X159316247Y-114187618D01*
X159316247Y-114187618D02*
X159173390Y-114187618D01*
X159173390Y-114187618D02*
X158982914Y-114139999D01*
X158982914Y-114139999D02*
X158887676Y-114092380D01*
X158887676Y-114092380D02*
X158792438Y-113997142D01*
X158792438Y-113997142D02*
X158744819Y-113854285D01*
X158744819Y-113854285D02*
X158744819Y-113759047D01*
X158744819Y-113759047D02*
X158792438Y-113616190D01*
X158792438Y-113616190D02*
X158840057Y-113568571D01*
X159744819Y-112568571D02*
X159268628Y-112901904D01*
X159744819Y-113139999D02*
X158744819Y-113139999D01*
X158744819Y-113139999D02*
X158744819Y-112759047D01*
X158744819Y-112759047D02*
X158792438Y-112663809D01*
X158792438Y-112663809D02*
X158840057Y-112616190D01*
X158840057Y-112616190D02*
X158935295Y-112568571D01*
X158935295Y-112568571D02*
X159078152Y-112568571D01*
X159078152Y-112568571D02*
X159173390Y-112616190D01*
X159173390Y-112616190D02*
X159221009Y-112663809D01*
X159221009Y-112663809D02*
X159268628Y-112759047D01*
X159268628Y-112759047D02*
X159268628Y-113139999D01*
X158744819Y-111949523D02*
X158744819Y-111759047D01*
X158744819Y-111759047D02*
X158792438Y-111663809D01*
X158792438Y-111663809D02*
X158887676Y-111568571D01*
X158887676Y-111568571D02*
X159078152Y-111520952D01*
X159078152Y-111520952D02*
X159411485Y-111520952D01*
X159411485Y-111520952D02*
X159601961Y-111568571D01*
X159601961Y-111568571D02*
X159697200Y-111663809D01*
X159697200Y-111663809D02*
X159744819Y-111759047D01*
X159744819Y-111759047D02*
X159744819Y-111949523D01*
X159744819Y-111949523D02*
X159697200Y-112044761D01*
X159697200Y-112044761D02*
X159601961Y-112139999D01*
X159601961Y-112139999D02*
X159411485Y-112187618D01*
X159411485Y-112187618D02*
X159078152Y-112187618D01*
X159078152Y-112187618D02*
X158887676Y-112139999D01*
X158887676Y-112139999D02*
X158792438Y-112044761D01*
X158792438Y-112044761D02*
X158744819Y-111949523D01*
X159744819Y-111092380D02*
X158744819Y-111092380D01*
X158744819Y-111092380D02*
X158744819Y-110711428D01*
X158744819Y-110711428D02*
X158792438Y-110616190D01*
X158792438Y-110616190D02*
X158840057Y-110568571D01*
X158840057Y-110568571D02*
X158935295Y-110520952D01*
X158935295Y-110520952D02*
X159078152Y-110520952D01*
X159078152Y-110520952D02*
X159173390Y-110568571D01*
X159173390Y-110568571D02*
X159221009Y-110616190D01*
X159221009Y-110616190D02*
X159268628Y-110711428D01*
X159268628Y-110711428D02*
X159268628Y-111092380D01*
X159744819Y-110092380D02*
X158744819Y-110092380D01*
X159221009Y-110092380D02*
X159221009Y-109520952D01*
X159744819Y-109520952D02*
X158744819Y-109520952D01*
X158744819Y-108854285D02*
X158744819Y-108663809D01*
X158744819Y-108663809D02*
X158792438Y-108568571D01*
X158792438Y-108568571D02*
X158887676Y-108473333D01*
X158887676Y-108473333D02*
X159078152Y-108425714D01*
X159078152Y-108425714D02*
X159411485Y-108425714D01*
X159411485Y-108425714D02*
X159601961Y-108473333D01*
X159601961Y-108473333D02*
X159697200Y-108568571D01*
X159697200Y-108568571D02*
X159744819Y-108663809D01*
X159744819Y-108663809D02*
X159744819Y-108854285D01*
X159744819Y-108854285D02*
X159697200Y-108949523D01*
X159697200Y-108949523D02*
X159601961Y-109044761D01*
X159601961Y-109044761D02*
X159411485Y-109092380D01*
X159411485Y-109092380D02*
X159078152Y-109092380D01*
X159078152Y-109092380D02*
X158887676Y-109044761D01*
X158887676Y-109044761D02*
X158792438Y-108949523D01*
X158792438Y-108949523D02*
X158744819Y-108854285D01*
X159744819Y-107997142D02*
X158744819Y-107997142D01*
X158744819Y-107997142D02*
X159744819Y-107425714D01*
X159744819Y-107425714D02*
X158744819Y-107425714D01*
X159221009Y-106949523D02*
X159221009Y-106616190D01*
X159744819Y-106473333D02*
X159744819Y-106949523D01*
X159744819Y-106949523D02*
X158744819Y-106949523D01*
X158744819Y-106949523D02*
X158744819Y-106473333D01*
X109410095Y-91992819D02*
X109410095Y-90992819D01*
X109410095Y-91469009D02*
X109981523Y-91469009D01*
X109981523Y-91992819D02*
X109981523Y-90992819D01*
X110981523Y-91992819D02*
X110410095Y-91992819D01*
X110695809Y-91992819D02*
X110695809Y-90992819D01*
X110695809Y-90992819D02*
X110600571Y-91135676D01*
X110600571Y-91135676D02*
X110505333Y-91230914D01*
X110505333Y-91230914D02*
X110410095Y-91278533D01*
X152715333Y-95902819D02*
X152382000Y-95426628D01*
X152143905Y-95902819D02*
X152143905Y-94902819D01*
X152143905Y-94902819D02*
X152524857Y-94902819D01*
X152524857Y-94902819D02*
X152620095Y-94950438D01*
X152620095Y-94950438D02*
X152667714Y-94998057D01*
X152667714Y-94998057D02*
X152715333Y-95093295D01*
X152715333Y-95093295D02*
X152715333Y-95236152D01*
X152715333Y-95236152D02*
X152667714Y-95331390D01*
X152667714Y-95331390D02*
X152620095Y-95379009D01*
X152620095Y-95379009D02*
X152524857Y-95426628D01*
X152524857Y-95426628D02*
X152143905Y-95426628D01*
X153096286Y-94998057D02*
X153143905Y-94950438D01*
X153143905Y-94950438D02*
X153239143Y-94902819D01*
X153239143Y-94902819D02*
X153477238Y-94902819D01*
X153477238Y-94902819D02*
X153572476Y-94950438D01*
X153572476Y-94950438D02*
X153620095Y-94998057D01*
X153620095Y-94998057D02*
X153667714Y-95093295D01*
X153667714Y-95093295D02*
X153667714Y-95188533D01*
X153667714Y-95188533D02*
X153620095Y-95331390D01*
X153620095Y-95331390D02*
X153048667Y-95902819D01*
X153048667Y-95902819D02*
X153667714Y-95902819D01*
X169744819Y-98151333D02*
X170459104Y-98151333D01*
X170459104Y-98151333D02*
X170601961Y-98198952D01*
X170601961Y-98198952D02*
X170697200Y-98294190D01*
X170697200Y-98294190D02*
X170744819Y-98437047D01*
X170744819Y-98437047D02*
X170744819Y-98532285D01*
X169744819Y-97770380D02*
X169744819Y-97151333D01*
X169744819Y-97151333D02*
X170125771Y-97484666D01*
X170125771Y-97484666D02*
X170125771Y-97341809D01*
X170125771Y-97341809D02*
X170173390Y-97246571D01*
X170173390Y-97246571D02*
X170221009Y-97198952D01*
X170221009Y-97198952D02*
X170316247Y-97151333D01*
X170316247Y-97151333D02*
X170554342Y-97151333D01*
X170554342Y-97151333D02*
X170649580Y-97198952D01*
X170649580Y-97198952D02*
X170697200Y-97246571D01*
X170697200Y-97246571D02*
X170744819Y-97341809D01*
X170744819Y-97341809D02*
X170744819Y-97627523D01*
X170744819Y-97627523D02*
X170697200Y-97722761D01*
X170697200Y-97722761D02*
X170649580Y-97770380D01*
X140015333Y-95902819D02*
X139682000Y-95426628D01*
X139443905Y-95902819D02*
X139443905Y-94902819D01*
X139443905Y-94902819D02*
X139824857Y-94902819D01*
X139824857Y-94902819D02*
X139920095Y-94950438D01*
X139920095Y-94950438D02*
X139967714Y-94998057D01*
X139967714Y-94998057D02*
X140015333Y-95093295D01*
X140015333Y-95093295D02*
X140015333Y-95236152D01*
X140015333Y-95236152D02*
X139967714Y-95331390D01*
X139967714Y-95331390D02*
X139920095Y-95379009D01*
X139920095Y-95379009D02*
X139824857Y-95426628D01*
X139824857Y-95426628D02*
X139443905Y-95426628D01*
X140967714Y-95902819D02*
X140396286Y-95902819D01*
X140682000Y-95902819D02*
X140682000Y-94902819D01*
X140682000Y-94902819D02*
X140586762Y-95045676D01*
X140586762Y-95045676D02*
X140491524Y-95140914D01*
X140491524Y-95140914D02*
X140396286Y-95188533D01*
X124608666Y-89652819D02*
X124608666Y-90367104D01*
X124608666Y-90367104D02*
X124561047Y-90509961D01*
X124561047Y-90509961D02*
X124465809Y-90605200D01*
X124465809Y-90605200D02*
X124322952Y-90652819D01*
X124322952Y-90652819D02*
X124227714Y-90652819D01*
X125513428Y-89986152D02*
X125513428Y-90652819D01*
X125275333Y-89605200D02*
X125037238Y-90319485D01*
X125037238Y-90319485D02*
X125656285Y-90319485D01*
X158706666Y-105094819D02*
X158706666Y-105809104D01*
X158706666Y-105809104D02*
X158659047Y-105951961D01*
X158659047Y-105951961D02*
X158563809Y-106047200D01*
X158563809Y-106047200D02*
X158420952Y-106094819D01*
X158420952Y-106094819D02*
X158325714Y-106094819D01*
X159135238Y-105190057D02*
X159182857Y-105142438D01*
X159182857Y-105142438D02*
X159278095Y-105094819D01*
X159278095Y-105094819D02*
X159516190Y-105094819D01*
X159516190Y-105094819D02*
X159611428Y-105142438D01*
X159611428Y-105142438D02*
X159659047Y-105190057D01*
X159659047Y-105190057D02*
X159706666Y-105285295D01*
X159706666Y-105285295D02*
X159706666Y-105380533D01*
X159706666Y-105380533D02*
X159659047Y-105523390D01*
X159659047Y-105523390D02*
X159087619Y-106094819D01*
X159087619Y-106094819D02*
X159706666Y-106094819D01*
X164073333Y-89099580D02*
X164025714Y-89147200D01*
X164025714Y-89147200D02*
X163882857Y-89194819D01*
X163882857Y-89194819D02*
X163787619Y-89194819D01*
X163787619Y-89194819D02*
X163644762Y-89147200D01*
X163644762Y-89147200D02*
X163549524Y-89051961D01*
X163549524Y-89051961D02*
X163501905Y-88956723D01*
X163501905Y-88956723D02*
X163454286Y-88766247D01*
X163454286Y-88766247D02*
X163454286Y-88623390D01*
X163454286Y-88623390D02*
X163501905Y-88432914D01*
X163501905Y-88432914D02*
X163549524Y-88337676D01*
X163549524Y-88337676D02*
X163644762Y-88242438D01*
X163644762Y-88242438D02*
X163787619Y-88194819D01*
X163787619Y-88194819D02*
X163882857Y-88194819D01*
X163882857Y-88194819D02*
X164025714Y-88242438D01*
X164025714Y-88242438D02*
X164073333Y-88290057D01*
X165025714Y-89194819D02*
X164454286Y-89194819D01*
X164740000Y-89194819D02*
X164740000Y-88194819D01*
X164740000Y-88194819D02*
X164644762Y-88337676D01*
X164644762Y-88337676D02*
X164549524Y-88432914D01*
X164549524Y-88432914D02*
X164454286Y-88480533D01*
X164123333Y-93844819D02*
X163790000Y-93368628D01*
X163551905Y-93844819D02*
X163551905Y-92844819D01*
X163551905Y-92844819D02*
X163932857Y-92844819D01*
X163932857Y-92844819D02*
X164028095Y-92892438D01*
X164028095Y-92892438D02*
X164075714Y-92940057D01*
X164075714Y-92940057D02*
X164123333Y-93035295D01*
X164123333Y-93035295D02*
X164123333Y-93178152D01*
X164123333Y-93178152D02*
X164075714Y-93273390D01*
X164075714Y-93273390D02*
X164028095Y-93321009D01*
X164028095Y-93321009D02*
X163932857Y-93368628D01*
X163932857Y-93368628D02*
X163551905Y-93368628D01*
X164456667Y-92844819D02*
X165075714Y-92844819D01*
X165075714Y-92844819D02*
X164742381Y-93225771D01*
X164742381Y-93225771D02*
X164885238Y-93225771D01*
X164885238Y-93225771D02*
X164980476Y-93273390D01*
X164980476Y-93273390D02*
X165028095Y-93321009D01*
X165028095Y-93321009D02*
X165075714Y-93416247D01*
X165075714Y-93416247D02*
X165075714Y-93654342D01*
X165075714Y-93654342D02*
X165028095Y-93749580D01*
X165028095Y-93749580D02*
X164980476Y-93797200D01*
X164980476Y-93797200D02*
X164885238Y-93844819D01*
X164885238Y-93844819D02*
X164599524Y-93844819D01*
X164599524Y-93844819D02*
X164504286Y-93797200D01*
X164504286Y-93797200D02*
X164456667Y-93749580D01*
D10*
X149612000Y-96448000D02*
X156152000Y-96448000D01*
X149612000Y-96778000D02*
X149612000Y-96448000D01*
X149612000Y-98858000D02*
X149612000Y-99188000D01*
X149612000Y-99188000D02*
X156152000Y-99188000D01*
X156152000Y-96448000D02*
X156152000Y-96778000D01*
X156152000Y-99188000D02*
X156152000Y-98858000D01*
X161262000Y-97598000D02*
X169702000Y-97598000D01*
X161262000Y-111838000D02*
X161262000Y-97598000D01*
X161562000Y-111838000D02*
X161262000Y-111838000D01*
X161562000Y-115838000D02*
X161562000Y-111838000D01*
X167802000Y-111838000D02*
X167802000Y-115838000D01*
X167802000Y-115838000D02*
X161562000Y-115838000D01*
X169702000Y-97598000D02*
X169702000Y-111838000D01*
X169702000Y-111838000D02*
X167802000Y-111838000D01*
X136912000Y-96448000D02*
X143452000Y-96448000D01*
X136912000Y-96778000D02*
X136912000Y-96448000D01*
X136912000Y-98858000D02*
X136912000Y-99188000D01*
X136912000Y-99188000D02*
X143452000Y-99188000D01*
X143452000Y-96448000D02*
X143452000Y-96778000D01*
X143452000Y-99188000D02*
X143452000Y-98858000D01*
X122342000Y-92678000D02*
X123672000Y-92678000D01*
X122342000Y-94008000D02*
X122342000Y-92678000D01*
X122342000Y-95278000D02*
X122342000Y-100418000D01*
X122342000Y-95278000D02*
X124942000Y-95278000D01*
X122342000Y-100418000D02*
X127542000Y-100418000D01*
X124942000Y-92678000D02*
X127542000Y-92678000D01*
X124942000Y-95278000D02*
X124942000Y-92678000D01*
X127542000Y-92678000D02*
X127542000Y-100418000D01*
X106902000Y-111368000D02*
X106902000Y-112008000D01*
X106902000Y-112008000D02*
X107302000Y-112008000D01*
X107142000Y-102648000D02*
X107142000Y-111768000D01*
X107142000Y-102648000D02*
X157262000Y-102648000D01*
X107142000Y-110208000D02*
X157262000Y-110208000D01*
X107142000Y-111308000D02*
X157262000Y-111308000D01*
X107142000Y-111768000D02*
X157262000Y-111768000D01*
X108154000Y-107989000D02*
X108048000Y-108096000D01*
X108420000Y-108255000D02*
X108314000Y-108362000D01*
X111090000Y-105054000D02*
X110983000Y-105161000D01*
X111356000Y-105320000D02*
X111249000Y-105427000D01*
X113444000Y-107700000D02*
X113049000Y-108096000D01*
X113695000Y-107982000D02*
X113315000Y-108362000D01*
X116090000Y-105054000D02*
X115710000Y-105434000D01*
X116356000Y-105320000D02*
X115961000Y-105716000D01*
X118444000Y-107700000D02*
X118049000Y-108096000D01*
X118695000Y-107982000D02*
X118315000Y-108362000D01*
X121090000Y-105054000D02*
X120710000Y-105434000D01*
X121356000Y-105320000D02*
X120961000Y-105716000D01*
X123444000Y-107700000D02*
X123049000Y-108096000D01*
X123695000Y-107982000D02*
X123315000Y-108362000D01*
X126090000Y-105054000D02*
X125710000Y-105434000D01*
X126356000Y-105320000D02*
X125961000Y-105716000D01*
X128444000Y-107700000D02*
X128049000Y-108096000D01*
X128695000Y-107982000D02*
X128315000Y-108362000D01*
X131090000Y-105054000D02*
X130710000Y-105434000D01*
X131356000Y-105320000D02*
X130961000Y-105716000D01*
X133444000Y-107700000D02*
X133049000Y-108096000D01*
X133695000Y-107982000D02*
X133315000Y-108362000D01*
X136090000Y-105054000D02*
X135710000Y-105434000D01*
X136356000Y-105320000D02*
X135961000Y-105716000D01*
X138444000Y-107700000D02*
X138049000Y-108096000D01*
X138695000Y-107982000D02*
X138315000Y-108362000D01*
X141090000Y-105054000D02*
X140710000Y-105434000D01*
X141356000Y-105320000D02*
X140961000Y-105716000D01*
X143444000Y-107700000D02*
X143049000Y-108096000D01*
X143695000Y-107982000D02*
X143315000Y-108362000D01*
X146090000Y-105054000D02*
X145710000Y-105434000D01*
X146356000Y-105320000D02*
X145961000Y-105716000D01*
X148444000Y-107700000D02*
X148049000Y-108096000D01*
X148695000Y-107982000D02*
X148315000Y-108362000D01*
X151090000Y-105054000D02*
X150710000Y-105434000D01*
X151356000Y-105320000D02*
X150961000Y-105716000D01*
X153444000Y-107700000D02*
X153049000Y-108096000D01*
X153695000Y-107982000D02*
X153315000Y-108362000D01*
X156090000Y-105054000D02*
X155710000Y-105434000D01*
X156356000Y-105320000D02*
X155961000Y-105716000D01*
X157262000Y-102648000D02*
X157262000Y-111768000D01*
X111882000Y-106708000D02*
G75*
G02*
X107522000Y-106708000I-2180000J0D01*
G01*
X107522000Y-106708000D02*
G75*
G02*
X111882000Y-106708000I2180000J0D01*
G01*
X116882000Y-106708000D02*
G75*
G02*
X112522000Y-106708000I-2180000J0D01*
G01*
X112522000Y-106708000D02*
G75*
G02*
X116882000Y-106708000I2180000J0D01*
G01*
X121882000Y-106708000D02*
G75*
G02*
X117522000Y-106708000I-2180000J0D01*
G01*
X117522000Y-106708000D02*
G75*
G02*
X121882000Y-106708000I2180000J0D01*
G01*
X126882000Y-106708000D02*
G75*
G02*
X122522000Y-106708000I-2180000J0D01*
G01*
X122522000Y-106708000D02*
G75*
G02*
X126882000Y-106708000I2180000J0D01*
G01*
X131882000Y-106708000D02*
G75*
G02*
X127522000Y-106708000I-2180000J0D01*
G01*
X127522000Y-106708000D02*
G75*
G02*
X131882000Y-106708000I2180000J0D01*
G01*
X136882000Y-106708000D02*
G75*
G02*
X132522000Y-106708000I-2180000J0D01*
G01*
X132522000Y-106708000D02*
G75*
G02*
X136882000Y-106708000I2180000J0D01*
G01*
X141882000Y-106708000D02*
G75*
G02*
X137522000Y-106708000I-2180000J0D01*
G01*
X137522000Y-106708000D02*
G75*
G02*
X141882000Y-106708000I2180000J0D01*
G01*
X146882000Y-106708000D02*
G75*
G02*
X142522000Y-106708000I-2180000J0D01*
G01*
X142522000Y-106708000D02*
G75*
G02*
X146882000Y-106708000I2180000J0D01*
G01*
X151882000Y-106708000D02*
G75*
G02*
X147522000Y-106708000I-2180000J0D01*
G01*
X147522000Y-106708000D02*
G75*
G02*
X151882000Y-106708000I2180000J0D01*
G01*
X156882000Y-106708000D02*
G75*
G02*
X152522000Y-106708000I-2180000J0D01*
G01*
X152522000Y-106708000D02*
G75*
G02*
X156882000Y-106708000I2180000J0D01*
G01*
X165260000Y-90100000D02*
X166800000Y-90100000D01*
X165260000Y-90140000D02*
X166800000Y-90140000D01*
X165261000Y-90060000D02*
X166800000Y-90060000D01*
X165263000Y-90020000D02*
X166800000Y-90020000D01*
X165265000Y-89980000D02*
X166800000Y-89980000D01*
X165268000Y-89940000D02*
X166800000Y-89940000D01*
X165271000Y-89900000D02*
X166800000Y-89900000D01*
X165275000Y-89860000D02*
X166800000Y-89860000D01*
X165280000Y-89820000D02*
X166800000Y-89820000D01*
X165285000Y-89780000D02*
X166800000Y-89780000D01*
X165291000Y-89740000D02*
X166800000Y-89740000D01*
X165297000Y-89700000D02*
X166800000Y-89700000D01*
X165304000Y-89660000D02*
X166800000Y-89660000D01*
X165312000Y-89620000D02*
X166800000Y-89620000D01*
X165321000Y-89580000D02*
X166800000Y-89580000D01*
X165330000Y-89540000D02*
X166800000Y-89540000D01*
X165339000Y-89500000D02*
X166800000Y-89500000D01*
X165350000Y-89460000D02*
X166800000Y-89460000D01*
X165361000Y-89420000D02*
X166800000Y-89420000D01*
X165373000Y-89380000D02*
X166800000Y-89380000D01*
X165385000Y-89340000D02*
X166800000Y-89340000D01*
X165398000Y-89300000D02*
X166800000Y-89300000D01*
X165412000Y-89260000D02*
X166800000Y-89260000D01*
X165427000Y-89220000D02*
X166800000Y-89220000D01*
X165442000Y-89180000D02*
X166800000Y-89180000D01*
X165458000Y-89140000D02*
X166800000Y-89140000D01*
X165475000Y-89100000D02*
X166800000Y-89100000D01*
X165493000Y-89060000D02*
X166800000Y-89060000D01*
X165511000Y-89020000D02*
X166800000Y-89020000D01*
X165531000Y-88980000D02*
X166800000Y-88980000D01*
X165551000Y-88940000D02*
X166800000Y-88940000D01*
X165572000Y-88900000D02*
X166800000Y-88900000D01*
X165594000Y-88860000D02*
X166800000Y-88860000D01*
X165617000Y-88820000D02*
X166800000Y-88820000D01*
X165641000Y-88780000D02*
X166800000Y-88780000D01*
X165665000Y-88740000D02*
X166800000Y-88740000D01*
X165691000Y-88700000D02*
X166800000Y-88700000D01*
X165718000Y-88660000D02*
X166800000Y-88660000D01*
X165746000Y-88620000D02*
X166800000Y-88620000D01*
X165775000Y-88580000D02*
X166800000Y-88580000D01*
X165805000Y-88540000D02*
X166800000Y-88540000D01*
X165837000Y-88500000D02*
X166800000Y-88500000D01*
X165870000Y-88460000D02*
X166800000Y-88460000D01*
X165904000Y-88420000D02*
X166800000Y-88420000D01*
X165939000Y-88380000D02*
X166800000Y-88380000D01*
X165976000Y-88340000D02*
X166800000Y-88340000D01*
X166015000Y-88300000D02*
X166800000Y-88300000D01*
X166055000Y-88260000D02*
X166800000Y-88260000D01*
X166097000Y-88220000D02*
X166800000Y-88220000D01*
X166115000Y-92694775D02*
X166615000Y-92694775D01*
X166141000Y-88180000D02*
X166800000Y-88180000D01*
X166188000Y-88140000D02*
X166800000Y-88140000D01*
X166236000Y-88100000D02*
X169444000Y-88100000D01*
X166287000Y-88060000D02*
X169393000Y-88060000D01*
X166341000Y-88020000D02*
X169339000Y-88020000D01*
X166365000Y-92944775D02*
X166365000Y-92444775D01*
X166397000Y-87980000D02*
X169283000Y-87980000D01*
X166457000Y-87940000D02*
X169223000Y-87940000D01*
X166521000Y-87900000D02*
X169159000Y-87900000D01*
X166589000Y-87860000D02*
X169091000Y-87860000D01*
X166663000Y-87820000D02*
X169017000Y-87820000D01*
X166742000Y-87780000D02*
X168938000Y-87780000D01*
X166829000Y-87740000D02*
X168851000Y-87740000D01*
X166926000Y-87700000D02*
X168754000Y-87700000D01*
X167035000Y-87660000D02*
X168645000Y-87660000D01*
X167163000Y-87620000D02*
X168517000Y-87620000D01*
X167323000Y-87580000D02*
X168357000Y-87580000D01*
X167557000Y-87540000D02*
X168123000Y-87540000D01*
X168880000Y-88140000D02*
X169492000Y-88140000D01*
X168880000Y-88180000D02*
X169539000Y-88180000D01*
X168880000Y-88220000D02*
X169583000Y-88220000D01*
X168880000Y-88260000D02*
X169625000Y-88260000D01*
X168880000Y-88300000D02*
X169665000Y-88300000D01*
X168880000Y-88340000D02*
X169704000Y-88340000D01*
X168880000Y-88380000D02*
X169741000Y-88380000D01*
X168880000Y-88420000D02*
X169776000Y-88420000D01*
X168880000Y-88460000D02*
X169810000Y-88460000D01*
X168880000Y-88500000D02*
X169843000Y-88500000D01*
X168880000Y-88540000D02*
X169875000Y-88540000D01*
X168880000Y-88580000D02*
X169905000Y-88580000D01*
X168880000Y-88620000D02*
X169934000Y-88620000D01*
X168880000Y-88660000D02*
X169962000Y-88660000D01*
X168880000Y-88700000D02*
X169989000Y-88700000D01*
X168880000Y-88740000D02*
X170015000Y-88740000D01*
X168880000Y-88780000D02*
X170039000Y-88780000D01*
X168880000Y-88820000D02*
X170063000Y-88820000D01*
X168880000Y-88860000D02*
X170086000Y-88860000D01*
X168880000Y-88900000D02*
X170108000Y-88900000D01*
X168880000Y-88940000D02*
X170129000Y-88940000D01*
X168880000Y-88980000D02*
X170149000Y-88980000D01*
X168880000Y-89020000D02*
X170169000Y-89020000D01*
X168880000Y-89060000D02*
X170187000Y-89060000D01*
X168880000Y-89100000D02*
X170205000Y-89100000D01*
X168880000Y-89140000D02*
X170222000Y-89140000D01*
X168880000Y-89180000D02*
X170238000Y-89180000D01*
X168880000Y-89220000D02*
X170253000Y-89220000D01*
X168880000Y-89260000D02*
X170268000Y-89260000D01*
X168880000Y-89300000D02*
X170282000Y-89300000D01*
X168880000Y-89340000D02*
X170295000Y-89340000D01*
X168880000Y-89380000D02*
X170307000Y-89380000D01*
X168880000Y-89420000D02*
X170319000Y-89420000D01*
X168880000Y-89460000D02*
X170330000Y-89460000D01*
X168880000Y-89500000D02*
X170341000Y-89500000D01*
X168880000Y-89540000D02*
X170350000Y-89540000D01*
X168880000Y-89580000D02*
X170359000Y-89580000D01*
X168880000Y-89620000D02*
X170368000Y-89620000D01*
X168880000Y-89660000D02*
X170376000Y-89660000D01*
X168880000Y-89700000D02*
X170383000Y-89700000D01*
X168880000Y-89740000D02*
X170389000Y-89740000D01*
X168880000Y-89780000D02*
X170395000Y-89780000D01*
X168880000Y-89820000D02*
X170400000Y-89820000D01*
X168880000Y-89860000D02*
X170405000Y-89860000D01*
X168880000Y-89900000D02*
X170409000Y-89900000D01*
X168880000Y-89940000D02*
X170412000Y-89940000D01*
X168880000Y-89980000D02*
X170415000Y-89980000D01*
X168880000Y-90020000D02*
X170417000Y-90020000D01*
X168880000Y-90060000D02*
X170419000Y-90060000D01*
X168880000Y-90100000D02*
X170420000Y-90100000D01*
X168880000Y-90140000D02*
X170420000Y-90140000D01*
X170460000Y-90140000D02*
G75*
G02*
X165220000Y-90140000I-2620000J0D01*
G01*
X165220000Y-90140000D02*
G75*
G02*
X170460000Y-90140000I2620000J0D01*
G01*
X161830000Y-94270000D02*
X168370000Y-94270000D01*
X161830000Y-94600000D02*
X161830000Y-94270000D01*
X161830000Y-96680000D02*
X161830000Y-97010000D01*
X161830000Y-97010000D02*
X168370000Y-97010000D01*
X168370000Y-94270000D02*
X168370000Y-94600000D01*
X168370000Y-97010000D02*
X168370000Y-96680000D01*
%LPC*%
D13*
X110172000Y-96038000D03*
D14*
X149072000Y-97818000D03*
D15*
X156692000Y-97818000D03*
D16*
X163582000Y-102618000D03*
X165582000Y-110518000D03*
X163582000Y-108118000D03*
D14*
X136372000Y-97818000D03*
D15*
X143992000Y-97818000D03*
D17*
X123672000Y-94008000D03*
D18*
X126212000Y-94008000D03*
X123672000Y-96548000D03*
X126212000Y-96548000D03*
X123672000Y-99088000D03*
X126212000Y-99088000D03*
D19*
X109702000Y-106708000D03*
D20*
X114702000Y-106708000D03*
X119702000Y-106708000D03*
X124702000Y-106708000D03*
X129702000Y-106708000D03*
X134702000Y-106708000D03*
X139702000Y-106708000D03*
X144702000Y-106708000D03*
X149702000Y-106708000D03*
X154702000Y-106708000D03*
D21*
X167840000Y-91140000D03*
D14*
X167840000Y-89140000D03*
X161290000Y-95640000D03*
D15*
X168910000Y-95640000D03*
D22*
X161544000Y-91948000D03*
D18*
X161544000Y-89408000D03*
X159004000Y-91948000D03*
X159004000Y-89408000D03*
X156464000Y-91948000D03*
X156464000Y-89408000D03*
X153924000Y-91948000D03*
X153924000Y-89408000D03*
X151384000Y-91948000D03*
X151384000Y-89408000D03*
X148844000Y-91948000D03*
X148844000Y-89408000D03*
X146304000Y-91948000D03*
X146304000Y-89408000D03*
X143764000Y-91948000D03*
X143764000Y-89408000D03*
X141224000Y-91948000D03*
X141224000Y-89408000D03*
X138684000Y-91948000D03*
X138684000Y-89408000D03*
X136144000Y-91948000D03*
X136144000Y-89408000D03*
X133604000Y-91948000D03*
X133604000Y-89408000D03*
X131064000Y-91948000D03*
X131064000Y-89408000D03*
%LPD*%
M02*
